<svg xmlns="http://www.w3.org/2000/svg" width="24" height="24" viewBox="0 0 24 24">
    <g fill="none" fill-rule="evenodd">
        <path d="M0 0h24v24H0z"/>
        <path fill="#1D1D1D" d="M9.632 16.278V8.722c0-1.039.843-1.889 1.894-1.889h8.527V5.89A1.897 1.897 0 0 0 18.158 4H4.895C3.843 4 3 4.85 3 5.889V19.11C3 20.15 3.843 21 4.895 21h13.263c1.042 0 1.895-.85 1.895-1.889v-.944h-8.527a1.891 1.891 0 0 1-1.894-1.89zm2.842-7.556a.949.949 0 0 0-.948.945v5.666c0 .52.427.945.948.945H21V8.722h-8.526zm2.842 5.195a1.417 1.417 0 1 1 0-2.834 1.417 1.417 0 1 1 0 2.834z"/>
    </g>
</svg>
