<svg xmlns="http://www.w3.org/2000/svg" width="24" height="24" viewBox="0 0 24 24">
    <g fill="none" fill-rule="evenodd">
        <path d="M0 0h24v24H0z"/>
        <path fill="#1D1D1D" d="M18.4 4.636c.88 0 1.6.737 1.6 1.637v13.09c0 .9-.72 1.637-1.6 1.637H5.6c-.88 0-1.6-.736-1.6-1.636V6.273c0-.9.72-1.637 1.6-1.637h.8v-.818c0-.45.36-.818.8-.818.44 0 .8.368.8.818v.818h8v-.818c0-.45.36-.818.8-.818.44 0 .8.368.8.818v.818h.8zM17.25 19c.413 0 .75-.346.75-.77V9H6v9.23c0 .424.338.77.75.77h10.5zM8 12h2v2H8v-2zm0 3h2v2H8v-2zm3-3h2v2h-2v-2zm0 3h2v2h-2v-2zm3-3h2v2h-2v-2zm0 3h2v2h-2v-2z"/>
    </g>
</svg>
