<svg xmlns="http://www.w3.org/2000/svg" width="39" height="40" viewBox="0 0 39 40">
    <g fill="none" fill-rule="nonzero" transform="translate(.124 .335)">
        <path fill="#D1CCED" d="M37.533 32.674L16.807 14.461a6.128 6.128 0 0 0-.95-7.415L9.174.366a1.246 1.246 0 0 0-1.762 1.761l4.556 4.556a1.246 1.246 0 0 1-1.762 1.762L3.89 2.127A1.246 1.246 0 1 0 2.127 3.89l6.318 6.318a1.246 1.246 0 0 1-1.762 1.762L2.127 7.413A1.246 1.246 0 1 0 .365 9.175L7.05 15.86a6.122 6.122 0 0 0 7.384.962l18.219 20.733a3.461 3.461 0 1 0 4.88-4.88z"/>
        <path fill="#DAD7F2" d="M16.317 8.368a.881.881 0 0 0-.806 1.236 4.383 4.383 0 0 1-.062 3.656.881.881 0 0 0 1.59.759l.001-.001c.268-.563.45-1.163.538-1.78l.004-.03.004-.03v-.001l.004-.03.004-.03v-.002l.003-.02v-.01h.001l.002-.02.001-.01v-.001l.003-.02v-.01h.001l.002-.02.001-.01v-.002l.001-.009.001-.01.001-.01v-.001l.001-.01.001-.01.001-.01v-.001l.001-.009.001-.01v-.001l.001-.009V11.9v-.01l.002-.01v-.011l.001-.008v-.001l.001-.01V11.84l.001-.003V11.83l.002-.01v-.012l.001-.007v-.012l.001-.009v-.002l.001-.008v-.002-.01l.001-.009v-.002l.001-.007v-.003V11.726l.001-.008v-.01l.001-.003a.37.37 0 0 1 0-.009v-.001l.001-.008v-.012l.001-.01v-.012l.001-.007v-.002a.34.34 0 0 1 0-.01l.001-.009v-.012l.001-.01V11.581l.001-.009v-.001V11.55l.001-.009V11.524v-.004l.001-.008V11.5 11.479v-.011l.001-.006v-.003-.011-.02-.01-.012a.12.12 0 0 0 0-.009v-.007l.001-.004v-.01-.031-.031V11.305v-.007-.011-.004-.005-.01-.004l-.001-.008v-.004-.005V11.232v-.007-.004-.005-.004-.005l-.001-.006v-.006V11.17l-.001-.007V11.14l-.001-.008V11.115l-.001-.005v-.008-.004-.005l-.001-.004v-.01-.008l-.001-.004v-.005V11.053l-.001-.004a.28.28 0 0 0 0-.008v-.005l-.001-.004v-.005V11.018l-.001-.008V10.996l-.001-.004V10.979l-.001-.004v-.005-.004l-.001-.005v-.004-.009l-.001-.004V10.935l-.001-.005v-.004l-.001-.008V10.909l-.001-.005V10.895l-.001-.008v-.005l-.001-.004v-.005a.06.06 0 0 0 0-.004l-.001-.005v-.007l-.001-.005v-.005l-.001-.004v-.005l-.001-.004v-.008l-.001-.004v-.01l-.001-.005v-.004l-.001-.008v-.004l-.001-.005v-.005l-.001-.004a.09.09 0 0 1 0-.005l-.001-.005v-.007l-.001-.004v-.006l-.001-.003v-.005l-.001-.006v-.007l-.001-.004v-.005l-.001-.004v-.005l-.001-.005-.001-.008v-.004l-.001-.005v-.004l-.001-.005v-.004l-.002-.008v-.01l-.001-.003v-.005l-.001-.005-.001-.008v-.004l-.001-.005v-.004l-.001-.005v-.004l-.002-.009v-.004l-.001-.005v-.004l-.001-.005v-.004l-.002-.008v-.004l-.001-.005v-.004l-.001-.005v-.005l-.002-.008a.08.08 0 0 1 0-.004l-.001-.005v-.004l-.001-.005v-.005l-.002-.007v-.005l-.001-.004V10.5l-.001-.004-.001-.006-.001-.006v-.005l-.002-.005V10.466l-.002-.005v-.006l-.001-.006-.001-.004v-.005l-.001-.004-.001-.006-.001-.006v-.005l-.002-.005v-.005l-.001-.004V10.4l-.002-.005v-.006l-.001-.004-.001-.005v-.004l-.002-.006v-.006l-.001-.005-.001-.005v-.004l-.002-.005v-.005l-.001-.006-.001-.006-.001-.004-.001-.005v-.004l-.002-.006v-.005l-.002-.006v-.004l-.001-.005v-.005l-.002-.006v-.003l-.002-.008v-.004l-.002-.005v-.004l-.001-.006v-.003l-.002-.008-.001-.004-.001-.005v-.004l-.002-.006v-.003l-.002-.009v-.003l-.002-.006v-.003l-.002-.007v-.002l-.002-.009v-.003l-.002-.006v-.004l-.002-.006v-.003l-.002-.008v-.003l-.002-.006v-.004l-.002-.006v-.003l-.002-.008v-.003l-.002-.007v-.003l-.002-.007v-.002a.273.273 0 0 1-.002-.009l-.001-.003-.001-.006-.001-.003-.002-.007v-.002l-.002-.009v-.003l-.002-.006v-.003l-.002-.007v-.002l-.003-.01v-.002l-.002-.006v-.003a.21.21 0 0 0-.002-.007v-.002l-.002-.01-.001-.002-.002-.006v-.003l-.002-.007v-.003l-.002-.008-.001-.003-.002-.007v-.002l-.002-.008v-.002l-.003-.009v-.002l-.002-.007v-.003l-.002-.007v-.002l-.003-.009v-.002l-.002-.007v-.003a.196.196 0 0 1-.003-.007v-.002a.303.303 0 0 0-.002-.009v-.001l-.003-.008V9.86l-.002-.007v-.002l-.003-.01-.002-.008v-.002l-.003-.009-.003-.01-.002-.01v-.001l-.003-.008v-.001l-.002-.01-.003-.01v-.001l-.003-.008v-.001c0-.004-.002-.007-.003-.01l-.002-.01v-.001l-.003-.008v-.001l-.005-.02-.003-.01-.006-.019v-.002l-.003-.008-.005-.02v-.001l-.003-.009-.006-.02a1.725 1.725 0 0 0-.009-.029v-.001l-.003-.01-.006-.02a6.057 6.057 0 0 0-.25-.671.88.88 0 0 0-.806-.525z"/>
        <path fill="#BBB3E5" d="M21.788 18.957a1.955 1.955 0 0 0-2.5.664l-1.033 1.549 2.611 2.972c.126-.1.239-.216.336-.345l1.338-2.008a1.955 1.955 0 0 0-.752-2.832z"/>
        <g fill="#DAD7F2">
            <path d="M2.223 8.906A.881.881 0 0 0 1.6 10.41l5.45 5.45a6.064 6.064 0 0 0 4.307 1.782c1.08 0 2.14-.282 3.077-.82v.001h.001l.001.002.005.006.002.002.002.002.001.001.001.002.003.003.003.003.001.001.003.004.002.002.002.002.001.001.003.004.003.002.002.003.002.003h.001l.002.003.007.008.002.002.007.008.001.001.005.005v.002l.005.004v.001l.001.001.002.002.014.015.002.003.001.001.003.003 4.659 5.302a.881.881 0 0 0 1.322-1.164l-4.748-5.404a1.762 1.762 0 0 0-2.2-.365 4.426 4.426 0 0 1-2.2.586 4.3 4.3 0 0 1-3.062-1.266l-5.45-5.45a.879.879 0 0 0-.623-.258zm20.244 10.82a.881.881 0 0 0-.582 1.543l14.502 12.743c.463.394.68 1.007.564 1.604a.88.88 0 1 0 1.733.32c.075-.406.077-.822.007-1.229l-.004-.02-.001-.007-.004-.02-.004-.021-.001-.007-.004-.02v-.001l-.002-.006-.002-.014-.002-.006v-.001l-.001-.007-.002-.006-.001-.007-.002-.006v-.002l-.003-.012v-.001l-.001-.006v-.001l-.002-.005v-.002l-.003-.012v-.002l-.001-.005v-.001l-.002-.006-.002-.007v-.001l-.001-.005v-.002l-.002-.005v-.001l-.002-.007-.001-.006v-.002l-.002-.004v-.002l-.002-.005v-.001l-.002-.006v-.002l-.001-.005v-.002l-.002-.004v-.002l-.002-.005v-.001l-.002-.006v-.002l-.001-.004v-.003l-.002-.004v-.002l-.002-.006V34.4l-.002-.005v-.002l-.001-.004-.001-.003-.001-.003v-.003a.142.142 0 0 0-.002-.005v-.003l-.002-.003v-.003l-.002-.004v-.002l-.001-.004-.001-.004-.002-.004v-.003l-.001-.003-.001-.003-.001-.003v-.003l-.002-.005-.001-.003-.001-.003-.001-.003-.001-.003v-.003l-.002-.004-.001-.004-.001-.004-.001-.003-.001-.003-.001-.003v-.002l-.002-.004v-.002l-.003-.007v-.002l-.001-.003-.001-.003a.08.08 0 0 1-.001-.003l-.001-.003-.004-.012v-.002l-.002-.004v-.002l-.002-.004v-.001l-.003-.009-.002-.005v-.001l-.001-.004-.001-.002-.004-.014-.002-.005v-.002l-.002-.004-.005-.015-.002-.005v-.001l-.007-.02-.002-.005v-.001l-.006-.015-.002-.005a.1.1 0 0 1-.002-.005l-.005-.015v-.001l-.002-.005a.989.989 0 0 0-.008-.02 1.152 1.152 0 0 0-.008-.02v-.001l-.002-.005a2.027 2.027 0 0 0-.008-.02l-.002-.006-.008-.02-.01-.026a3.435 3.435 0 0 0-.702-1.074l-.02-.021a2.871 2.871 0 0 0-.016-.016v-.001l-.004-.004-.017-.016-.004-.004-.012-.012v-.001l-.004-.003-.001-.001-.004-.004-.008-.008-.004-.003v-.001l-.004-.004h-.001l-.011-.011-.002-.001-.003-.003-.001-.002-.003-.003-.002-.001-.007-.007-.003-.003-.002-.002-.003-.003-.002-.001-.003-.003-.002-.002-.005-.005-.002-.002-.003-.002-.002-.002-.003-.003-.002-.002-.003-.002-.004-.004-.002-.002-.003-.003-.002-.002-.003-.002-.002-.002-.003-.003-.003-.003a.157.157 0 0 0-.004-.003l-.002-.002-.003-.003-.002-.002-.003-.002-.003-.002-.004-.005-.002-.001-.003-.003-.003-.002-.003-.003-.002-.001-.003-.004-.002-.001-.005-.004-.001-.002-.004-.003-.002-.001-.003-.004-.002-.001-.005-.004-.001-.001-.002-.002-.002-.001v-.001l-.002-.002h-.001l-.002-.002-.002-.002h-.001v-.001l-.002-.001v-.001h-.001l-.003-.003-.005-.004-.003-.003-.001-.001h-.001l-.004-.005-.003-.002-.005-.004-.002-.002-.005-.004-.004-.004-.001-.001h-.001a4.836 4.836 0 0 0-.019-.017l-.012-.01-.001-.002-.003-.002-14.396-12.65a.877.877 0 0 0-.58-.22z"/>
            <path d="M23.333 24.734a.88.88 0 0 0-.664 1.46l9.932 11.302.005.005v.001l.002.001v.002h.002l.006.008.008.009.001.002.005.005.004.005h.001l.001.002.002.002v.001l.003.002.002.003.003.003.001.001.004.004v.001h.001v.001a3.461 3.461 0 0 0 5.216.047l.033-.037.005-.006a3.225 3.225 0 0 0 .066-.078l.01-.013.026-.033.053-.07.002-.002.029-.04.01-.014a3.45 3.45 0 0 0 .582-2.637 3.44 3.44 0 0 0-.932-1.792l-.012-.013a3.517 3.517 0 0 0-.04-.039l-.01-.01-.01-.01a3.485 3.485 0 0 0-.089-.082l-.009-.008a1.227 1.227 0 0 0-.011-.01l-.004-.003-.006-.005-.01-.01-.01-.009-.008-.006-.002-.001v-.001h-.001l-.001-.002-.002-.001h-.001v-.001l-.009-.008-.007-.006-.003-.003-.003-.003-.002-.001-.036-.032-.004-.003-.002-.002-.004-.003-.007-.006-.003-.004-.01-.007-.009-.009-.003-.002-2.464-2.166a.881.881 0 0 0-1.163 1.324l2.59 2.275a1.7 1.7 0 1 1-2.41 2.38l-9.982-11.359a.879.879 0 0 0-.662-.3z"/>
        </g>
        <path fill="#E5E2F5" d="M36.977 1.787c-2.92-2.92-8.436-2.136-12.321 1.75-3.354 3.353-4.383 7.915-2.728 10.98L1.208 32.674a3.461 3.461 0 1 0 4.881 4.88l18.158-20.718c3.065 1.654 7.626.626 10.98-2.728 3.886-3.886 4.67-9.402 1.75-12.321z"/>
        <ellipse cx="32.597" cy="5.286" fill="#D9D5F0" rx="4.405" ry="5.286"/>
        <path fill="#F2F1FA" d="M14.84 25.377a.879.879 0 0 0-.663.3L4.773 36.408A1.7 1.7 0 1 1 2.392 34l.581-.509a.88.88 0 0 0-1.16-1.327l-.58.508v.001l-.001.001-.002.001-.007.007-.01.008-.01.01-.007.005a3.461 3.461 0 1 0 4.915 4.85l.002-.001v-.001l.004-.004.01-.01v-.003h.002v-.002h.001l.001-.001v-.001l.004-.003v-.001l.002-.002.002-.002v-.001h.001l.008-.01.005-.005.001-.002 9.35-10.67a.881.881 0 0 0-.664-1.458zM32.42.022c-2.568 0-5.441 1.213-7.743 3.514-2.296 2.296-3.502 5.158-3.504 7.719 0 1.18.255 2.295.777 3.262l-.007.005-.003.004h-.001v.001h-.002l-.007.007-.001.001h-.001a.297.297 0 0 1-.005.005l-.005.004-.002.002-4.203 3.684a.88.88 0 1 0 1.161 1.325l4.237-3.713c.618-.542.78-1.439.389-2.162-1.315-2.437-.296-6.179 2.423-8.898 1.877-1.877 4.306-2.998 6.496-2.998.951 0 2.301.216 3.334 1.248 2.19 2.19 1.388 6.692-1.75 9.83a10.876 10.876 0 0 1-2.948 2.117.88.88 0 1 0 .766 1.587h.002l.176-.088.07-.036.008-.003.063-.033.006-.004h.001l.006-.003h.001l.006-.004h.001l.006-.004h.002l.006-.004.042-.022.006-.003h.001l.006-.004h.002l.005-.004h.002l.005-.003.002-.001.005-.003.002-.001.006-.003h.001l.006-.004.027-.015h.001l.005-.003.002-.001.005-.003.003-.001.004-.003.003-.001.005-.002.002-.002.005-.002.003-.002.004-.002.003-.002.004-.002.003-.002.005-.002.001-.001.026-.014.001-.001.005-.003h.002l.005-.004h.003l.005-.004h.002l.005-.004.002-.001.005-.003.003-.001.004-.003.003-.001.004-.003.003-.001.005-.003h.002l.017-.01.002-.002.005-.002.002-.002.005-.002.002-.002.005-.002.003-.002.004-.002.003-.002.005-.003.002-.001.005-.003.002-.001.005-.003.002-.001.005-.003.003-.001.004-.003h.002l.012-.008.005-.003.003-.001.004-.003.003-.001.004-.003.003-.002.004-.002.003-.002.005-.002.003-.002.004-.002.003-.002.004-.003.003-.001.004-.003.003-.001.005-.003.002-.001a3.63 3.63 0 0 0 .024-.014l.002-.001.005-.003.002-.002.005-.002.002-.002.005-.003h.003l.004-.004.003-.001.004-.003.003-.001.005-.003.002-.001.005-.003.002-.001.005-.004h.002l.018-.011.001-.001.004-.003.003-.001.005-.003.003-.002a.213.213 0 0 0 .004-.002l.003-.002a.088.088 0 0 0 .004-.003l.003-.001.004-.003.003-.001.004-.003.003-.002.004-.002.004-.002.004-.003.003-.001.004-.003.002-.001.018-.011.006-.004.002-.001.005-.003.002-.001.005-.003.003-.002.004-.002.003-.002.004-.003.003-.002.004-.002.003-.002.004-.003.003-.001.005-.003.003-.002.004-.002.002-.002.017-.01.002-.001.005-.003.002-.002.005-.003.002-.001.005-.003.002-.002.005-.002.003-.002.004-.003.003-.002.004-.002.003-.002.004-.003.003-.001.004-.003.002-.001.005-.003.002-.001.017-.011.003-.002.004-.002.003-.002.004-.003.003-.002.004-.002.003-.002.004-.003.003-.002.004-.002.003-.002.005-.003.002-.001.005-.003.002-.002.005-.003h.001l.025-.016.002-.002.005-.003.002-.001.005-.003.002-.002.005-.003.003-.001.004-.003.003-.002.004-.003.003-.001.004-.003.003-.002.004-.003.003-.001.005-.003.002-.002.017-.011h.001l.005-.004.003-.002.004-.002.003-.002.004-.003.003-.002.004-.003.003-.001a.077.077 0 0 0 .004-.003l.003-.002.004-.003.003-.001.004-.003.003-.002.005-.003.002-.001.005-.004h.001a1.94 1.94 0 0 1 .017-.012l.003-.001.004-.003.003-.002.004-.003.003-.002.004-.002.003-.002.004-.003.003-.002.004-.003.003-.002.004-.002.003-.002.004-.003.003-.002.004-.003.003-.002.004-.003h.003l.01-.008h.001l.005-.004.002-.002.004-.002.003-.002.005-.003.002-.002.005-.003.002-.002.005-.003.002-.001.005-.003.003-.002.004-.003.002-.002.005-.003.002-.001.005-.004h.001l.026-.018.006-.004h.002l.005-.004.002-.002.005-.003.002-.001.005-.004.002-.001.005-.004.002-.001.005-.003.002-.002.005-.003.001-.001.006-.004.026-.018h.002l.004-.004.003-.002.004-.003.003-.002.004-.003.003-.002.004-.003.003-.001.004-.004.002-.001.005-.004h.002l.005-.004.001-.001.033-.023.006-.004.002-.001a.232.232 0 0 1 .004-.004l.003-.001.005-.004.002-.001.004-.004.003-.001.004-.003.002-.002.005-.003.002-.002a.104.104 0 0 1 .005-.003l.002-.002.024-.017h.002l.005-.005h.002l.005-.004.001-.002.005-.003.002-.002.005-.003.003-.002.004-.003.002-.002.005-.003.002-.002.005-.003.002-.002.005-.003h.001l.02-.015.004-.003.002-.002.005-.004h.002l.005-.005h.002l.005-.004.002-.002.005-.003.002-.002.005-.003.002-.002.005-.004.002-.001.005-.004.002-.001.005-.004h.001l.024-.019h.002l.005-.005h.002l.004-.004.003-.002.004-.003.003-.002.004-.003.003-.002.004-.004.003-.001.004-.004.002-.001.005-.004.002-.001.005-.004a4.93 4.93 0 0 0 .026-.019l.001-.001.005-.004.002-.001a.104.104 0 0 0 .005-.004l.002-.002.005-.003.002-.002a.107.107 0 0 1 .005-.003l.002-.002.004-.004.002-.001.005-.004.002-.001.005-.004.002-.001.025-.019.005-.004.002-.002.005-.003.002-.002.005-.003.002-.002.005-.004.002-.001.005-.004.001-.001.006-.004.001-.001.005-.005h.002l.005-.005.026-.02.006-.004.002-.002a.188.188 0 0 0 .005-.004l.002-.001.004-.004.003-.001.004-.004.002-.002.005-.003.003-.002.004-.004.002-.001.005-.004.002-.002.005-.003.001-.001.017-.014.002-.001.004-.004.003-.001.004-.004.002-.002.005-.003.002-.002.005-.004.002-.001.004-.004.003-.002.004-.003.002-.002.005-.004.002-.001.005-.004.001-.001.006-.005.019-.015.005-.004.003-.002.004-.003.002-.002.005-.004.002-.002.005-.003.002-.002a.084.084 0 0 0 .004-.004l.003-.002.004-.003.003-.002.004-.004.002-.002.005-.003.002-.002.005-.004.018-.015h.002l.004-.005.002-.001.005-.004.002-.002a.078.078 0 0 0 .004-.003l.003-.003.004-.003.003-.002.004-.003a.094.094 0 0 1 .003-.003l.004-.003.003-.002.004-.004.003-.002.003-.003.003-.002.004-.004.003-.001.01-.009.005-.004.002-.002.004-.003.003-.003.004-.003.003-.002.004-.004.003-.002.004-.003.003-.003.004-.003.002-.002.004-.003.003-.003.004-.003.003-.002.004-.004.002-.002.017-.014.006-.004.002-.002.004-.004.002-.002.005-.003.002-.002.004-.004.003-.002.004-.003.003-.003.004-.003.002-.002.004-.004.003-.002.004-.004.002-.002a.093.093 0 0 1 .005-.003l.002-.002.023-.02h.001l.005-.005.002-.001.004-.004.003-.002.004-.004.003-.002a.119.119 0 0 0 .004-.003l.003-.003.003-.003.003-.003.004-.003.003-.003.004-.003.003-.002.004-.003.002-.002.015-.013.003-.002.003-.004.003-.002.004-.004.003-.002.004-.003.003-.003.004-.003.003-.003.003-.003.003-.002.004-.004.003-.002.004-.003.003-.003.003-.003.003-.003.004-.003.003-.002.007-.007.003-.003.004-.003.003-.003.004-.003.003-.002.003-.004.003-.002.004-.004.003-.002.004-.003.003-.003.003-.003.004-.003.003-.003.003-.003.004-.003.003-.003.003-.003.003-.003.004-.003.005-.004.004-.004.004-.003.004-.004.003-.002.003-.003.003-.003.004-.003.003-.003a.143.143 0 0 0 .004-.003l.003-.003.003-.003.003-.003.004-.003.003-.003.004-.003.003-.003.003-.003.004-.003.003-.003.003-.003.004-.003v-.001l.01-.009.003-.002.003-.003.003-.003.004-.003.003-.003.003-.003.004-.003.003-.003.003-.003.004-.003.003-.003.003-.003.004-.003.003-.003.003-.003a.052.052 0 0 0 .003-.003l.004-.003.003-.003.005-.004.002-.002.006-.006.002-.002.005-.004.002-.002.005-.004.002-.003.004-.004.003-.002.004-.004.003-.002.003-.004.004-.003.003-.003.003-.003.004-.003.003-.003.003-.003.004-.003.003-.003.003-.003.005-.004.002-.002.006-.006.003-.003.004-.003.003-.003.003-.003.003-.003.004-.004.003-.002.004-.004.003-.003.003-.003.003-.003.004-.003.003-.003.004-.004.003-.002.004-.004.002-.002.005-.005.002-.002.006-.005.002-.002.005-.005.003-.003.004-.003.002-.003.004-.003.003-.003.004-.004.003-.002.003-.004.003-.003.004-.003.003-.003.004-.004.003-.002c0-.002.002-.003.003-.004l.003-.003.004-.003.003-.003.004-.004.002-.002.007-.006.001-.002.005-.005.003-.002.004-.004.002-.002.005-.004.002-.003.004-.004.003-.002.004-.004.002-.003.004-.003.003-.003.004-.004.002-.002.004-.004.003-.003.004-.004.003-.002.004-.004.002-.002a.456.456 0 0 1 .007-.006l.002-.003.004-.004.003-.002.004-.004.002-.003.004-.004.003-.002.004-.004.002-.003.004-.004.003-.002.004-.004.003-.003.004-.003.002-.003.004-.004.003-.002.005-.005.001-.002.013-.013h.001l.006-.006.002-.002.004-.005.003-.002.004-.004.002-.002.004-.005.003-.002.004-.004.002-.003a.185.185 0 0 1 .005-.003l.002-.003.004-.004.003-.002.004-.005.002-.002.005-.005.001-.001.007-.007c2.301-2.301 3.515-5.175 3.515-7.742 0-1.767-.575-3.39-1.765-4.58C35.809.597 34.186.022 32.419.022z"/>
    </g>
</svg>
