<svg xmlns="http://www.w3.org/2000/svg" width="42" height="41" viewBox="0 0 42 41">
    <g fill="none" fill-rule="nonzero">
        <path fill="#435E88" d="M23.931.234a2.514 2.514 0 0 0-1.83.818c-1.016 1.082-3.459 2.852-8.555 2.852-5.097 0-7.539-1.77-8.556-2.852A2.515 2.515 0 0 0 3.16.234 2.458 2.458 0 0 0 .702 2.692v17.725c0 7.094 5.75 12.845 12.844 12.845 7.093 0 12.844-5.751 12.844-12.845V2.692c0-1.357-1.1-2.458-2.459-2.458z"/>
        <path fill="#33527D" d="M17.216 31.427a1.835 1.835 0 1 1-3.67 0 1.835 1.835 0 0 1 3.67 0z"/>
        <path fill="#163969" d="M17.216 29.592h-7.34a1.835 1.835 0 0 1-1.835-1.835 5.504 5.504 0 1 1 11.01 0 1.835 1.835 0 0 1-1.835 1.835z"/>
        <path fill="#002755" d="M17.216 29.592h-7.34a1.835 1.835 0 0 1-1.835-1.835 5.505 5.505 0 0 1 5.505-5.505H13.626l.008.001h.001l.053.001h.009c.125.004.25.011.373.023a.917.917 0 0 1-.175 1.826 3.674 3.674 0 0 0-4.019 3.654h7.34a.917.917 0 1 1 0 1.835z"/>
        <path fill="#FFBE00" d="M22.72 14.913a3.67 3.67 0 1 1-7.34 0 3.67 3.67 0 0 1 7.34 0z"/>
        <path fill="#FFD700" d="M38.61 7.573a2.516 2.516 0 0 0-1.83.82c-1.016 1.08-3.459 2.85-8.555 2.85-5.097 0-7.539-1.77-8.556-2.85a2.514 2.514 0 0 0-1.83-.82 2.459 2.459 0 0 0-2.458 2.459v17.725c0 7.093 5.75 12.844 12.844 12.844 7.093 0 12.844-5.75 12.844-12.844V10.032c0-1.358-1.1-2.459-2.459-2.459z"/>
        <path fill="#33527D" d="M17.84 3.904a6.135 6.135 0 0 0-6.129 6.128v8.456a1.835 1.835 0 0 0 3.67.002v-5.507-.05V10.031c0-1.358 1.1-2.459 2.458-2.459.697.008 1.36.304 1.83.819l.003.003.001.001.003.004.003.002.004.005.002.002.001.001.003.003.004.004c.485.51 1.284 1.167 2.523 1.719l.008.004.053.023.008.004h.001l.008.003.045.02.008.003.002.001.009.004.007.003h.001l.008.003.001.001.008.004.027.011h.002l.007.004h.002l.006.004h.003l.006.003.003.001.006.003h.002l.007.004h.002l.018.008.008.003.003.001.006.003h.003l.006.003.003.002.006.002.003.001.006.003h.003l.006.003.003.002.006.002.003.001.008.004h.002l.007.003.003.001.006.003.004.001.005.002.003.002.005.002.005.001.004.002.004.002.005.002.004.001.005.002.004.002.007.003.005.002.005.002.005.001.004.002.009.004.005.002.004.001.005.002.004.002.008.003.006.002.003.002.006.002h.002l.013.005.002.001.006.003h.003l.005.003.004.001.005.002.003.002.006.002.004.001.005.002.003.001.006.002.003.002.006.002h.002l.023.01h.001l.007.002.002.001.007.003h.002l.007.003h.002l.007.003.002.001.007.003h.001l.008.003.034.013.009.003.008.003h.002l.007.003h.001l.008.004.028.01a1.835 1.835 0 0 0 1.242-3.454c-1.065-.383-1.61-.85-1.84-1.095a6.218 6.218 0 0 0-4.503-1.974z"/>
        <path fill="#FFEA21" d="M28.225 36.744c0 1.124-1.011 2.034-2.114 1.819-5.063-.989-8.895-5.458-8.895-10.806V10.032c0-.344.279-.624.623-.624a.71.71 0 0 1 .494.241c1.079 1.15 3.513 2.997 8.196 3.364a1.835 1.835 0 0 1 1.696 1.822v21.909z"/>
        <path fill="#FFA300" d="M31.895 29.592h-7.34a1.835 1.835 0 0 0-1.835 1.835 5.504 5.504 0 1 0 11.01 0 1.834 1.834 0 0 0-1.835-1.835z"/>
        <path fill="#FFFC74" d="M34.647 30.51a.917.917 0 0 0-.918.917 5.505 5.505 0 0 1-5.504 5.504h-.116l-.005-.001h-.035l-.005-.001H28.037l-.005-.001H28.01l-.004-.001H27.986l-.005-.001H27.968l-.009-.001h-.012l-.006-.001H27.923l-.005-.001H27.904l-.004-.001H27.886l-.004-.001H27.868l-.004-.001H27.855l-.006-.001h-.003l-.008-.001h-.013l-.007-.001h-.002l-.007-.001h-.012l-.006-.001h-.004l-.005-.001H27.773l-.004-.001h-.005l-.004-.001H27.751l-.005-.001h-.004l-.006-.001h-.012l-.006-.002h-.012l-.01-.002h-.012l-.005-.001h-.004l-.005-.001h-.004l-.005-.001h-.004l-.005-.001h-.004l-.005-.001h-.004l-.005-.001H27.625l-.005-.001h-.004l-.004-.001h-.006l-.003-.001h-.006l-.003-.001h-.007l-.002-.001-.018-.002h-.003l-.006-.002H27.549l-.004-.001h-.005l-.004-.001h-.005l-.004-.001-.005-.001h-.004l-.005-.001h-.004l-.005-.001H27.5l-.005-.001-.004-.001h-.005l-.004-.001h-.005l-.004-.001-.005-.001h-.004l-.005-.002h-.004l-.008-.001h-.004l-.005-.001-.005-.001h-.004l-.004-.001-.005-.001h-.004l-.005-.001-.004-.001h-.005l-.004-.001-.005-.001h-.004l-.005-.001-.004-.001h-.004l-.005-.002H27.362l-.004-.001-.004-.001h-.005l-.005-.002h-.008l-.004-.002-.013-.002h-.005l-.004-.001-.005-.001H27.3l-.005-.002h-.004l-.005-.001-.004-.001h-.004l-.005-.001-.004-.001h-.004l-.005-.002h-.004l-.005-.001-.004-.001-.013-.003h-.004l-.005-.001-.004-.001h-.005l-.004-.001-.005-.001h-.003l-.02-.005-.008-.001-.003-.001h-.005l-.009-.002-.004-.001-.004-.001-.004-.001h-.005l-.004-.002-.013-.002-.004-.001-.005-.001-.004-.001-.005-.001h-.003l-.006-.002h-.003l-.005-.002h-.002l-.007-.001-.024-.006h-.001l-.007-.001h-.002l-.006-.002h-.002l-.006-.002h-.003l-.009-.002-.005-.002h-.003l-.006-.002h-.002l-.007-.002h-.002l-.006-.001-.003-.001-.006-.001h-.002l-.006-.003h-.001l-.049-.011-.007-.002h-.002l-.007-.002h-.002l-.006-.002h-.002l-.007-.002h-.001l-.007-.002h-.002l-.006-.003h-.002l-.007-.002h-.001l-.007-.002h-.001l-.008-.002a6.448 6.448 0 0 1-.065-.017l-.009-.003-.008-.002-.008-.002-.008-.002a5.456 5.456 0 0 1-.811-.296.918.918 0 0 0-.762 1.67 7.342 7.342 0 0 0 10.386-6.68.918.918 0 0 0-.917-.917zm-2.752-2.753h-3.67a.918.918 0 0 0 0 1.835H31.97l.004.001H31.988l.008.001h.012l.005.001h.008l.004.001H32.034l.004.001h.008l.004.001H32.06l.003.001H32.071l.004.001h.005l.004.001.008.001h.008v.001h.004l.008.001.009.001.008.001h.004l.004.001h.004l.009.002.008.001h.004l.004.001h.004l.008.002.009.001.004.001h.004l.004.001.008.002.008.001c.174.03.343.087.5.166h.001l.003.001.008.004.006.004.004.002.003.001h.001l.002.002h.002l.003.002.004.002.002.002.004.001.001.001.002.001h.001l.003.002.001.001.002.001.006.003h.001l.002.002.004.002.003.002.004.002h.001l.002.002.008.004.083.05a.917.917 0 1 0 .988-1.546 3.666 3.666 0 0 0-1.975-.576z"/>
        <path fill="#FFA300" d="M26.39 22.252a3.67 3.67 0 1 1-7.34 0 3.67 3.67 0 0 1 7.34 0z"/>
        <path fill="#FFFC74" d="M22.733 16.748h-.013a.85.85 0 0 0-.025 0l-.125.002a.903.903 0 0 0-.893.912v.017a.933.933 0 0 0 .93.905H22.652l.004-.001h.064a3.67 3.67 0 1 1 0 7.34h-.054l-.004-.001H22.619l-.005-.001h-.025l-.004-.001H22.562l-.002-.001H22.542l-.004-.001H22.52v-.001h-.017l-.001-.001H22.484l-.004-.001h-.012l-.002-.001h-.01l-.006-.001h-.006l-.005-.001h-.001l-.012-.001h-.006l-.017-.002h-.006l-.011-.002h-.006l-.012-.001h-.006l-.005-.001-.011-.001h-.007l-.005-.001-.006-.001h-.007l-.004-.001h-.001l-.011-.002h-.006a.396.396 0 0 1-.034-.004l-.006-.001-.017-.002a3.645 3.645 0 0 1-1.452-.518l-.02-.011-.01-.006-.003-.003h-.001l-.004-.003-.01-.006-.004-.003-.01-.006-.004-.003-.014-.01-.004-.002h-.001l-.009-.006-.009-.006-.005-.004-.004-.002-.008-.006-.002-.001-.004-.003h-.001l-.003-.003-.004-.003h-.002l-.003-.003-.002-.001-.003-.002-.001-.001-.003-.002-.002-.001-.003-.003-.004-.003h-.002l-.003-.003h-.001l-.003-.003h-.001l-.004-.003h-.001l-.003-.003-.002-.001-.002-.002-.002-.001-.004-.003a.917.917 0 1 0-1.06 1.498h.001a5.505 5.505 0 1 0 3.205-10.001l-.018-.001zM33.742 16.748h-.038l-.125.002a.903.903 0 0 0-.893.912v.017a.933.933 0 0 0 .93.905H33.66l.005-.001h.063a3.67 3.67 0 1 1 0 7.34h-.054l-.004-.001H33.628l-.005-.001h-.025l-.004-.001H33.571l-.002-.001h-.017l-.005-.001h-.017l-.002-.001h-.016l-.001-.001H33.493l-.005-.001h-.012v-.001h-.011l-.006-.001h-.006l-.005-.001h-.001l-.012-.001h-.005l-.017-.002h-.007l-.011-.002h-.006l-.012-.001h-.006l-.005-.001-.011-.001h-.007l-.005-.001-.006-.001h-.006l-.005-.001-.012-.002h-.006a.408.408 0 0 1-.034-.004l-.006-.001-.017-.002a3.647 3.647 0 0 1-1.452-.518h-.001l-.018-.011-.01-.006-.004-.003-.005-.003-.01-.007-.004-.002-.01-.006-.004-.003-.014-.01-.004-.002-.01-.006-.004-.003-.004-.003h-.001l-.004-.004h-.001l-.004-.002-.001-.001-.003-.002-.004-.003-.001-.001-.005-.003-.004-.003-.004-.003h-.001l-.004-.003-.002-.001-.003-.002-.001-.001-.003-.002-.001-.001-.003-.002-.001-.001-.004-.003h-.002l-.003-.003h-.001l-.003-.003h-.001l-.004-.003h-.001l-.003-.003-.002-.001-.002-.002-.002-.001-.004-.003a.918.918 0 0 0-1.06 1.498A5.505 5.505 0 1 0 33.76 16.75l-.018-.001z"/>
        <path fill="#F98B00" d="M22.72 18.583a3.67 3.67 0 0 0-3.67 3.67V22.33l.001.003v.035l.001.002v.025l.001.003V22.418l.001.004V22.435l.001.006v.017l.001.002v.015l.001.002V22.488l.001.005v.014l.001.004v.007l.001.004V22.536l.001.003v.008l.001.004v.006l.002.012V22.583l.001.003v.008l.001.004v.007l.001.004v.006l.001.001v.008l.001.003v.008l.001.004v.005l.001.008.001.003v.008l.001.004v.007l.002.011v.006l.001.002v.005l.001.004v.006l.001.002v.005l.001.004v.002l.001.003v.006l.001.002v.005l.002.012.001.005v.007l.001.004v.002l.001.004v.005l.001.002v.006l.002.004v.006l.003.017v.002l.001.004v.005l.001.002v.004l.001.002v.005l.001.004v.002l.001.004v.001l.001.005.001.005v.001l.003.017v.001l.001.006.001.004v.001l.001.004v.002l.001.004v.002l.001.003v.002l.001.004.001.006.004.023.002.007v.005l.001.004v.002l.002.004v.007l.002.005.003.017.001.005v.002l.002.003v.006l.001.002v.003l.001.002.001.004v.001l.001.005.001.005.002.006c0 .006.002.011.003.017l.002.006v.005l.001.001.001.004v.001l.001.005v.001l.001.004v.002l.002.004.001.006.005.022.002.006.001.005v.001l.001.004v.001l.001.005.002.005v.001l.001.005.002.006.004.016.001.007.002.004v.001l.001.005.001.005v.001l.002.004.001.006.002.006.006.022.001.005.002.005v.001l.001.005.002.005.002.006.001.005.008.028.001.005.002.005.001.006.002.005.012.038.001.005v.001l.002.005.002.005.001.005.014.044.004.01.016.048.002.005.015.043a3.68 3.68 0 0 0 1.978 2.102l.005.002.005.002.031.013.005.002.005.003.005.002h.001l.004.002h.001l.005.002.005.002a.806.806 0 0 0 .026.01v.001l.005.002.005.002.005.002h.001l.004.002h.001l.004.002h.001l.004.002h.001l.026.01.005.002h.001l.004.002h.001l.004.002h.001l.004.002h.002l.004.002.005.002.006.002.01.004h.001l.004.002h.002l.003.002h.002l.004.002h.001l.004.001.01.004h.001l.01.004.006.002.005.002.005.002h.001l.005.001.004.002h.002l.004.002h.002l.003.002h.002l.003.001.002.001.003.001h.002l.003.002h.002l.005.002.01.004h.002l.004.002h.002l.003.001.002.001h.003l.002.002h.003l.003.001.002.001h.002l.003.002h.003l.002.001.003.001h.002l.005.002.011.004h.002l.003.002h.002l.003.001h.003l.002.002h.003l.002.001.003.001h.003l.002.001.003.001.002.001h.003l.002.002h.005l.013.005.004.001h.001l.004.002h.001l.006.001.003.001h.002l.013.005h.002l.004.002a.882.882 0 0 0 .024.006l.005.002h.001l.004.001h.001l.004.001h.001l.005.002.005.001.005.002.03.008h.005l.004.002h.001l.005.001.005.001.005.002.005.001a.91.91 0 0 0 .025.006l.005.001.005.001.005.002h.005v.001l.005.001.04.01h.006l.005.002c.088.019.178.035.268.048a.917.917 0 1 0 .259-1.817h-.001a1.835 1.835 0 0 1 .261-3.651.917.917 0 0 0 .001-1.835z"/>
        <path fill="#FFA300" d="M37.399 22.252a3.67 3.67 0 1 1-7.34 0 3.67 3.67 0 0 1 7.34 0z"/>
        <path fill="#F98B00" d="M33.73 18.583a3.67 3.67 0 0 0-3.67 3.67V22.362l.001.002v.025l.001.003V22.413l.001.003v.019l.001.006v.013l.001.004V22.471l.001.004v.011l.001.002V22.507l.001.004v.007l.001.004v.011l.001.003V22.547l.001.004v.006l.002.012v.011l.001.003V22.592l.001.002V22.603l.001.002v.006l.001.004v.001l.001.008V22.633l.001.002V22.644l.001.003v.005l.001.003v.008l.001.004v.002l.001.003v.002l.002.011v.011l.001.002v.006l.001.004v.005l.001.002v.006l.001.003.001.006v.006l.001.001.001.012.001.005v.006l.001.001v.006l.001.004v.001l.001.004v.002l.001.004v.006l.001.001v.005h.001a.39.39 0 0 0 .002.017v.002l.001.004v.001l.001.004v.006l.001.002v.003l.001.002v.006l.002.004v.006l.002.005v.001c0 .006.002.011.003.017v.007l.001.004v.001l.001.004v.002l.001.004v.002l.001.003v.002l.001.004v.001l.001.005a.697.697 0 0 0 .005.023v.005l.001.002v.004l.001.001v.004l.001.002v.004l.001.001v.004l.001.002.001.005.004.017v.005l.001.002v.003l.001.002.001.004v.002l.001.003v.002l.001.004v.001l.002.005v.005l.002.006.004.017.001.006.001.005v.001l.001.004v.001l.002.005v.005l.001.002.001.004.002.006.005.022.001.006.001.005v.001l.002.004v.006h.001l.001.005v.001l.002.005.001.006.004.016.002.007.001.004v.001l.001.005.002.005v.001l.001.004.002.006.001.006a.36.36 0 0 0 .006.022l.002.005.001.005v.001l.002.005.001.005.002.006.001.005.008.028.002.005.001.005.002.006.001.005.012.038.002.005v.001l.001.005.002.005.002.005.014.044.003.01.017.048.002.005.015.043a3.68 3.68 0 0 0 1.977 2.102l.005.002.005.002.031.013.006.002.005.003.005.002.005.002.005.002.005.002a.806.806 0 0 0 .026.01v.001l.005.002h.001l.004.002h.001l.004.002h.001l.004.002h.001l.005.002.005.002.026.01h.001l.004.002h.001l.004.002h.002l.004.002.005.002h.001l.004.002h.001l.004.002h.001l.005.002.01.004h.002l.004.002h.001l.004.002h.001l.004.002h.001l.004.001.01.004h.002l.01.004.005.002.006.002.005.002.005.001h.001l.004.002h.002l.003.002h.002l.003.002h.002l.003.001.002.001.003.001h.002l.004.002h.002l.004.002.011.004.005.002h.002l.003.001.002.001h.003l.003.002h.002l.003.001.002.001h.003l.003.002h.002l.003.001.002.001h.003l.004.002.012.004h.002l.003.002h.002l.003.001h.002l.003.002h.002l.003.001.002.001h.003l.002.001.003.001.002.001h.004l.002.002h.004l.013.005.004.001h.002l.003.002h.002l.005.001.004.001h.001l.014.005h.002l.003.002a.882.882 0 0 0 .025.006l.004.002h.001l.004.001h.002l.003.001h.002l.005.002.004.001.005.002.03.008h.005l.005.002.005.001.005.001h.001l.004.002h.001l.004.001h.001a.715.715 0 0 0 .025.006l.004.001h.001l.004.001h.001l.004.002h.006v.001l.005.001.04.01h.005l.005.002c.089.019.178.035.269.048a.917.917 0 1 0 .258-1.817h-.001a1.835 1.835 0 0 1 .262-3.651.917.917 0 0 0 0-1.835z"/>
        <path fill="#163969" d="M6.208 20.417a1.835 1.835 0 0 1-.822-3.476l.388-.193-.388-.194a1.835 1.835 0 0 1 1.641-3.283l3.67 1.835a1.835 1.835 0 0 1 0 3.283l-3.67 1.835a1.828 1.828 0 0 1-.819.193z"/>
        <path fill="#5E7599" d="M10.237 18.727a.915.915 0 0 0-.41.097l-2.762 1.38-.002.002-.004.002h-.001l-.011.006h-.001l-.019.01a1.828 1.828 0 0 1-.819.193H6.126l-.003-.001H6.11l-.008-.001h-.015v-.001h-.012l-.004-.001h-.008l-.004-.001h-.007l-.004-.001H6.04l-.012-.002h-.004l-.007-.001a1.836 1.836 0 0 1-1.165-.586.917.917 0 1 0-1.358 1.234l.002.003a3.672 3.672 0 0 0 4.35.806l2.8-1.4a.918.918 0 0 0-.41-1.738z"/>
        <path fill="#F98B00" d="M31.895 29.592h-7.34a1.835 1.835 0 0 0-1.835 1.835 5.504 5.504 0 0 0 5.505 5.504H28.313l.054-.002h.009c.125-.003.25-.01.373-.023a.917.917 0 0 0-.175-1.826 3.674 3.674 0 0 1-4.019-3.653h7.34a.918.918 0 0 0 0-1.835z"/>
        <path fill="#FFEA21" d="M39.234 13.078a1.835 1.835 0 1 1-3.67 0 1.835 1.835 0 0 1 3.67 0z"/>
        <path fill="#002755" d="M10.793 16.748a.918.918 0 0 1-.41-.097l-3.67-1.835a.917.917 0 1 1 .821-1.641l3.67 1.834a.918.918 0 0 1-.411 1.739z"/>
        <path fill="#5E7599" d="M8.041 6.656a2.752 2.752 0 1 1-5.504 0 2.752 2.752 0 0 1 5.504 0z"/>
    </g>
</svg>
