<svg xmlns="http://www.w3.org/2000/svg" width="43" height="44" viewBox="0 0 43 44">
    <g fill="none" fill-rule="nonzero" transform="translate(.055 .972)">
        <path fill="#BFC3EC" d="M32.71 9.7h3.848v9.697H32.71V9.7z"/>
        <path fill="#A1A7E3" d="M11.545 9.7h3.848v9.697h-3.848z"/>
        <path fill="#776AE2" d="M11.545 13.579h3.848c1.062 0 1.924.868 1.924 1.94v3.878c0 1.071-.862 1.94-1.924 1.94h-3.848a1.932 1.932 0 0 1-1.924-1.94v-3.879c0-1.07.86-1.94 1.924-1.94z"/>
        <path fill="#351B99" d="M14.43 21.337h-3.847C4.738 21.337 0 26.113 0 32.005c0 5.891 4.738 10.668 10.583 10.668h3.848c5.844 0 10.582-4.777 10.582-10.668 0-5.892-4.738-10.668-10.582-10.668z"/>
        <path fill="#776AE2" d="M11.545 15.518h3.848v11.638h-3.848z"/>
        <path fill="#A1A7E3" d="M11.545 19.397h3.848v3.88h-3.848z"/>
        <ellipse cx="14.43" cy="32.004" fill="#4F3DBC" rx="10.582" ry="10.668"/>
        <path fill="#290086" d="M5.604 23.09C1.7 26.994.801 33.02 3.394 37.909a.958.958 0 0 0 1.3.403.974.974 0 0 0 .4-1.31 10.676 10.676 0 0 1-.99-2.735l-.005-.025c0-.005-.002-.01-.003-.013l-.005-.026-.008-.038-.008-.039-.005-.025-.007-.039-.005-.026-.003-.012v-.001l-.004-.025-.003-.013-.005-.025v-.001l-.002-.013-.002-.012-.002-.013v-.001l-.005-.024v-.002l-.002-.011v-.002l-.003-.012-.002-.012v-.001l-.002-.012v-.002l-.003-.01v-.002l-.002-.011v-.003l-.002-.011v-.001l-.002-.011v-.002l-.002-.011v-.002l-.002-.011v-.002l-.002-.01v-.003l-.003-.011v-.002a.511.511 0 0 1-.002-.01v-.002l-.002-.011v-.003a.456.456 0 0 1-.002-.011V33.7l-.002-.01v-.002l-.002-.011v-.003l-.002-.011-.002-.011v-.003l-.002-.01v-.004l-.002-.01v-.001l-.002-.011v-.004l-.002-.01v-.002l-.001-.01v-.002l-.002-.011v-.003l-.002-.01v-.003l-.002-.01v-.002l-.002-.011v-.003l-.002-.01v-.002l-.001-.01v-.004l-.002-.01v-.003l-.002-.01v-.002l-.002-.01v-.004l-.002-.01v-.003l-.001-.009v-.003l-.002-.01v-.004l-.002-.009v-.003l-.002-.01v-.004l-.001-.01v-.003l-.002-.008v-.004l-.002-.01v-.004l-.001-.01v-.003l-.002-.008v-.004l-.002-.01v-.004l-.001-.009v-.003l-.002-.009v-.004l-.001-.01v-.004l-.002-.008v-.004l-.001-.01v-.003l-.002-.01v-.004l-.001-.007v-.004l-.002-.01v-.004l-.001-.009v-.005L3.93 33.2v-.005l-.001-.01v-.004l-.002-.007v-.005l-.001-.008v-.005l-.001-.01-.001-.004v-.007l-.001-.004-.001-.01v-.004l-.002-.009v-.012l-.001-.004-.001-.01v-.005l-.002-.007V33.057l-.001-.005-.001-.009v-.005l-.001-.007v-.004l-.001-.01v-.004l-.002-.007V32.993l-.001-.006-.001-.008v-.006l-.001-.006v-.007l-.001-.007v-.005l-.002-.009v-.011l-.001-.007v-.007l-.001-.005V32.9l-.001-.005v-.006l-.001-.007v-.007L3.9 32.87v-.006l-.001-.009v-.005l-.001-.006-.001-.009v-.011l-.002-.008v-.011l-.001-.008v-.012l-.001-.007v-.007l-.001-.005v-.007l-.001-.008v-.011l-.001-.008v-.006l-.001-.005v-.008l-.001-.006v-.012l-.001-.009v-.004l-.001-.01v-.004l-.001-.007v-.014l-.001-.005v-.014l-.001-.006v-.005l-.001-.01v-.016l-.001-.009v-.004l-.001-.011v-.01l-.001-.004v-.015l-.001-.01v-.01l-.001-.005v-.014l-.001-.011v-.014l-.001-.011v-.01l-.001-.004v-.014l-.001-.012v-.012l-.001-.012v-.004-.021l-.001-.003v-.015l-.001-.022V32.309l-.001-.003v-.015-.022l-.001-.002v-.015V32.227l-.001-.013v-.049l-.001-.016v-.04-.023-.002-.039-.025-.016-.023-.04-.04-.025-.015-.024-.024l.001-.016v-.024a10.76 10.76 0 0 1 .767-3.767l.08-.195.026-.06.016-.038.043-.096.026-.06.007-.014.01-.022v-.001l.017-.036.018-.037.01-.022v-.001l.018-.036.017-.037.029-.059.018-.036.01-.022.008-.014v-.001l.01-.022h.001l.01-.022.008-.013v-.003l.011-.02v-.001l.007-.013v-.001l.011-.021.002-.002.006-.013.004-.008.007-.013.001-.002.01-.02.002-.003.006-.01.001-.004.01-.02.002-.002.006-.011.001-.002.003-.007.001-.002.007-.011v-.003l.007-.012.001-.001.004-.007v-.002l.007-.011.001-.003.01-.02.002-.002a.715.715 0 0 1 .006-.012l.001-.002.011-.02.001-.002.007-.012v-.002l.004-.006.001-.002.006-.011.002-.003.006-.012.001-.001.004-.007.001-.003.006-.01.002-.003.003-.006.001-.002a.707.707 0 0 1 .006-.011l.002-.003.006-.01.001-.003.004-.006.001-.003.006-.01.002-.003a.782.782 0 0 1 .007-.012v-.002l.004-.006.001-.002.006-.011.002-.003.007-.013.004-.006.002-.003.005-.01.002-.003.004-.006.002-.004.005-.01.002-.003.005-.009.003-.004.003-.006.002-.003.005-.01.003-.003.003-.006.004-.007.003-.006.003-.004.004-.008.003-.005.003-.005.004-.006.004-.007.002-.004.005-.008.003-.004.003-.006.002-.004a.784.784 0 0 1 .006-.009l.002-.004.005-.008.002-.004.004-.006.002-.004.005-.008.003-.005.003-.005.004-.007.004-.006.002-.004.005-.008.003-.005.003-.005.003-.005.005-.008.002-.004.005-.007.003-.005.003-.006.003-.005.005-.007.003-.005.003-.005.004-.007.003-.005.004-.005.004-.007.003-.006.003-.004.004-.007.004-.006.003-.005.004-.006.004-.006.003-.005.003-.006.004-.006.003-.005.003-.005.005-.008.003-.004.004-.006.004-.006.003-.006.003-.005.005-.008.003-.004.004-.006.002-.003.005-.009.003-.004.004-.007.004-.005.003-.006.003-.004.005-.008.003-.004.004-.007.004-.005.004-.006.002-.004.006-.008.002-.005.004-.005.003-.005.005-.007.003-.004.005-.009.002-.003.004-.007.003-.003.005-.009.003-.004.004-.006.004-.006.004-.006.003-.004.005-.008.003-.004.004-.006.003-.005.004-.007.003-.004.006-.008.002-.004.004-.006.003-.004.005-.008.003-.004.005-.007.003-.004.004-.007.002-.004.006-.008.003-.004.004-.006.003-.005.005-.007.003-.004.005-.008.003-.003.004-.007.002-.003.006-.008.003-.004.005-.008.003-.004.004-.006.003-.004.005-.008.003-.004.005-.007.003-.004.004-.007.003-.004.006-.008.002-.003.005-.007.003-.004.005-.007.003-.004.005-.008.003-.004.004-.006.003-.004.006-.008.002-.004.005-.007.004-.004.004-.006.003-.004.005-.008.003-.004.005-.006.003-.005.005-.007.003-.004a.486.486 0 0 1 .006-.008l.002-.003.005-.007.002-.003.006-.008.003-.004.006-.009.002-.002.005-.007.002-.003.006-.009.003-.003.005-.007.002-.003.006-.008.003-.003.006-.009.002-.003.005-.007.002-.003.006-.008.003-.004.006-.008.003-.003.005-.007.002-.003.006-.008.003-.004.005-.007.003-.003.005-.008.003-.003.006-.008.002-.003a.493.493 0 0 0 .006-.007l.002-.003.006-.008.003-.004.006-.008.002-.003.006-.007.002-.003.006-.008.002-.003.007-.009.002-.002.006-.008.002-.003.006-.008.002-.003.006-.008.002-.002.006-.008.003-.003.007-.009.001-.002.006-.008.002-.002.007-.01.002-.002.007-.009.001-.001.006-.008.002-.003.007-.008.002-.003.007-.008.001-.002.007-.009.002-.002a.574.574 0 0 1 .007-.01l.002-.001.006-.008.001-.002a.615.615 0 0 1 .008-.009l.002-.003.007-.009.001-.001.007-.008.001-.003.007-.008.003-.003.006-.009h.001l.007-.01.002-.002.008-.009.001-.002.007-.008.001-.002.007-.009.002-.002.008-.009.001-.002.007-.008.002-.002.007-.009.002-.002.007-.01h.001l.007-.008.002-.003.007-.009.002-.002.006-.008.002-.002.007-.009.002-.002.007-.009.002-.002a.442.442 0 0 1 .006-.008l.002-.002.008-.008.002-.003.007-.009.002-.002.006-.007.002-.003.007-.008.002-.003a.26.26 0 0 0 .007-.008l.002-.002.007-.008.002-.003.007-.008.002-.003.007-.007.001-.002.008-.009.002-.002.007-.009.002-.002.006-.007.003-.003a.698.698 0 0 0 .007-.008l.002-.003.007-.008.001-.002.007-.008.003-.002.007-.009.002-.002.007-.008.001-.002.008-.008.002-.003.007-.008.002-.002.007-.008.002-.002.007-.009.002-.002.008-.009.001-.001.007-.008.002-.003.008-.008.002-.002.007-.009h.001l.008-.01.002-.002.008-.009.001-.001.007-.008.002-.002.008-.009.002-.002.008-.009.008-.01.002-.001.008-.009.001-.002.008-.009.01-.01v-.001a.374.374 0 0 1 .009-.009l.001-.002.008-.008.001-.001.008-.009.002-.002.008-.009.001-.001.008-.009.001-.001a.37.37 0 0 1 .008-.009l.002-.002.017-.018.002-.002.008-.009.001-.001.008-.009h.001l.009-.01.001-.002.009-.008v-.002c.004-.002.006-.005.009-.008l.001-.001.008-.01.002-.001a.835.835 0 0 0 .009-.01l.008-.008.002-.002.008-.009.002-.002.008-.008.01-.01.001-.001.008-.01h.002l.008-.009v-.001l.01-.009.001-.002.009-.009.008-.009.002-.002.009-.008.001-.002.008-.009h.001l.009-.01.001-.001.009-.009.001-.001.008-.008.001-.002.009-.008.002-.002a.75.75 0 0 1 .008-.009l.002-.001.008-.008.001-.002.008-.008.003-.002.008-.01a.975.975 0 0 0 0-1.37.958.958 0 0 0-1.36 0z"/>
        <path fill="#422FB7" d="M22.48 26.843a1.933 1.933 0 0 0-1.923 1.943c0 .245.047.487.136.714 1.369 3.49-.328 7.437-3.79 8.817a6.694 6.694 0 0 1-2.82.468 1.932 1.932 0 0 0-2.02 1.939 1.933 1.933 0 0 0 1.878 1.937h.01l.005.001h.015c.153.007.306.01.46.01 5.844 0 10.582-4.776 10.582-10.667V31.867v-.038l-.001-.004v-.042l-.001-.003v-.039l-.001-.004v-.016-.017l-.001-.003v-.025l-.001-.005v-.029l-.001-.005v-.025l-.001-.003v-.025l-.001-.006v-.022l-.001-.006v-.016l-.001-.004v-.016l-.001-.005v-.017L25 31.489v-.017L25 31.467v-.017l-.001-.003V31.432l-.001-.002v-.017h-.001v-.016l-.001-.003V31.38l-.001-.003v-.014l-.001-.002V31.347l-.001-.003V31.335l-.001-.005v-.012l-.001-.004v-.012l-.002-.016-.001-.017v-.009l-.001-.008v-.008l-.001-.002v-.008l-.001-.007v-.011l-.001-.006v-.008l-.001-.002v-.008l-.001-.006V31.177l-.001-.002v-.008l-.001-.008v-.008l-.003-.026v-.01l-.001-.007V31.1l-.001-.001V31.09l-.001-.006v-.003l-.001-.006v-.01l-.001-.006v-.003l-.001-.005v-.003l-.001-.006V31.033l-.001-.001v-.008l-.001-.008v-.001l-.004-.033V30.973l-.001-.008v-.008l-.001-.002v-.006l-.001-.003v-.008l-.001-.006v-.003l-.001-.005v-.003l-.001-.005V30.907l-.001-.002v-.006l-.001-.002V30.888l-.002-.006v-.002l-.005-.05v-.001l-.001-.007v-.001-.007l-.001-.002v-.006l-.001-.002v-.006l-.001-.003v-.008l-.001-.006v-.002l-.001-.006v-.002l-.001-.006v-.003l-.001-.006v-.002l-.001-.006v-.002l-.001-.007v-.001l-.002-.008-.004-.034V30.687l-.002-.007v-.01l-.002-.006V30.653l-.002-.005v-.008l-.001-.004v-.005l-.001-.003v-.005l-.001-.003v-.005l-.001-.003-.001-.006v-.002l-.001-.007-.002-.017a3.598 3.598 0 0 0-.005-.033v-.002l-.001-.006v-.002l-.001-.007v-.001l-.001-.007v-.002l-.001-.006v-.002l-.002-.006v-.008l-.001-.002v-.007l-.001-.001-.001-.007v-.002l-.001-.007-.002-.008v-.008l-.001-.001-.001-.007v-.002l-.005-.032v-.002l-.001-.007v-.001l-.001-.006v-.003l-.001-.006v-.003l-.002-.004V30.373l-.001-.003-.001-.005v-.003l-.001-.005v-.003l-.002-.005v-.003l-.001-.006v-.002l-.001-.006v-.002l-.002-.006v-.008l-.001-.002-.001-.007v-.001l-.006-.033-.001-.008v-.002l-.001-.006v-.002l-.002-.006v-.003l-.001-.005v-.003l-.001-.005v-.003l-.002-.006v-.002l-.001-.006v-.002l-.001-.006v-.002l-.002-.006v-.002l-.001-.006v-.002l-.002-.006v-.002l-.001-.007v-.001l-.002-.007v-.001l-.005-.033v-.002l-.002-.006v-.003l-.001-.004v-.004l-.002-.005v-.002l-.001-.006V30.1l-.002-.006v-.002l-.001-.006v-.003l-.001-.005v-.003l-.002-.005v-.003l-.001-.005v-.003l-.002-.005v-.003l-.001-.005v-.003l-.002-.007-.006-.033-.002-.008v-.002l-.001-.006v-.002l-.002-.006v-.002l-.001-.006v-.002l-.002-.006v-.003l-.001-.005-.001-.003v-.005l-.001-.003-.001-.005-.001-.003-.001-.005v-.003l-.002-.005v-.003l-.001-.005v-.003l-.002-.005v-.003l-.001-.005v-.002l-.002-.006v-.003l-.002-.007-.002-.008v-.003l-.001-.005-.001-.005v-.003l-.002-.004v-.004l-.001-.004v-.004l-.002-.004v-.004l-.001-.004-.001-.004v-.004l-.002-.004v-.004l-.001-.004-.001-.004-.001-.004v-.004l-.002-.003v-.005l-.001-.004-.001-.003-.001-.005v-.003l-.002-.005v-.003l-.001-.005-.001-.003-.001-.005v-.003l-.002-.005v-.003l-.002-.008v-.002l-.002-.005v-.005l-.001-.003-.001-.005-.001-.003-.001-.005v-.003l-.002-.004v-.004l-.002-.004v-.004l-.001-.004-.001-.004-.001-.004v-.003l-.002-.005v-.003l-.002-.005v-.003l-.001-.004-.001-.003-.001-.005v-.003l-.002-.005v-.003l-.002-.005v-.002l-.001-.006v-.002l-.009-.035v-.001l-.001-.006v-.002l-.002-.006v-.002l-.002-.005v-.003l-.002-.005v-.002l-.002-.005v-.003l-.001-.005-.001-.003-.001-.005v-.003l-.002-.005v-.003l-.002-.004v-.003l-.002-.005v-.002l-.002-.006v-.002l-.002-.006v-.002l-.001-.005v-.003l-.01-.035-.001-.008-.002-.006v-.002l-.002-.005v-.003l-.002-.006v-.002l-.002-.005v-.002l-.002-.006v-.002l-.001-.006-.001-.001-.001-.007-.002-.007v-.001l-.002-.007-.002-.007v-.002a7.484 7.484 0 0 0-.02-.074l-.002-.008-.002-.007-.002-.008-.002-.007-.002-.008-.002-.007c-.106-.399-.234-.79-.385-1.173a1.922 1.922 0 0 0-1.788-1.225zm-8.05-5.506c-5.844 0-10.582 4.776-10.582 10.668V32.152l.001.004v.045l.001.004V32.245l.001.01v.035l.001.004V32.33l.001.004V32.357l.001.004v.022l.001.005v.021l.001.005V32.436l.001.005V32.459l.001.002V32.48l.001.006.001.025V32.529l.001.006v.012l.001.006v.017l.001.003v.015l.001.001.003.059V32.656l.001.008V32.674l.001.007V32.69l.001.002v.007l.001.009.006.084v.009l.001.008.001.017c.094 1.253.408 2.479.927 3.62a1.918 1.918 0 0 0 2.552.952 1.946 1.946 0 0 0 .946-2.57c-1.544-3.414-.05-7.444 3.337-9a6.693 6.693 0 0 1 3.481-.576 1.932 1.932 0 0 0 2.118-1.932 1.934 1.934 0 0 0-1.724-1.927 10.61 10.61 0 0 0-.82-.052H14.67l-.025-.001h-.035l-.007-.001H14.521l-.005-.001H14.431z"/>
        <path fill="#6F60C8" d="M6.728 30.915a.957.957 0 0 0-.954.94v.014l-.002.118V32.124l.001.008V32.184l.001.007v.041l.001.001V32.263l.001.007V32.3l.001.002v.019l.001.008v.022l.001.007v.011l.001.01V32.4l.001.007v.012l.001.008v.012l.001.009v.011l.001.007V32.48l.001.006v.013l.001.007v.011l.001.009v.003l.001.006v.013l.001.007v.002l.001.009v.011l.001.007v.011l.001.002V32.605l.001.008V32.622l.001.003V32.634l.001.008V32.651l.001.003v.008l.001.009v.002l.001.007v.011l.001.002V32.702l.001.008v.002l.001.008v.002l.001.007v.002a.29.29 0 0 0 0 .008l.001.002v.01l.002.017v.002l.001.007v.011l.001.002V32.799l.002.009v.011l.001.007v.002l.001.008v.002l.001.007v.002l.001.01v.008l.001.002v.007l.001.002v.008l.001.002V32.895l.002.01v.01l.002.008v.01l.001.002V32.944l.002.008V32.961l.001.002V32.972l.002.008V32.99l.001.002.001.01.001.008v.002l.001.007v.002l.001.008v.003l.001.006v.003l.002.008V33.06l.002.007v.002l.001.008v.003l.001.006v.002l.001.009v.002l.001.006v.003l.002.008v.009l.001.002v.007l.001.002.001.009v.001l.001.007v.003l.002.006v.002l.001.009v.002l.001.007v.002l.002.008V33.2l.001.003.001.006v.002l.001.008v.003l.002.006v.003l.001.008v.002l.001.006v.003l.002.007v.002l.001.008v.003l.002.006v.002l.001.008v.003l.001.006v.003l.002.007v.002l.001.007v.003l.002.006v.003l.001.008v.002l.002.007v.002l.001.008.002.009v.003l.001.006v.002l.002.008v.003l.001.006v.003l.002.007v.003l.001.006v.003l.002.006v.003l.001.008v.002l.002.006v.003l.002.008v.001l.001.008v.003l.001.006v.002l.002.008v.003l.002.006v.003l.002.008.001.008v.003l.002.006v.002l.001.008v.003l.002.006v.003l.002.008.001.008v.003l.002.006v.002l.002.008v.003l.001.006v.003l.002.008v.002l.002.006v.003l.002.007v.001l.001.009v.002l.002.006v.003l.002.008v.001l.002.007v.003l.002.007v.001l.001.009v.002l.002.006v.002l.002.009v.001l.002.007v.003l.002.006v.002l.002.008v.003l.001.006v.002l.002.008v.002l.002.007v.003l.002.006v.002l.002.008v.002l.002.007v.002l.002.008v.002l.002.007v.002l.002.007v.002l.002.008v.002l.001.006.001.003.002.008v.002l.001.006v.003l.002.006v.002l.002.008.001.003.001.005v.003l.002.008v.002l.002.006v.003l.002.007v.002l.002.007.001.003.001.006v.003l.003.007v.003l.001.006.001.003.002.007.002.009v.002l.002.006v.003l.002.008v.002l.002.006v.003l.002.007v.002l.002.007.001.003.001.005.001.003.002.008v.002l.002.006v.003l.002.007v.001l.002.008v.003l.002.006v.002l.003.008v.003l.002.005v.003l.002.007v.002l.002.007v.003l.002.006.001.002.002.008v.003l.002.005v.003l.002.007.001.003.002.006v.003l.002.006v.002l.002.008.001.003.002.005v.003l.002.007v.003l.002.006.001.003.001.006.001.002.002.008v.003l.002.005v.003l.003.008v.001l.002.007v.003l.002.005v.003l.003.008v.003l.002.005v.003l.002.006.001.004.002.006v.003l.002.005v.003l.003.007v.003l.002.005v.004l.003.006v.004l.002.005v.003l.002.005.001.004.002.006.001.004.001.005.001.003.002.006.001.005.001.004.001.004.002.004.001.005.002.006v.003l.002.005v.004l.003.007v.003l.002.004.001.005.001.003.002.007.001.004.002.005v.003l.002.005v.001l.003.01v.003l.002.004.001.003.002.008.001.003.001.005.002.003v.005l.003.005v.005l.002.004.001.004.002.005.001.005.002.005v.004l.002.004.001.004.002.006.001.004.002.004v.004l.002.005.002.005.001.005.001.004.002.004v.004l.003.007.001.003.001.004.001.004.002.005.001.005.002.005.001.004.001.004.002.004.001.005.002.005.001.004.001.004.002.004.002.007v.004l.002.004.001.003.002.005.002.006.001.004.001.004.002.004v.004l.003.007.001.003.001.005.002.003v.004l.003.007.001.004.001.004.002.004v.003l.004.009v.002l.002.005v.003l.003.007.002.004.001.004.001.003.002.005v.002l.003.008.001.003.002.005v.003l.002.004.002.007.002.004.001.004.001.004.002.003.002.008.001.003.002.004v.003l.004.009v.002l.002.005.001.003.002.004v.003l.004.009v.002l.002.005v.002l.004.01v.001l.002.005.001.003.002.004v.003l.004.009v.002l.002.005.001.002.003.01.001.001.002.005v.003l.003.005.003.01.001.003.002.005v.002l.006.016.001.003.002.005.004.011.001.002.002.005v.002l.004.01v.001l.003.005v.003l.002.004v.002l.004.01.001.002.002.005v.002l.005.01v.001l.002.005v.002a.923.923 0 0 1 .007.017v.002l.002.005v.002l.004.01.001.001.002.005v.002l.007.016v.002l.003.006.007.018v.001l.007.017v.001l.002.006.001.001.004.012.003.005v.002l.007.017.003.007.007.018v.001l.007.017v.001l.003.006.014.036v.001l.01.024v.001l.008.018.003.006.007.018v.001l.008.017v.001l.01.024.026.061a8.735 8.735 0 0 0 3.989 4.295.958.958 0 0 0 1.294-.424.974.974 0 0 0-.417-1.303 6.777 6.777 0 0 1-3.653-6.038v-.106a.975.975 0 0 0-.954-.984h-.016zm11.434-6.668a.966.966 0 0 0-.963.97c0 .352.19.676.495.848a6.809 6.809 0 0 1 3.464 6.255.967.967 0 0 0 .962 1.014.966.966 0 0 0 .96-.924v-.004-.012l.001-.01v-.014l.001-.01v-.014l.001-.013.005-.176v-.064-.012l.001-.025v-.001V32.029 31.956 31.842l-.001-.002V31.802l-.001-.017v-.002V31.764l-.001-.008V31.728l-.001-.003v-.028l-.001-.008V31.671l-.001-.003v-.01V31.65l-.001-.007v-.002V31.62l-.001-.007V31.6l-.001-.007v-.002-.017l-.001-.002V31.564l-.001-.017v-.003-.007l-.001-.002V31.526l-.001-.008V31.507l-.001-.009v-.011l-.001-.007v-.001l-.001-.009V31.46l-.002-.017V31.43l-.001-.008v-.012l-.001-.006v-.01l-.001-.003V31.383l-.001-.007V31.366l-.001-.002V31.355l-.001-.008v-.001l-.001-.008V31.329l-.001-.002v-.01l-.001-.007v-.002l-.001-.008V31.29l-.001-.001V31.28l-.002-.018v-.002l-.001-.007v-.01h-.001v-.011l-.002-.007v-.001-.01l-.001-.008v-.002l-.001-.008v-.01h-.001v-.01l-.003-.017V31.148l-.002-.017v-.002l-.001-.008-.001-.01-.001-.008V31.1l-.001-.007v-.002l-.001-.009-.001-.008v-.002l-.001-.009-.001-.008v-.002l-.001-.007v-.002l-.002-.017V31.019l-.001-.002-.001-.008-.001-.01-.001-.008v-.001l-.001-.01-.001-.008v-.002l-.001-.008-.002-.009V30.942l-.003-.017V30.916l-.001-.001-.001-.009-.001-.009v-.001l-.001-.008v-.001l-.002-.009v-.008l-.001-.002-.001-.008-.001-.01v-.001l-.001-.007v-.002l-.003-.017V30.814l-.001-.002-.001-.008v-.001l-.001-.007v-.003l-.002-.007v-.001l-.001-.009-.001-.008v-.002L23 30.758l-.001-.01-.001-.008v-.002l-.003-.017v-.002l-.001-.007v-.001l-.002-.009-.001-.009-.002-.009-.002-.018v-.002l-.002-.008-.001-.009v-.001l-.002-.008v-.001l-.003-.017v-.002l-.001-.007v-.002l-.003-.017v-.002l-.001-.007v-.001l-.002-.009-.002-.008v-.002l-.001-.008-.002-.009v-.001l-.001-.007v-.002l-.003-.017v-.002l-.002-.007v-.002l-.002-.008-.001-.009v-.001l-.002-.007v-.002l-.002-.009-.001-.008v-.001l-.003-.018-.002-.008v-.002a1.182 1.182 0 0 0-.003-.017v-.001l-.002-.008v-.001l-.003-.017v-.002l-.002-.008-.002-.01-.001-.008v-.001a1.176 1.176 0 0 0-.004-.017v-.001l-.002-.008v-.001l-.003-.018-.002-.009-.004-.018-.001-.009-.004-.018-.006-.027-.003-.019-.002-.008v-.001l-.004-.018a12.976 12.976 0 0 0-.006-.027l-.006-.027a10.223 10.223 0 0 0-.032-.143v-.002a8.737 8.737 0 0 0-4.23-5.622.944.944 0 0 0-.465-.122zm-3.731-.97H14.26l-.008.001h-.042l-.007.001h-.022l-.009.001H14.151l-.008.001h-.022l-.007.001h-.023l-.007.001h-.019l-.003.001h-.02l-.008.001h-.011l-.008.001h-.011l-.009.001h-.002l-.018.001h-.01l-.01.001H13.948l-.002.001h-.01l-.008.001h-.011l-.008.001h-.012l-.008.001h-.002l-.007.001h-.012l-.008.001h-.003l-.008.001h-.011l-.007.001h-.002l-.009.001H13.808l-.008.001h-.003l-.006.001h-.01l-.002.001h-.011l-.007.001h-.002l-.008.001H13.742l-.003.001h-.008l-.01.001h-.002l-.007.001h-.001l-.01.001h-.008l-.002.001H13.68l-.008.002h-.01l-.01.001h-.002l-.007.001h-.002l-.008.001h-.01l-.002.001H13.613l-.008.002h-.011l-.009.002H13.574l-.008.001h-.002l-.008.001h-.001l-.018.002h-.002l-.008.001h-.001l-.009.001h-.002l-.007.001h-.002l-.009.001h-.001l-.007.001h-.003l-.017.003h-.011l-.009.002H13.44l-.002.001-.008.001h-.002l-.007.001h-.003l-.007.001h-.001l-.009.001H13.4l-.007.002h-.01l-.002.001h-.007l-.003.001-.008.001h-.001l-.008.001h-.002l-.007.002h-.01l-.003.001-.006.001h-.002l-.009.001h-.002l-.006.001h-.003l-.008.002h-.002l-.007.001h-.003l-.006.001h-.002l-.008.002H13.258l-.003.001-.008.001h-.002l-.007.002h-.003l-.007.001h-.001l-.008.001h-.003l-.007.002h-.002l-.008.001h-.003l-.005.001h-.004l-.007.002h-.003l-.006.001h-.003l-.006.002h-.003l-.007.001h-.003l-.006.001h-.003l-.008.002h-.002l-.007.001h-.002l-.017.003h-.003l-.007.002h-.001l-.008.001h-.003l-.006.002h-.003l-.008.002h-.008l-.003.001-.007.002h-.003l-.006.001h-.004l-.005.001-.003.001-.008.001h-.003l-.006.002h-.002l-.008.002H12.99l-.003.001-.006.002h-.003l-.007.001h-.003l-.006.002h-.003l-.008.002h-.002l-.006.001h-.003l-.008.002h-.002l-.006.001-.004.001-.006.001h-.002l-.008.002h-.002l-.007.002h-.002l-.008.001-.003.001h-.005l-.004.002h-.007l-.003.001-.006.002h-.003l-.006.001h-.002l-.008.002h-.003l-.006.002h-.003l-.008.002h-.002l-.006.001-.003.001-.007.001h-.003l-.006.002h-.003l-.006.002h-.003l-.007.002h-.003l-.006.001-.003.001-.008.002h-.002l-.006.001h-.003l-.007.002h-.002l-.007.002h-.003l-.006.002h-.002l-.008.002h-.003l-.006.002h-.003l-.008.002-.008.002h-.003l-.006.002h-.002l-.008.002h-.003l-.005.002h-.004l-.007.002h-.003l-.006.002h-.003l-.007.002h-.003l-.005.002h-.004l-.005.002H12.6l-.007.002h-.004l-.005.002h-.003l-.008.002h-.003l-.005.002h-.003l-.007.002h-.003l-.006.002h-.003l-.006.002h-.003l-.008.003h-.002l-.006.001-.002.001-.008.002h-.003l-.006.002h-.003l-.006.002h-.002l-.008.002h-.002l-.006.002h-.003l-.008.003h-.002l-.006.002h-.003l-.007.002h-.003l-.006.002h-.003l-.005.002h-.004l-.006.002-.004.001-.005.001-.003.001-.008.002h-.003l-.005.002h-.003l-.007.002-.003.001-.006.002h-.003l-.005.002h-.003l-.007.002-.004.001-.005.001-.003.001-.008.002h-.003l-.005.002h-.003l-.006.002-.004.001-.006.002h-.003l-.005.002h-.003l-.008.003h-.003l-.004.002h-.004l-.007.002-.003.001-.005.002h-.004l-.005.002h-.004l-.006.002-.004.001-.005.002h-.003l-.007.002-.003.001-.005.001-.004.001-.005.002-.005.001-.005.001-.003.001-.005.002h-.004l-.007.002-.003.001-.005.002h-.003l-.007.002-.004.001-.004.002h-.004l-.005.002-.006.002h-.004l-.004.002-.004.001-.005.002-.006.001-.004.001-.004.001-.004.001-.005.002-.005.001-.005.002h-.004l-.004.002-.005.001-.005.002h-.004l-.005.002-.004.001-.006.002-.004.001-.004.001-.004.002h-.004l-.007.003h-.003l-.005.002-.003.001-.007.002-.004.001-.005.002h-.003l-.016.005-.002.001-.005.001-.003.001-.008.003h-.004l-.004.002h-.003l-.007.003-.004.001-.004.001-.004.002h-.004l-.006.003-.005.001-.004.001-.004.002h-.004l-.006.003-.004.001-.004.001-.004.002h-.004l-.007.003-.004.001-.004.001-.003.001-.008.003h-.003l-.004.002-.004.001-.004.001-.007.002-.004.002-.004.001-.003.001-.005.002-.006.001-.004.002-.004.001-.004.001-.004.001-.007.003h-.003l-.004.002-.004.001-.007.003h-.004l-.004.002-.004.001-.003.002-.007.002-.004.001-.004.001-.004.002h-.003l-.008.003-.003.001-.005.002-.003.001a.29.29 0 0 1-.008.003h-.003l-.004.002-.003.001-.016.005-.002.001-.005.002h-.003l-.008.004h-.003l-.004.002-.004.001-.01.004-.005.002h-.003l-.004.002h-.002a1.103 1.103 0 0 0-.01.004h-.002l-.005.003h-.002l-.01.004h-.001l-.005.002h-.002c-.006.003-.011.005-.017.006l-.002.001-.005.002h-.001l-.01.004h-.002l-.006.003h-.001l-.011.004-.006.002h-.002l-.017.007h-.001l-.005.002h-.002l-.01.004-.002.001-.005.002h-.002l-.016.007h-.002l-.016.006-.003.001-.005.002h-.001l-.01.004h-.002l-.005.003h-.001l-.018.007h-.001l-.017.007h-.001l-.006.002h-.001l-.01.005h-.002l-.005.002-.002.001-.016.006-.002.001-.017.007-.007.002a1.335 1.335 0 0 0-.018.007H11.3a1.304 1.304 0 0 0-.017.007l-.002.001a.983.983 0 0 0-.017.007l-.006.002-.002.001-.016.007h-.002l-.016.007h-.002l-.018.008-.005.002h-.002l-.016.008h-.002l-.016.007h-.002l-.006.003-.018.007a1.395 1.395 0 0 0-.018.008l-.006.003-.012.005-.006.002h-.001l-.017.008h-.002l-.016.008h-.002l-.005.002-.012.005-.006.003h-.001l-.017.008h-.001l-.018.008a8.715 8.715 0 0 0-3.913 3.398l-.01.017-.01.017-.004.005-.01.017-.01.017h-.001l-.003.006-.007.01v.001l-.003.005v.001l-.01.015-.001.002-.01.016-.003.005v.002l-.007.01-.003.005v.002l-.01.015v.002l-.003.004-.006.01-.001.002-.003.005-.001.002-.005.008-.001.002-.003.005v.001l-.01.015v.003l-.003.004-.002.002-.004.008-.001.002-.003.004-.002.004-.003.005-.002.004-.002.004-.002.003-.002.004-.003.005-.003.004-.002.004-.002.003-.002.004-.003.006-.002.003-.002.004-.002.004-.002.003-.004.006-.001.004-.002.003-.002.004-.003.004-.003.005-.002.004-.002.004-.002.004-.002.004-.003.005-.002.003-.003.005v.002l-.004.007-.002.003-.003.004v.003l-.005.007v.001l-.004.006-.001.003-.003.006h-.001l-.004.008-.001.002-.003.006-.001.001-.004.008-.004.007-.001.002-.009.015v.001l-.004.008-.004.008-.001.001-.004.007v.001l-.005.008-.004.008-.009.016v.001l-.009.016-.004.008-.009.017-.008.017a8.793 8.793 0 0 0-.085.167.973.973 0 0 0 .434 1.3.959.959 0 0 0 1.29-.438 6.696 6.696 0 0 1 6.454-3.763l.06.001a.966.966 0 0 0 .96-.97.966.966 0 0 0-.903-.967l-.041-.003h-.019l-.003-.001a8.654 8.654 0 0 0-.358-.012H14.43z"/>
        <ellipse cx="14.43" cy="32.004" fill="#1D0070" rx="4.81" ry="4.849"/>
        <path fill="#13005F" d="M14.43 27.156c-2.656 0-4.81 2.17-4.81 4.849V32.076l.001.005v.05l.001.005V32.162l.001.005V32.193l.001.006V32.217l.001.005V32.231l.001.008v.016l.001.007V32.277l.001.002v.007l.001.014V32.31l.001.006V32.324l.001.007V32.34l.001.007v.008l.001.007v.007l.001.002.001.014V32.394l.001.007.001.015v.001l.001.006V32.432l.001.007v.001l.001.006v.008l.001.001.001.015v.001l.001.006v.007l.001.002.001.014v.002l.001.005v.002l.001.006v.008l.001.002v.007l.001.006v.001l.002.015v.001l.001.006v.008l.001.001.002.014v.008l.001.008.002.015.001.007v.001l.002.015.001.007.001.007v.001l.002.015.001.007.001.008.002.015.002.007v.001l.003.022v.008h.001l.002.015.001.007.005.03.004.023.001.007.004.023.004.022.001.008.004.022.006.03.005.03.005.022.001.007.005.022a4.845 4.845 0 0 0 3.099 3.572.96.96 0 0 0 1.226-.594.972.972 0 0 0-.585-1.235 2.916 2.916 0 0 1-1.75-3.718 2.888 2.888 0 0 1 2.718-1.934.966.966 0 0 0 .962-.97c0-.535-.43-.97-.962-.97z"/>
        <path fill="#3621B2" d="M14.43 25.216c-3.718 0-6.733 3.04-6.733 6.789 0 3.749 3.015 6.788 6.735 6.788 3.719 0 6.733-3.04 6.733-6.79a6.81 6.81 0 0 0-2.479-5.26.957.957 0 0 0-1.353.138.975.975 0 0 0 .137 1.365l.002.001.003.003.002.002.004.003.002.002.004.003.002.002.005.003.001.002.006.004v.001l.006.005.002.002.004.003.003.002.003.003.003.002.003.003.003.002.003.003.003.002.003.003.003.002.003.003.003.002.004.004.003.003.004.003.003.003.003.002.003.003.003.002.003.003.003.002.003.003.002.003.003.002.003.002.003.003.003.002.008.007v.001l.004.003.002.002.004.003.002.002.003.003.003.002.003.003.003.002.003.003.002.002.004.003.002.002.003.004h.001l.01.01.004.003.002.002.004.003.001.002.004.003.002.002.004.003.002.002.003.003.002.002.004.003.001.002.014.013h.001l.004.004.002.002.003.003.002.002.004.003.002.002.004.004.001.001.004.004.002.001.004.004.015.014v.001l.005.004.001.002.004.003.002.002.004.004.001.001.004.004.001.001.005.004.02.02.005.005.001.001.004.004.001.002.005.004.005.005.025.025.005.005.001.001.005.005.005.005.03.031.005.005.005.006a3.3 3.3 0 0 1 .035.037l.005.005.04.042c.48.526.838 1.152 1.05 1.833l.002.007.015.05.002.007.017.057v.001l.002.007.002.007.012.043.002.007v.001l.002.007.011.043.002.007v.001l.002.006v.002l.002.006.009.036.001.007v.001l.002.007.002.007v.001l.002.007.008.036v.001l.002.006v.002l.001.006v.001l.002.006v.002l.002.006.006.029.001.007v.002l.002.005v.003l.002.005v.002l.001.006v.002l.002.005v.002l.004.02.002.007v.002l.001.005v.003l.001.005.001.002.001.006v.002l.002.005v.002l.001.006.004.021v.002l.001.006v.002l.002.005v.003l.001.005v.002l.002.006v.002l.001.006v.002l.004.02.001.006v.002l.001.006v.002l.002.005v.003l.001.005v.003l.001.005v.003l.002.005v.002a1.4 1.4 0 0 1 .003.019v.002l.001.005v.003l.002.005v.008l.001.003.001.005v.003l.001.005v.003l.002.005.001.012v.003l.001.005.001.003v.005l.001.003v.005l.001.003v.004l.001.004v.004l.001.004.001.004v.004l.002.01v.006l.001.004.001.004v.004l.001.004v.004l.001.005v.003l.001.005v.004l.001.004v.004l.001.004v.004l.002.007V31.422l.001.004v.004l.001.004v.004l.001.004v.004l.001.004v.004l.001.004V31.467l.001.003.001.008v.004l.001.004V31.495l.001.003v.005l.001.003V31.515l.001.004v.004l.001.004v.004l.001.006v.004l.001.006v.008l.001.004v.008l.001.005v.004l.001.004v.008l.001.004v.008l.001.008v.003l.001.005v.012l.001.005v.008l.001.004v.008l.001.005V31.667l.001.003v.011l.001.005v.008l.001.004V31.71l.001.004V31.728l.001.003v.01l.001.007v.016l.001.004v.016l.001.005v.02l.001.003V31.838l.001.005V31.872l.001.008v.034l.001.003V32.004c.001 2.678-2.151 4.85-4.808 4.851-2.657.001-4.811-2.17-4.812-4.847v-.004c0-2.678 2.154-4.849 4.81-4.849a.966.966 0 0 0 .962-.97.968.968 0 0 0-.963-.969z"/>
        <path fill="#351B99" d="M31.748 21.337h-3.849c-5.844 0-10.582 4.776-10.582 10.668 0 5.891 4.738 10.668 10.582 10.668h3.849c5.844 0 10.582-4.777 10.582-10.668 0-5.892-4.738-10.668-10.582-10.668z"/>
        <path fill="#290086" d="M22.92 23.09c-3.904 3.904-4.803 9.93-2.21 14.819a.958.958 0 0 0 1.301.402.974.974 0 0 0 .4-1.309 10.676 10.676 0 0 1-.99-2.735l-.005-.025c0-.005-.002-.01-.003-.013l-.005-.026-.008-.038-.008-.039-.005-.025-.007-.039-.005-.026-.003-.012v-.001l-.004-.025-.003-.013-.005-.025v-.001l-.002-.013-.002-.012-.002-.013v-.001l-.005-.024v-.002l-.002-.011v-.002l-.003-.012-.002-.012v-.001l-.002-.012v-.002l-.002-.01v-.002l-.002-.01v-.004l-.003-.01v-.002l-.002-.01v-.003l-.002-.011v-.002l-.002-.011v-.001l-.002-.011v-.003l-.002-.01v-.003a.511.511 0 0 1-.002-.01v-.002l-.002-.01v-.004a.456.456 0 0 1-.002-.01V33.7l-.002-.01v-.002l-.002-.011v-.003l-.003-.01v-.001l-.001-.011v-.003l-.002-.01v-.004l-.002-.009v-.002l-.002-.01v-.004l-.002-.01v-.003l-.002-.01v-.002l-.002-.01v-.004l-.002-.01v-.003l-.002-.01v-.002l-.002-.011v-.003l-.001-.01v-.001l-.002-.011v-.004l-.002-.01v-.003l-.002-.01v-.002l-.002-.01v-.003l-.002-.011v-.003l-.001-.009v-.003l-.002-.01v-.004l-.002-.009v-.003l-.001-.01v-.003l-.002-.01v-.004l-.002-.008v-.003l-.001-.01v-.004l-.002-.01v-.004l-.002-.008v-.004l-.001-.01v-.004l-.002-.009v-.003l-.001-.009V33.3l-.002-.01v-.003l-.001-.009v-.004l-.002-.009v-.004l-.002-.01v-.004l-.001-.007v-.004l-.002-.01v-.013l-.001-.005-.001-.007v-.005l-.002-.01v-.004l-.001-.007v-.005l-.002-.008v-.005l-.001-.01v-.004l-.001-.006-.001-.005-.001-.01v-.004l-.001-.008v-.006l-.002-.007v-.004l-.001-.01v-.004l-.001-.007v-.006l-.001-.008v-.005l-.002-.009v-.011l-.001-.005-.001-.009v-.005l-.001-.007v-.007l-.001-.006v-.006l-.002-.008v-.012l-.001-.007v-.006l-.001-.005-.001-.01v-.005l-.001-.006v-.007l-.001-.007v-.005l-.002-.009v-.011l-.001-.007v-.007l-.001-.005v-.006l-.001-.008v-.006l-.001-.005v-.01l-.001-.005v-.005l-.001-.009v-.005l-.001-.006v-.007l-.001-.007v-.005l-.001-.008v-.012l-.001-.007v-.007l-.001-.006v-.005l-.001-.009v-.006l-.001-.005v-.014l-.001-.006v-.006l-.001-.009v-.004l-.001-.01v-.015l-.001-.01v-.005l-.001-.007V32.622l-.001-.005v-.01l-.001-.004v-.012l-.001-.009v-.004l-.001-.01v-.015l-.001-.01v-.004l-.001-.01v-.016l-.001-.01v-.015l-.001-.003v-.01l-.001-.012V32.45l-.001-.012v-.018l-.001-.007v-.017l-.002-.022v-.018V32.331l-.001-.012V32.306l-.001-.011v-.003V32.267l-.001-.013v-.002-.039l-.001-.023v-.042l-.001-.023v-.016-.023-.002-.039-.025-.016-.023-.04-.04-.025-.015-.024l.001-.024v-.016-.024a10.76 10.76 0 0 1 .767-3.767l.08-.195.026-.06.016-.038.043-.096.027-.06.006-.014.01-.022.001-.001.017-.036.017-.037.01-.022.018-.037.017-.037.029-.059.018-.036.01-.022h.001l.007-.014v-.001l.01-.022h.001l.011-.022.007-.013v-.002l.011-.021.001-.001.007-.013v-.001l.01-.02.002-.003.006-.013.004-.008.007-.013.002-.002.01-.02.001-.003.006-.01.001-.004.01-.02.002-.002.006-.011.001-.002.004-.007v-.002l.007-.011.001-.003.007-.012v-.001l.004-.007v-.002l.007-.011.001-.003.011-.02.001-.002a.715.715 0 0 1 .006-.012l.002-.002.01-.02.002-.002.006-.011v-.003l.005-.006v-.002l.007-.011.001-.003.007-.012v-.001l.004-.006.002-.004.005-.01.002-.003.003-.006.001-.002a.708.708 0 0 1 .007-.01l.002-.004.005-.01.002-.003.003-.006.002-.003.006-.01.001-.003a.782.782 0 0 1 .007-.012v-.001l.004-.007.002-.002.006-.011.001-.003.008-.013.003-.006.002-.003.006-.01.002-.003.003-.006.002-.004.005-.009.002-.004.005-.009.003-.004.003-.005.002-.004.006-.01.002-.003.003-.006.004-.007.003-.005.003-.005.005-.008.002-.004.004-.006.003-.006.004-.007.002-.004.006-.008.002-.004.003-.006.003-.004a.784.784 0 0 1 .005-.009l.002-.004.005-.008.003-.004.003-.006.003-.004.005-.008.002-.005.003-.005.005-.007.003-.005.003-.005.004-.008.003-.005.003-.005.003-.005.005-.008.003-.004.004-.006.003-.006.004-.005.003-.005.004-.008.003-.005.003-.005.005-.007.003-.005.003-.005.004-.007.004-.005.002-.005.004-.006.004-.007.003-.005.004-.006.004-.006.003-.005.003-.006.005-.006.003-.005.003-.005.005-.008.003-.004.003-.006.004-.006.004-.006.002-.004.006-.008.002-.005.004-.005.002-.004.006-.008.003-.005.004-.007.003-.005.004-.006.003-.004.005-.008.003-.004.003-.006.004-.006.004-.006.003-.004.005-.008.003-.004.004-.006.002-.005.005-.007.003-.004.005-.009.003-.003.004-.006.002-.004.006-.009.002-.004.005-.006.003-.006.004-.005.003-.005.005-.008.003-.004.004-.006.003-.005.005-.007.002-.004.006-.008.002-.004.004-.006.003-.004.006-.008.002-.004.005-.007.003-.004.004-.007.003-.003.005-.009.003-.004.004-.006.004-.005.004-.007.003-.004.005-.008.003-.003.004-.006.003-.004.005-.008.003-.004.005-.008.003-.004.005-.006.002-.004.006-.008.002-.004.005-.007.003-.004.005-.007.002-.003.006-.009.003-.003.004-.007.003-.004.005-.007.003-.004.006-.008.002-.004.005-.006.002-.004.006-.008.003-.004.005-.006.003-.005.004-.006.003-.004.006-.008.002-.004.005-.006.003-.005.005-.007.003-.003a.486.486 0 0 1 .006-.009l.002-.003.005-.007.002-.003.006-.008.003-.004.006-.008.002-.003.005-.007.002-.003.007-.009.002-.003.005-.007.003-.003.005-.008.003-.003.006-.009.002-.003.005-.007.002-.002.007-.009.002-.004.006-.008.003-.003.005-.007.002-.003.006-.008.003-.003.006-.008.002-.003.006-.008.002-.003.006-.008.003-.003a.492.492 0 0 0 .005-.007l.002-.003.006-.008.003-.004.006-.008.002-.003.006-.007.002-.003.006-.008.003-.003.006-.009.002-.002.006-.008.002-.002.007-.01.002-.002.006-.008.001-.002.007-.008.002-.003.007-.009.002-.002.005-.008.002-.002.007-.009.002-.003.007-.009.002-.001.006-.008.002-.003.007-.008.002-.003.006-.008.002-.002.006-.008.002-.003a.574.574 0 0 1 .007-.009l.002-.002.006-.008.002-.002a.615.615 0 0 1 .007-.009l.002-.003.007-.008.002-.002.006-.008.002-.003.007-.008.002-.003.007-.009.008-.01.002-.002.007-.009.002-.002.006-.008.002-.002.007-.009.002-.002.007-.009.002-.002.006-.008.002-.002.007-.009.002-.002.008-.01.007-.008.002-.003.007-.009.002-.002.007-.008.001-.002.008-.008.002-.003.007-.009.002-.002.006-.007.002-.003.007-.008.002-.003.008-.009.001-.002.006-.007.003-.003.007-.008.002-.003a.26.26 0 0 0 .006-.008l.002-.002.007-.008.002-.003.008-.008.002-.002.006-.008.002-.002.007-.009.002-.002.008-.009.001-.002.007-.007.002-.003a.696.696 0 0 0 .007-.008l.002-.003.008-.008v-.001l.008-.009.002-.002.007-.009.003-.002.006-.008.002-.002.007-.008.003-.003.007-.008.002-.002.006-.008.002-.002.008-.009.002-.002.007-.009.002-.001.007-.008.002-.002.007-.01.002-.001.008-.009.008-.01.002-.002.008-.009.002-.001.007-.008.001-.002.008-.009.002-.002.008-.009.009-.01h.001l.008-.01.002-.002.008-.009.009-.01.001-.001a.374.374 0 0 1 .008-.009l.002-.002.007-.007.002-.002.008-.009.001-.002.009-.009v-.001l.008-.008.002-.002a.37.37 0 0 1 .008-.009l.002-.002.016-.018.002-.002.009-.009v-.001l.009-.008V24.7l.01-.008.001-.002.008-.01h.001l.008-.009.002-.001.008-.01h.002a.835.835 0 0 0 .008-.01l.009-.01h.002l.008-.01.002-.001.007-.008.001-.002.009-.008.002-.002.008-.01h.001l.008-.009.001-.001.009-.009.002-.002.008-.009h.001l.008-.009.002-.002.008-.008.002-.002.008-.009.01-.01.001-.001.009-.009v-.001l.009-.008.001-.001.009-.01.002-.001a.749.749 0 0 1 .008-.009l.001-.001.008-.008.002-.002.008-.008.002-.002.009-.009a.975.975 0 0 0 0-1.371.96.96 0 0 0-1.362 0z"/>
        <ellipse cx="31.747" cy="32.004" fill="#3A27B4" rx="10.582" ry="10.668"/>
        <path fill="#3318AD" d="M39.797 26.843a1.933 1.933 0 0 0-1.923 1.943c0 .245.046.487.136.714 1.369 3.49-.328 7.437-3.79 8.817a6.694 6.694 0 0 1-2.82.468 1.932 1.932 0 0 0-2.02 1.939 1.933 1.933 0 0 0 1.878 1.937h.01l.005.001h.015c.153.007.305.01.46.01 5.844 0 10.582-4.776 10.582-10.667V31.867v-.029l-.001-.004V31.792l-.001-.004v-.039l-.001-.003v-.025l-.001-.017v-.025l-.001-.003V31.65l-.001-.004v-.029l-.001-.005v-.028l-.001-.006v-.019l-.001-.003V31.538l-.001-.004v-.02l-.001-.005v-.012l-.001-.005v-.017l-.001-.003v-.017l-.001-.005v-.012l-.001-.006v-.002l-.001-.017v-.011l-.001-.005v-.017l-.001-.003v-.014l-.001-.002V31.352l-.001-.005v-.012l-.001-.005v-.012l-.001-.004v-.012l-.002-.016-.001-.017v-.009l-.001-.008v-.002l-.001-.006V31.234l-.001-.007v-.008l-.001-.003v-.008l-.001-.006v-.01l-.001-.006v-.003l-.001-.006V31.167l-.001-.008-.001-.008-.002-.026v-.01l-.001-.007-.001-.008v-.01l-.001-.006v-.003l-.001-.006v-.008l-.001-.002V31.056l-.001-.005v-.003l-.001-.006V31.033l-.001-.001v-.008l-.002-.008v-.001l-.003-.033V30.973l-.001-.008v-.002l-.001-.006v-.008l-.001-.003v-.008l-.001-.006v-.003l-.001-.005v-.003l-.001-.005v-.003l-.001-.006V30.9l-.001-.002v-.007l-.001-.002v-.008l-.006-.05v-.001l-.001-.007v-.001l-.001-.007v-.008l-.001-.002v-.006l-.001-.003v-.008l-.002-.006v-.01l-.002-.006V30.754l-.002-.006V30.738l-.002-.008-.004-.034V30.687l-.002-.007v-.01l-.002-.006V30.655l-.001-.002v-.005l-.001-.004v-.004l-.001-.004v-.005l-.001-.003-.001-.005v-.003l-.001-.005v-.003l-.001-.006v-.002l-.001-.007-.003-.017a3.605 3.605 0 0 0-.004-.033v-.002l-.001-.006v-.002l-.001-.007v-.001l-.001-.007v-.002l-.001-.006v-.002l-.002-.006v-.008l-.001-.002-.001-.007v-.001l-.001-.007v-.002l-.002-.007V30.463l-.002-.007v-.001l-.001-.007v-.002l-.005-.032v-.002l-.001-.007v-.001l-.001-.006v-.003l-.002-.006v-.007l-.001-.004-.001-.005v-.003l-.001-.005v-.003l-.002-.005v-.008l-.001-.003-.001-.006v-.002l-.001-.006v-.002l-.002-.006v-.002l-.001-.006v-.002l-.001-.007v-.001l-.006-.033-.001-.008v-.002l-.001-.006v-.002l-.002-.006v-.003l-.001-.005v-.003l-.001-.005v-.003l-.002-.006v-.002l-.001-.006v-.002l-.002-.006v-.002l-.001-.006v-.002l-.001-.006v-.002l-.002-.006v-.002l-.001-.007v-.001l-.002-.007v-.001l-.006-.033v-.002l-.001-.006v-.003l-.001-.004v-.004l-.002-.005v-.002l-.001-.006V30.1l-.002-.006v-.002l-.001-.006v-.003l-.002-.005v-.003l-.001-.005v-.003l-.001-.005v-.003l-.002-.005v-.003l-.001-.005v-.003l-.002-.007-.006-.033-.002-.008v-.002l-.001-.006v-.002l-.002-.006v-.002l-.001-.006v-.002l-.002-.006v-.003l-.002-.005v-.003l-.001-.005v-.003l-.002-.005v-.003l-.001-.005v-.003l-.002-.005v-.003l-.001-.005v-.003l-.002-.005v-.003l-.001-.005v-.002l-.002-.006v-.003l-.002-.007-.002-.008v-.003l-.001-.005-.001-.005v-.003l-.002-.004v-.004l-.001-.004-.001-.004v-.004l-.002-.004v-.004l-.001-.004-.001-.004v-.004l-.002-.004v-.004l-.001-.004-.001-.004-.001-.004v-.003l-.002-.005v-.004l-.001-.003-.001-.005v-.003l-.002-.005v-.003l-.001-.005-.001-.003-.001-.005v-.003l-.002-.005v-.003l-.002-.008v-.002l-.002-.005v-.005l-.002-.003v-.005l-.001-.003-.001-.005v-.003l-.002-.004v-.004l-.002-.004v-.004l-.001-.004-.001-.004-.001-.004v-.003l-.002-.005v-.003l-.002-.005v-.003l-.001-.004-.001-.003-.001-.005v-.003l-.002-.005v-.003l-.002-.005v-.002l-.001-.006-.001-.002-.008-.035v-.001l-.002-.006v-.002l-.001-.006v-.002l-.002-.005v-.003l-.002-.005v-.002l-.002-.005v-.003l-.002-.005v-.003l-.001-.005-.001-.003-.001-.005v-.003l-.002-.004v-.003l-.002-.005v-.002l-.002-.006v-.002l-.002-.006v-.002l-.001-.005v-.003l-.01-.035-.001-.008-.002-.006v-.002l-.002-.005v-.003l-.002-.006v-.002l-.002-.005v-.002l-.002-.006v-.002l-.002-.006v-.001l-.002-.007-.002-.007v-.001l-.002-.007-.001-.007v-.002a7.486 7.486 0 0 0-.02-.074l-.002-.008-.002-.007-.002-.008-.002-.007-.002-.008-.002-.007c-.106-.399-.234-.79-.385-1.173a1.922 1.922 0 0 0-1.788-1.225zm-8.05-5.506c-5.844 0-10.582 4.776-10.582 10.668V32.156l.001.005V32.205l.001.005V32.255l.001.002V32.294l.001.004v.032l.001.004V32.361l.001.005v.026l.001.005v.017l.001.004V32.441l.001.003v.017l.001.007v.017l.002.025V32.529l.001.006V32.552l.001.003V32.569l.001.003v.016l.004.059V32.656l.001.008V32.674l.001.007V32.691l.001.007v.009l.007.084v.009l.001.008.001.017c.094 1.253.408 2.479.927 3.62a1.918 1.918 0 0 0 2.552.953 1.946 1.946 0 0 0 .945-2.571c-1.543-3.414-.049-7.444 3.338-9a6.693 6.693 0 0 1 3.481-.576 1.932 1.932 0 0 0 2.118-1.932 1.934 1.934 0 0 0-1.724-1.927 10.61 10.61 0 0 0-.82-.052H31.986l-.025-.001h-.035l-.007-.001H31.838l-.005-.001H31.748z"/>
        <path fill="#6F60C8" d="M27.065 25.743a.948.948 0 0 0-1.333-.016l-.01.01-.002.001-.082.082-.002.002-.004.004-.001.001-.006.006-.006.006-.002.002-.005.005-.001.001-.006.007h-.001l-.005.006-.002.002-.013.012-.001.002-.005.005-.001.001-.006.007-.002.001-.005.005-.001.002-.013.012-.001.002-.005.005-.002.002-.006.006-.001.002-.005.004-.002.002-.005.006-.002.002-.005.005-.002.002-.004.005-.002.001-.006.006-.001.002-.005.005-.002.002-.005.006h-.001l-.005.006-.002.002-.005.005-.001.002-.006.006-.002.001-.004.005-.002.002-.006.006-.001.002-.005.005-.002.002-.005.005v.001l-.007.007-.001.001-.005.005-.002.002-.005.006-.001.002-.005.005-.002.002-.004.004-.002.002-.006.006-.001.002-.005.005-.001.002-.006.006-.001.001-.005.006-.002.002-.005.005v.001l-.007.006-.001.002-.005.005-.001.002-.006.006-.001.002-.005.005-.002.002-.005.006-.007.007-.001.002-.005.005-.001.001-.006.007-.006.007-.001.001-.005.006h-.001l-.006.007-.002.002-.004.005-.002.002-.005.006-.001.001-.005.006-.002.002-.005.005v.001l-.006.007-.002.002-.004.005-.002.001-.005.007-.002.001-.004.005-.002.002-.006.007-.005.006-.002.002-.004.005-.002.002-.005.006-.002.002-.004.005-.002.002-.005.006-.006.007-.002.002-.004.005-.002.002-.005.006-.002.002-.004.005-.002.002-.005.006a.36.36 0 0 1-.006.007l-.001.002-.005.005-.001.002a.349.349 0 0 0-.006.006v.002l-.005.005-.002.002-.005.006-.006.007-.001.002-.005.005-.001.001-.006.007v.002l-.005.005-.002.002-.011.013-.002.002-.004.005-.001.002-.006.006-.001.002-.004.005-.002.002-.005.007-.006.007-.001.001-.005.006-.001.001-.006.007v.001l-.005.006-.001.001-.006.007-.005.007-.002.002-.005.005v.001l-.006.007-.001.001-.005.006v.002a.473.473 0 0 1-.006.007l-.006.006-.001.002-.005.006-.006.008-.002.001-.004.006-.001.001a.343.343 0 0 1-.006.007l-.005.007-.002.002-.004.005-.001.002-.005.006-.002.002-.004.005-.001.002-.006.007-.005.007-.001.001-.005.006-.001.001-.005.007-.002.002-.004.005-.001.002-.005.007h-.001l-.005.006-.001.002-.005.006v.001l-.006.007-.001.002-.004.005-.002.002-.005.006-.001.002-.004.005-.002.002-.005.007-.005.007-.002.002-.004.005-.001.002-.005.007h-.001l-.004.006-.002.003-.004.005-.001.002-.005.006-.002.002-.004.005-.001.002-.005.007-.002.002-.004.005-.001.002-.004.005-.001.002-.005.007-.002.002-.004.005-.001.002-.005.006-.002.002-.003.005-.002.003-.004.005-.001.002-.005.006-.002.002-.003.005-.002.002-.004.007-.002.002-.004.005-.002.002-.003.006-.002.002-.004.006-.002.002-.004.005-.001.002-.005.007-.001.001-.004.006-.002.002-.004.006-.006.007-.001.003-.004.005-.001.002-.005.006-.001.002-.004.005-.002.003-.004.005-.001.003-.004.005-.002.002-.004.005-.001.003-.005.006-.001.002-.004.005-.001.003-.005.006v.001l-.005.006-.002.003-.003.005-.002.002-.004.006-.002.003-.003.004-.002.003a.442.442 0 0 0-.005.006v.001l-.005.006-.001.003-.004.005-.001.002-.005.006-.001.003-.004.004-.001.003-.005.007-.005.007-.001.002-.004.005-.001.002-.005.007-.001.002-.004.005-.001.002-.005.007v.001l-.005.006-.001.002-.004.006-.001.001-.005.007v.002l-.004.005-.002.003-.005.006v.002l-.004.005-.002.003-.004.006-.005.008-.002.002-.003.005-.001.002-.005.007v.001l-.005.006-.001.002-.004.006-.001.001a.444.444 0 0 0-.005.007l-.001.002-.003.005-.002.003-.004.006-.001.002-.004.006-.002.002-.003.006-.001.001-.005.007-.001.002-.004.006v.001l-.005.007-.001.002-.004.005-.002.003-.003.005-.001.002-.005.007-.001.002-.003.005-.002.002-.004.007-.001.002-.004.005-.001.003-.004.005v.002l-.005.007-.002.003-.003.004-.001.003-.005.006v.002l-.004.005-.002.003-.003.005-.001.002-.005.007-.001.002-.003.005-.002.003-.004.006-.001.002-.004.005-.001.003-.004.006v.001l-.005.007-.001.002-.004.005-.001.003-.004.006-.001.003-.004.005-.001.002-.004.006-.001.002-.004.006-.001.003-.003.004-.002.003-.004.007-.001.002-.003.005-.002.003-.004.006v.001l-.004.007-.002.002-.003.005-.002.003-.004.006-.001.003-.003.005-.002.002-.003.006-.002.002-.003.006-.002.003-.003.005-.001.002-.004.007-.001.002-.003.005-.002.003-.003.006-.002.002-.003.006-.002.002-.003.005-.001.003-.004.006-.002.003-.002.005-.002.002-.004.006-.001.003-.003.005-.002.003-.003.005-.001.002-.004.007-.002.003-.002.004-.002.003-.004.007v.001l-.004.006-.002.003-.002.005-.002.002-.004.007-.001.003-.003.004-.001.003-.004.006-.002.003-.003.005-.001.003-.003.004-.001.003-.004.007-.002.003-.002.004-.002.003-.003.006-.002.003-.003.005-.001.003-.003.004-.002.004-.003.006-.002.003-.002.004-.002.003-.003.006-.002.004-.003.004-.002.003-.002.004-.002.005-.003.005-.002.003-.002.004-.002.004-.004.006-.001.003-.003.004-.002.004-.002.003-.003.006-.002.004-.002.004-.002.003-.002.004v.001l-.006.01-.001.002-.002.004-.002.003-.004.007-.001.003-.002.004-.002.003-.002.004-.003.005-.003.005-.002.004-.001.003-.003.004-.002.005-.003.004-.002.004-.002.004-.001.003-.004.006-.002.004-.002.004-.002.004-.002.004-.002.004-.003.005-.002.004-.002.003-.001.004-.004.006-.002.004-.002.003-.002.004-.002.004-.002.005-.003.005-.001.003-.003.004-.001.004-.003.005-.003.005-.001.003-.002.004-.002.004-.003.006-.002.003-.002.004-.002.004-.002.004-.003.006-.002.003-.002.004-.002.004-.002.003-.003.007-.001.003-.002.004-.002.003-.002.004-.003.006-.002.004-.002.003-.002.005-.001.002-.004.009-.001.002-.003.004-.001.003-.004.007-.001.003-.002.005-.001.002-.003.005v.002l-.005.008-.001.003-.002.004-.004.002-.002.004-.003.006-.002.004-.002.003-.001.004-.002.003-.004.007v.003l-.003.005-.001.003-.004.007-.001.003-.003.004v.003l-.003.004-.001.003-.004.008-.001.002-.003.005v.002l-.006.01-.002.005-.001.003-.002.004-.002.003-.003.008-.001.002-.003.005v.003l-.005.008v.002l-.003.005-.001.002-.002.005-.005.01-.001.003-.003.004v.003l-.008.015v.002l-.003.005-.005.011-.001.002-.002.005-.001.002-.004.01h-.001l-.002.005-.001.003-.002.005-.001.001-.004.01-.001.002-.003.004v.002l-.005.011-.003.005v.002l-.008.016v.002l-.003.005v.002l-.005.01v.001l-.003.005v.002l-.008.016v.002l-.003.005-.007.018-.001.001-.007.017-.001.001-.002.005v.002l-.006.011-.002.005v.002l-.008.017v.001l-.003.006-.007.017-.001.002a2.385 2.385 0 0 0-.007.017l-.003.006-.015.036v.002a2.666 2.666 0 0 1-.01.023v.001l-.008.018-.003.006-.007.018v.001l-.007.018a2.666 2.666 0 0 0-.01.025l-.025.061a8.829 8.829 0 0 0-.192 5.88.96.96 0 0 0 1.212.623.972.972 0 0 0 .62-1.218 6.809 6.809 0 0 1 1.652-6.874l.074-.074a.984.984 0 0 0 .016-1.377l-.01-.01zm10.805.09l-.006-.006-.002-.002-.005-.005-.002-.002-.006-.006-.001-.001-.005-.005-.002-.002-.006-.006-.001-.001-.006-.006-.001-.001-.007-.006-.006-.007-.002-.001-.005-.006h-.001l-.007-.007-.001-.002-.005-.005-.002-.001-.006-.006-.001-.001-.006-.006-.002-.001-.005-.006-.007-.007-.002-.001-.005-.005-.001-.002-.007-.006v-.001l-.006-.005-.002-.002-.006-.006-.007-.006-.002-.002-.005-.005v-.001l-.007-.006-.002-.002-.005-.005-.002-.001-.006-.006-.001-.002-.005-.004-.002-.002-.006-.006h-.001l-.006-.006-.002-.002-.005-.005-.001-.001-.007-.006-.001-.002-.005-.005-.002-.001a.416.416 0 0 0-.007-.006v-.001l-.006-.005-.002-.002-.005-.005-.001-.001-.007-.006-.002-.002-.005-.005h-.001a.375.375 0 0 0-.007-.007l-.001-.001-.005-.005-.002-.002-.006-.006h-.001l-.006-.006-.002-.001-.006-.006-.007-.006-.001-.002-.006-.005-.001-.001-.007-.006-.007-.006v-.001l-.014-.013-.002-.001-.006-.005v-.001l-.007-.006-.002-.002-.005-.004-.002-.002-.006-.006h-.001l-.006-.006h-.001l-.007-.007-.007-.006-.001-.001-.006-.005-.001-.001-.006-.007h-.001l-.006-.006-.002-.001-.006-.006h-.001l-.006-.006-.002-.001-.006-.006-.007-.006-.002-.002-.005-.004-.001-.001-.007-.006-.002-.001-.005-.005-.002-.002-.006-.005-.002-.002-.005-.004-.002-.002-.005-.005h-.001l-.007-.006-.001-.002-.006-.004-.002-.002-.006-.005-.001-.002-.006-.004-.002-.002a.36.36 0 0 1-.006-.006l-.007-.005-.002-.002-.006-.005-.007-.006-.002-.002-.005-.004-.002-.002-.006-.005-.001-.001-.006-.005-.002-.001-.006-.006-.007-.006-.002-.001-.005-.005-.002-.001-.006-.006h-.002l-.005-.005-.002-.002-.007-.005-.007-.006-.001-.001-.007-.006-.007-.006-.001-.001-.006-.005h-.001l-.007-.007h-.002l-.005-.005-.002-.001-.014-.012-.001-.001-.006-.005h-.001l-.007-.006-.001-.002-.006-.004-.002-.001-.007-.006-.006-.006-.002-.001-.014-.011-.001-.002-.006-.004-.001-.001-.007-.006h-.002l-.006-.006-.008-.006v-.001l-.007-.005-.002-.001-.005-.005h-.001l-.007-.006-.002-.001-.005-.005h-.002l-.007-.006-.001-.001-.006-.005-.002-.001-.006-.005-.001-.001-.006-.005-.002-.002-.006-.004-.001-.001-.007-.005-.002-.002-.005-.004-.002-.001-.006-.005-.002-.002-.005-.004-.002-.001-.006-.005-.003-.002-.005-.004-.002-.001-.005-.004-.002-.002-.007-.005-.002-.001-.005-.004-.002-.002-.007-.005-.001-.001-.005-.004-.003-.002-.006-.005-.007-.005-.002-.002-.006-.004-.001-.001-.007-.005-.002-.002-.005-.003-.002-.002-.007-.005-.002-.002-.004-.003-.003-.002-.005-.004-.002-.002-.006-.004-.003-.002-.005-.004-.002-.001-.006-.005-.002-.001-.005-.004-.002-.002-.014-.01-.002-.002-.006-.004h-.001l-.007-.006-.002-.001-.005-.004-.002-.001-.007-.005-.002-.002-.005-.004-.002-.001-.006-.005-.002-.001-.006-.004-.002-.002-.005-.003-.002-.002-.007-.005-.002-.001-.005-.004-.002-.001-.007-.005-.002-.002-.005-.003-.003-.002-.005-.004-.002-.001-.006-.005-.002-.001-.005-.004-.002-.001-.007-.005-.002-.002-.005-.003-.003-.002-.006-.004-.002-.002-.005-.003-.003-.002-.005-.004-.001-.001-.007-.005-.002-.001-.006-.004-.002-.001-.006-.005-.003-.002-.004-.003-.003-.002-.006-.004-.002-.002-.005-.003-.003-.002-.005-.004h-.002l-.007-.005-.002-.002-.005-.004-.002-.001-.007-.005-.002-.001-.005-.004-.002-.001-.006-.004-.002-.002-.006-.004-.002-.001-.005-.004-.002-.001-.007-.005-.002-.001-.005-.004-.003-.001-.006-.005h-.002l-.006-.005-.002-.001-.006-.004-.002-.001-.006-.004-.002-.002-.005-.004h-.002l-.007-.005-.002-.002-.005-.003-.002-.002-.007-.005h-.001l-.007-.004-.002-.002-.005-.003-.002-.001-.007-.005-.002-.002-.005-.002-.002-.002-.007-.005-.002-.001-.005-.003-.003-.002-.006-.004-.002-.002-.005-.003-.003-.002-.005-.003-.002-.001-.007-.005-.003-.001-.004-.003-.003-.002-.006-.004-.003-.002-.004-.003-.003-.002-.006-.003-.002-.002-.006-.003-.002-.002-.005-.003-.003-.002-.006-.004-.003-.001-.005-.004-.002-.001-.007-.005h-.002l-.005-.004-.003-.002-.006-.004-.008-.005-.002-.001-.005-.003-.003-.002-.006-.004-.003-.001-.005-.004-.002-.001-.007-.004-.002-.002-.005-.003-.003-.002-.004-.002-.004-.002-.005-.004-.003-.002-.005-.003-.003-.001-.006-.004-.003-.002-.004-.003-.003-.001-.006-.004-.003-.002-.005-.003-.003-.002-.005-.003-.002-.001-.006-.004-.004-.002-.004-.002-.003-.002-.006-.004-.003-.002-.005-.003-.003-.001-.005-.003-.003-.003-.005-.003-.003-.002-.005-.002-.003-.002-.006-.004-.003-.002-.004-.002-.004-.002-.006-.004-.002-.001-.005-.003-.003-.002-.005-.003-.003-.002-.006-.003-.003-.002-.004-.003-.003-.001-.006-.004-.003-.002-.005-.002-.003-.002-.004-.003-.005-.003-.004-.002-.003-.002-.005-.002-.003-.002-.006-.004-.003-.002-.005-.002-.003-.002-.006-.003-.003-.002-.004-.003-.004-.002-.003-.002-.006-.003-.004-.002-.004-.003-.003-.001-.005-.003-.005-.003-.003-.002L36 24.4l-.004-.002-.004-.003-.005-.003-.004-.002-.004-.002-.004-.002-.004-.003-.005-.002-.003-.002-.004-.002-.005-.003-.005-.003-.004-.002-.003-.002-.004-.002-.004-.002-.006-.004-.003-.001-.004-.003-.003-.001-.007-.004-.003-.002-.004-.002-.003-.002-.015-.008-.002-.001-.004-.002-.003-.002-.007-.004-.003-.002-.004-.002-.003-.001-.007-.004-.004-.002-.003-.002-.004-.002-.004-.002-.005-.003-.004-.002-.004-.002-.004-.002-.004-.002-.005-.003-.004-.002-.004-.002-.004-.002-.003-.002-.006-.003-.004-.002-.004-.002-.003-.002-.007-.004-.002-.001-.005-.003-.003-.001-.004-.002-.006-.004-.004-.001-.004-.002-.003-.002-.005-.003-.005-.002-.004-.002-.003-.002-.004-.002-.004-.002-.006-.003-.003-.002-.004-.002-.004-.002-.006-.003-.004-.002-.004-.002-.003-.002-.004-.002-.006-.003-.004-.002-.003-.002-.004-.002-.003-.001-.008-.004-.002-.001-.005-.002-.003-.002-.007-.004-.003-.001-.004-.003h-.002l-.016-.008-.002-.002-.005-.002-.002-.001-.008-.004-.003-.001-.004-.002-.003-.002-.009-.004-.006-.003-.002-.001-.005-.003h-.001l-.01-.005-.001-.001-.005-.002-.002-.002-.01-.004-.006-.003-.002-.001-.015-.008h-.002l-.005-.003H35.5l-.01-.005-.002-.001-.005-.003h-.001l-.01-.005h-.001l-.005-.003-.002-.001-.016-.008h-.002l-.005-.003h-.002a.42.42 0 0 1-.009-.005h-.001l-.005-.003h-.002a1.294 1.294 0 0 1-.016-.009h-.002l-.016-.008h-.002l-.005-.003h-.001l-.01-.005h-.001l-.006-.003-.017-.009h-.002l-.016-.008h-.002l-.005-.003h-.001l-.01-.005h-.001l-.006-.003h-.001l-.016-.008h-.002l-.017-.008-.006-.003h-.001l-.017-.008h-.001l-.017-.008h-.001L35.208 24h-.001l-.005-.003H35.2l-.017-.008-.018-.008-.018-.008-.006-.002h-.002l-.016-.008h-.002a1.262 1.262 0 0 0-.016-.007l-.002-.001-.005-.002-.018-.008-.018-.008h-.001l-.006-.002-.011-.005h-.001l-.006-.003a1.305 1.305 0 0 1-.018-.007h-.001L35 23.912H35l-.006-.002-.011-.005h-.001l-.006-.003-.018-.007h-.001l-.018-.008a1.942 1.942 0 0 0-.024-.01l-.019-.007a8.628 8.628 0 0 0-5.107-.37h-.001l-.019.005-.019.005-.006.001-.019.005-.019.004-.006.002-.012.003h-.002l-.005.001h-.001l-.018.005h-.001a4.878 4.878 0 0 1-.018.005l-.006.001h-.002l-.011.004-.006.001h-.002l-.017.005h-.002l-.006.002-.01.003h-.003l-.005.002h-.002l-.01.003h-.002l-.005.002h-.002l-.016.005h-.003l-.005.002h-.002l-.008.003h-.003l-.005.002h-.004l-.005.002-.005.001-.004.001-.004.002h-.004l-.005.002-.006.001-.003.001-.004.002h-.005l-.005.002-.005.001-.003.002h-.005l-.003.002-.007.002h-.004l-.004.002-.004.001-.005.001-.005.002-.004.001-.004.001-.005.001-.004.002-.006.001-.003.001-.005.002h-.003l-.007.003h-.003l-.005.002h-.003l-.008.003h-.001l-.007.002h-.002l-.007.003h-.001l-.008.002-.002.001-.006.002h-.002l-.008.003h-.001l-.007.002h-.002l-.017.006h-.001l-.008.003-.009.002h-.001l-.007.003h-.002l-.008.003-.009.002-.017.006h-.001l-.018.005-.008.003a1.267 1.267 0 0 0-.018.006l-.018.005-.177.059a.972.972 0 0 0-.606 1.228.96.96 0 0 0 1.219.61 6.663 6.663 0 0 1 6.919 1.633 6.884 6.884 0 0 1 .326.35.957.957 0 0 0 1.361-.002.975.975 0 0 0 .04-1.328l-.028-.03v-.002l-.005-.004-.002-.003-.003-.003-.002-.003-.002-.002a8.948 8.948 0 0 0-.245-.264l-.002-.001-.003-.004-.002-.001-.003-.004-.002-.002-.004-.004-.008-.008-.002-.002-.003-.003-.002-.003-.003-.002-.003-.003-.002-.003-.004-.003-.002-.002-.004-.004-.003-.003-.003-.004-.003-.003-.003-.003-.002-.002-.004-.003-.002-.003-.004-.003-.001-.002-.006-.006z"/>
        <path fill="#BFC3EC" d="M32.71 17.458h3.848v11.637H32.71V17.458z"/>
        <path fill="#A1A7E3" d="M34.634 21.337c1.062 0 1.924.868 1.924 1.94v3.879H32.71v-3.88c0-1.07.861-1.94 1.924-1.94z"/>
        <ellipse cx="33.672" cy="32.004" fill="#4F3DBC" rx="6.735" ry="6.789"/>
        <ellipse cx="35.596" cy="32.004" fill="#00AB6F" rx="6.735" ry="6.789"/>
        <path fill="#61CBA5" d="M35.596 27.156c-2.657 0-4.81 2.17-4.81 4.849 0 .535.43.97.962.97a.966.966 0 0 0 .962-.97c.002-1.606 1.293-2.908 2.886-2.91a.966.966 0 0 0 .962-.97c0-.535-.43-.97-.962-.97z"/>
        <g fill="#09946F">
            <path d="M39.227 26.29a.957.957 0 0 0-1.328.298.975.975 0 0 0 .292 1.336c2.238 1.445 2.89 4.445 1.458 6.702a4.816 4.816 0 0 1-2.69 2.036.971.971 0 0 0-.653 1.204.96.96 0 0 0 1.192.658 6.773 6.773 0 0 0 4.425-4.18l.015-.04c.016-.045.032-.09.047-.137l.003-.01.01-.03.003-.01.013-.039a.584.584 0 0 1 .003-.01l.01-.03.002-.01a2.82 2.82 0 0 0 .012-.039v-.001c.002-.003.003-.006.003-.01l.004-.01.008-.03a5.203 5.203 0 0 1 .011-.04h.001l.003-.01.003-.01.008-.03.003-.01.009-.03.002-.01v-.001l.003-.009v-.001l.008-.03a.44.44 0 0 1 .003-.01l.003-.01.005-.02.002-.01v-.002c.002-.002.002-.005.003-.008v-.001l.008-.03v-.001l.002-.009v-.001l.003-.009v-.001l.005-.02.002-.01v-.001l.003-.009v-.002l.002-.008v-.001l.005-.02v-.001l.002-.009v-.002c.002-.002.002-.005.003-.008v-.001l.002-.01.005-.02v-.002l.002-.008v-.002l.002-.008v-.002a.785.785 0 0 0 .005-.02l.002-.01v-.001l.002-.008.001-.002.002-.009v-.001l.004-.02v-.002l.002-.008v-.002l.002-.008v-.002l.003-.01.002-.01.002-.01v-.002l.002-.007v-.003l.002-.007v-.002l.004-.02v-.002l.002-.008v-.002l.002-.008v-.002l.002-.009v-.001l.004-.02v-.002l.002-.008v-.002l.002-.008v-.002l.002-.01.002-.01a.27.27 0 0 0 .002-.01v-.002l.002-.008v-.002l.002-.008v-.002l.004-.02v-.002l.001-.008v-.002l.002-.008v-.002l.002-.01.004-.02v-.002l.001-.008v-.003l.002-.008v-.002l.004-.02.001-.01v-.002l.002-.008v-.002l.002-.008v-.002l.003-.02v-.002l.002-.008v-.003l.001-.007v-.003l.002-.008v-.001l.002-.01V33l.001-.01v-.002l.002-.007v-.003a197.511 197.511 0 0 1 .001-.01l.003-.02v-.002l.001-.008v-.003l.002-.007v-.003l.001-.008v-.002l.002-.01.001-.01v-.002a.228.228 0 0 0 .003-.02l.001-.01.002-.01v-.003l.001-.008v-.003l.001-.006v-.004l.001-.007v-.003c.002-.006.002-.013.003-.02v-.002l.001-.007v-.004l.001-.006v-.004l.002-.007v-.003l.001-.01.001-.01v-.003l.001-.007v-.003a.18.18 0 0 1 .001-.007v-.003l.001-.009.002-.01V32.7v-.007l.001-.003v-.007l.001-.004V32.671l.002-.01v-.01l.001-.003v-.011l.002-.007v-.003-.01l.002-.01v-.002-.011l.001-.007v-.003l.001-.007v-.003l.001-.01.001-.01v-.003-.007l.001-.004v-.006-.004l.001-.007v-.003l.001-.01v-.001-.009l.001-.003v-.01l.001-.007v-.004l.001-.007v-.003-.01l.001-.002v-.011l.001-.007v-.003-.007l.001-.003v-.01l.001-.01v-.004-.006l.001-.004v-.007a.05.05 0 0 1 0-.003l.001-.007v-.003-.01l.001-.003v-.017l.001-.004v-.007a.04.04 0 0 1 0-.003v-.008l.001-.002V32.302l.001-.008v-.003-.007-.003-.007l.001-.004v-.01-.01l.001-.003v-.007-.003-.007-.004-.007l.001-.003V32.203v-.007-.003l.001-.007v-.004-.02V32.15l.001-.007v-.004-.006-.004-.01-.011V32.094v-.006-.004l.001-.007v-.003-.01-.01-.003-.008-.003-.017-.004-.01V31.965v-.001V31.954v-.012-.009-.01-.003-.01-.011-.01-.002-.008l-.001-.002v-.022-.011l-.001-.01v-.012-.01l-.001-.01v-.001-.012-.008-.002l-.001-.01v-.002-.009-.01l-.001-.002v-.01a.3.3 0 0 0 0-.01l-.001-.002v-.011-.008l-.001-.002v-.012l-.001-.008v-.014l-.001-.008v-.002-.011l-.001-.01V31.63v-.003l-.001-.009v-.01l-.001-.002v-.011l-.001-.01v-.012l-.002-.02v-.001-.01l-.001-.001v-.011l-.001-.009v-.002l-.001-.008v-.002-.01l-.001-.002V31.487l-.001-.01v-.002l-.001-.01-.001-.01v-.001-.01l-.001-.001a.26.26 0 0 1 0-.008v-.003l-.002-.009v-.002-.01l-.001-.009V31.4l-.002-.01v-.011l-.001-.01-.001-.01v-.002l-.002-.009v-.002-.01l-.001-.009v-.002l-.002-.009V31.302l-.002-.009v-.01l-.001-.002-.001-.009v-.002l-.001-.008v-.002l-.001-.009v-.002l-.002-.008v-.002-.009l-.001-.002-.001-.01-.001-.009v-.002l-.002-.01v-.01l-.001-.001-.001-.01v-.001l-.001-.009v-.001l-.002-.01v-.002l-.001-.008v-.001l-.002-.01v-.002l-.002-.02-.002-.01v-.001l-.001-.01-.002-.01v-.002a.43.43 0 0 0-.001-.009l-.002-.01v-.002l-.003-.02v-.001l-.001-.01-.002-.01-.001-.01v-.002l-.002-.008v-.002l-.002-.009v-.002l-.001-.008v-.002l-.002-.009v-.002l-.002-.01-.001-.009v-.002l-.002-.01-.002-.009v-.002l-.001-.009v-.001l-.002-.01-.002-.01v-.002a1.17 1.17 0 0 0-.003-.018v-.002l-.002-.01a.278.278 0 0 0-.002-.01v-.001l-.002-.01-.002-.01a.397.397 0 0 1-.001-.01v-.002l-.002-.008v-.001l-.002-.01v-.001l-.002-.01-.002-.01v-.001l-.002-.01-.002-.01-.002-.01v-.002l-.002-.008v-.001l-.002-.01v-.002l-.002-.008v-.001l-.002-.01v-.001l-.002-.01-.002-.009v-.002l-.002-.009v-.001l-.002-.008v-.002l-.002-.01v-.001l-.002-.008v-.002l-.002-.009v-.002l-.002-.009-.002-.01v-.001a.398.398 0 0 0-.003-.01l-.002-.009v-.002l-.002-.009v-.001l-.002-.009v-.001l-.002-.009v-.002l-.003-.009a.268.268 0 0 0-.002-.01v-.001a.274.274 0 0 0-.002-.01l-.002-.009v-.002l-.003-.009-.002-.01a.268.268 0 0 0-.003-.01v-.002a.247.247 0 0 0-.002-.008v-.001l-.002-.01v-.001l-.005-.019v-.001l-.003-.01-.002-.01-.002-.01v-.001l-.003-.009v-.001l-.002-.01-.003-.01-.002-.01v-.001l-.005-.019-.001-.001-.002-.01-.003-.01-.002-.01v-.001l-.003-.008v-.002l-.003-.009v-.001l-.005-.019v-.001l-.005-.02-.003-.01-.003-.01-.002-.01v-.001c-.003-.006-.004-.013-.006-.019v-.001l-.005-.019v-.001a.156.156 0 0 0-.003-.01l-.003-.01-.003-.01-.003-.01a.345.345 0 0 0-.003-.01v-.001l-.005-.019-.004-.01-.002-.01v-.001c-.002-.003-.002-.006-.003-.01l-.003-.009-.003-.01v-.001l-.003-.01a.278.278 0 0 0-.003-.009v-.001l-.006-.019v-.001a.34.34 0 0 1-.003-.01l-.003-.009v-.001l-.003-.01-.003-.009v-.001l-.003-.009v-.001a.62.62 0 0 0-.006-.019v-.001l-.004-.01-.003-.009v-.001l-.003-.009v-.001l-.003-.008v-.002l-.003-.009v-.001l-.003-.009-.004-.01-.006-.02a.268.268 0 0 0-.01-.029v-.001l-.003-.009-.004-.01v-.001l-.006-.018v-.002l-.004-.009-.003-.009v-.001l-.004-.01-.003-.009-.003-.01v-.001l-.004-.009-.003-.01a1.997 1.997 0 0 1-.007-.019v-.001a.208.208 0 0 1-.004-.01l-.003-.008v-.002l-.004-.009-.003-.009-.004-.01v-.001l-.007-.018v-.001l-.007-.019-.004-.01a.287.287 0 0 0-.004-.01l-.003-.01-.007-.018v-.001l-.008-.019-.007-.019-.004-.01-.004-.01a.266.266 0 0 1-.004-.009l-.007-.02a.797.797 0 0 0-.008-.018l-.008-.02a.475.475 0 0 1-.004-.009l-.008-.019-.007-.019v-.001l-.008-.018v-.001l-.005-.01a.35.35 0 0 0-.003-.008v-.001l-.004-.009-.008-.019-.008-.019-.004-.01-.004-.009-.004-.01-.009-.018a1.62 1.62 0 0 1-.008-.019l-.008-.019a.2.2 0 0 1-.004-.01c-.002-.002-.003-.006-.004-.009a.2.2 0 0 1-.005-.01l-.008-.018-.009-.019-.009-.019-.004-.009a1.697 1.697 0 0 0-.017-.037l-.022-.047-.01-.018-.008-.019a6.798 6.798 0 0 0-2.419-2.73zM35.598 27.16a.966.966 0 0 0 .962-.969c0-.536-.43-.97-.962-.97-3.72 0-6.734 3.04-6.734 6.789V32.14l.001.005a.148.148 0 0 1 0 .01V32.182l.001.005v.031l.001.01v.014a.177.177 0 0 0 .001.012v.016l.001.005v.021l.001.006V32.316l.001.01v.011l.001.003v.011l.001.007v.015l.001.006v.01l.001.005v.01l.001.006v.011l.001.004v.01l.001.01v.011l.001.004v.006l.001.004v.011l.001.006v.004l.001.006a.071.071 0 0 1 0 .01l.001.005v.01l.001.006v.005l.001.007v.003l.001.01v.004l.001.007a.06.06 0 0 1 0 .004l.001.006v.004l.001.006v.005l.001.005v.011l.001.004v.006l.001.004v.007l.001.004v.007l.001.003.001.01.001.01v.004a.105.105 0 0 1 .001.01l.001.007v.004l.001.006v.005l.001.005v.005l.001.006v.004l.001.006v.005l.001.005v.005l.001.006v.004l.002.01v.01l.001.004.001.007v.004l.001.006v.004l.001.006v.005l.001.005a.04.04 0 0 1 0 .005l.001.006.001.004a.12.12 0 0 0 0 .006l.001.005v.005l.001.005.001.006v.004l.002.01v.002l.001.008v.004l.001.006v.005l.002.005v.011l.001.004.001.006v.004l.001.006v.005l.002.006v.004l.001.006v.004l.002.007v.003l.002.01v.002l.001.008v.004l.001.006.001.004V33l.001.005.001.006v.004l.002.006v.004l.001.006v.004l.002.006v.004l.001.006v.004l.002.007v.003l.002.01v.003l.001.008.001.003.001.007v.004l.002.006v.004l.001.006v.004l.002.006v.004l.001.006.001.004.001.006v.004l.002.007v.003l.002.009v.001l.002.01v.002l.002.008v.004l.001.006.001.005.001.005v.005l.002.005v.005l.002.005v.005l.001.006.001.004.001.006.001.004.001.007v.003l.002.009.002.01.001.004.001.007.001.004.001.006.001.004.001.005.001.005.001.005v.005l.002.005v.005l.002.006v.004l.002.006v.004l.002.006v.004l.002.006.002.008v.006l.002.004v.006l.002.004v.006l.002.004v.005l.002.005.001.005.001.005.001.005.001.005.001.005a.06.06 0 0 0 .001.005l.001.005.001.005.002.006v.004l.003.01.002.01v.003l.002.006v.004l.002.006.001.004.001.006.001.004.002.006v.004l.002.006v.004l.002.006.001.003.002.007v.004l.002.007v.002l.003.01v.002l.002.008.001.003.002.007v.004l.002.006v.004l.002.005.001.005.002.005v.004l.002.006.001.004.002.006v.004l.002.006.001.004.002.006v.003l.003.01v.003l.002.007.001.004.002.006v.004l.002.005.001.004.002.006.001.004.001.006.002.004.001.006.001.004.002.006v.003l.002.007.001.003.003.009.002.01.001.003.002.007.001.004.002.006v.004l.002.006.001.003.002.006.001.004.002.006v.004l.002.006.001.004.002.006.001.003.002.006v.004l.003.007v.003l.003.01v.002a.11.11 0 0 1 .003.007v.003l.003.007v.003l.002.006.001.004.002.006.001.004.002.005.001.004.002.006v.004l.003.006v.004l.002.006.002.003.002.008v.002l.003.01.001.002.002.007.001.004.002.005.001.005.002.005.001.004.002.005.001.005.002.005.001.004.002.006.001.004.002.006.001.003.002.007.001.003.006.019.001.003.002.006.001.004.002.006.001.004.002.005.001.004a.1.1 0 0 1 .002.006l.002.004.001.006.002.003.002.006v.004l.003.006v.003l.003.007.001.003.003.01.003.009.002.003.002.006v.004l.003.006.001.004.002.005.001.004.002.005.002.005.001.005.002.004.002.006.001.003.002.007.001.003.003.007v.002a.788.788 0 0 1 .007.02l.001.002.003.007v.003l.003.006.001.004.002.005.002.004.002.006.001.004.002.005.001.004.003.005.001.004.002.007.001.003a.195.195 0 0 1 .003.007v.002l.004.01.004.009v.003a.079.079 0 0 0 .004.01l.003.005.001.004.002.006.002.003.002.006.001.004.002.006.002.003.002.006.001.003.003.007v.002l.004.01.004.01.004.009v.003l.003.006.002.003.002.006.001.004.003.005.001.004.002.006.002.003.002.006.001.003.003.006.001.004.003.006v.003l.004.008v.001l.004.01v.001l.004.008.001.003.003.006.001.003.002.006.002.004.002.005.002.004.002.005.002.004.002.006.001.003.003.006.001.003.003.007.001.003.003.007v.002a.191.191 0 0 1 .005.009v.002l.004.007v.003l.003.006.002.003.002.006.002.004.002.005.002.004.002.006.002.003.002.006.002.003.002.006.002.003.003.007v.002l.009.019v.002l.004.007.001.003.003.006.001.003.003.006.001.003.003.006.001.004.003.005.001.004.003.005.001.004a.182.182 0 0 1 .005.009l.003.006v.003l.009.018v.002l.004.007.001.003.003.006a.093.093 0 0 0 .004.009.04.04 0 0 1 .002.003l.002.006.002.003.002.006.002.003.003.006.001.003.003.007.001.002.004.008.01.02.003.008.002.003.003.006.001.003.003.006.002.003.002.006.002.003.003.006.001.003a.13.13 0 0 0 .003.006l.002.003.003.006v.002a.243.243 0 0 1 .005.009l.005.01.004.008.001.002.004.007.001.003a.134.134 0 0 0 .003.006l.001.003a.117.117 0 0 1 .003.006l.002.003.003.006.001.003.003.006.002.003.003.006.001.002.003.007.002.002.009.018.004.009.002.002.003.006.001.003a.176.176 0 0 1 .004.006l.001.003.003.006.002.003.003.006.001.003.003.005.002.004.003.006.001.003.004.006.001.002.005.009.004.009.001.001a.133.133 0 0 1 .005.01l.003.006.002.003.003.006.002.003c0 .002.002.004.003.005l.002.004.002.005.002.003.003.006.002.003.003.006.001.003.004.006.001.002.01.018v.002l.005.007.001.002.003.006.002.003a.361.361 0 0 1 .003.006l.002.003a.166.166 0 0 1 .005.009l.003.005.001.003.004.006.001.003.004.006.001.002.004.008.01.018.002.003.004.006.001.002.004.006.001.003a.083.083 0 0 1 .003.006l.002.003a.083.083 0 0 0 .003.005l.002.004a.14.14 0 0 1 .003.005l.002.003.003.006.002.003.004.005.001.003.004.007.001.002.01.017.001.002.004.006.001.003.004.006.002.002.003.006.002.003c0 .002.002.003.003.005l.002.003.003.006.002.003.003.005.002.003.004.006.001.003.004.007.001.001.01.017.002.002.004.006.001.003.004.006.002.003.003.005.002.003.003.006.002.003.003.005.002.003a.196.196 0 0 0 .004.006l.001.002.004.007.001.001a.221.221 0 0 0 .005.008l.006.01.005.008.002.002.004.006.001.003.004.005.002.003c0 .002.002.004.003.005l.002.004.003.005.002.003.004.005a.03.03 0 0 0 .002.003l.003.006.002.002.004.006.001.003.011.016.001.002.004.006.002.003.004.006.001.002a.197.197 0 0 0 .004.006l.002.003.004.005.001.003a.08.08 0 0 1 .006.008l.003.005.002.003a.1.1 0 0 1 .004.006l.002.003.004.005.001.003.004.006.002.002.005.008.002.002.004.006.002.003a.108.108 0 0 0 .003.005l.002.003.004.005.002.003.003.005.003.004.003.004.002.004.003.004.003.004.003.005.002.003.004.005.002.003.01.016.002.002.004.006.003.003.003.005.002.003a.156.156 0 0 1 .004.005l.002.003.003.005.003.003a.089.089 0 0 1 .003.005l.002.003a.085.085 0 0 1 .004.005l.002.003.004.005.002.003a.091.091 0 0 1 .004.006l.001.002.006.008.006.008.001.002.005.006.002.003.003.005.002.003a.129.129 0 0 1 .004.005l.002.003.004.005.002.003.004.005.002.003.003.005.003.003.003.004.003.004.003.005.002.003.006.007.001.001.005.007.002.003.004.005.002.004.003.004.003.003.003.005.003.003.003.004c0 .002.002.003.003.004 0 .002.002.003.003.004l.003.004.003.004.002.004.004.004.002.003.004.005.002.003.005.007.003.004.004.004.002.003.004.005.002.003a.04.04 0 0 0 .004.005l.002.003.004.005.002.003.004.004.002.004.004.004.002.004a.068.068 0 0 0 .003.004l.003.003.003.004.003.004.004.004.002.004.006.007.002.003.004.005.002.003.004.004.003.004.003.004.003.003c0 .002.002.003.003.004 0 .002.002.003.003.004a.067.067 0 0 1 .003.004l.003.004a.106.106 0 0 1 .006.007l.003.004a.072.072 0 0 0 .003.004l.003.003.003.005a.05.05 0 0 1 .003.003l.003.004.001.001a.84.84 0 0 1 .008.01l.003.004.004.004.002.003.004.004.002.004.004.004.002.003.004.005.003.003.003.004.003.003.003.004.003.004.003.004.003.003.004.004.002.003.007.009.003.003.003.004.003.003.004.004.002.003.004.005.002.003.004.004.003.003c0 .002.002.003.003.004l.003.004.003.004.003.003.004.004.002.003.004.004.002.003.004.005h.001l.015.019.002.002a.957.957 0 0 0 1.358.094.975.975 0 0 0 .095-1.366 4.876 4.876 0 0 1 .482-6.84 4.774 4.774 0 0 1 3.15-1.187z"/>
        </g>
        <ellipse cx="37.52" cy="32.004" fill="#58E000" rx="2.886" ry="2.909"/>
        <path fill="#3612A9" d="M32.71 13.579h3.848c1.063 0 1.924.868 1.924 1.94v3.878c0 1.071-.861 1.94-1.924 1.94H32.71a1.932 1.932 0 0 1-1.924-1.94v-3.879c0-1.07.861-1.94 1.924-1.94z"/>
        <g fill="#5C4CDD">
            <path d="M16.355 15.518c.531 0 .962.434.962.97v1.94c0 .535-.43.97-.962.97a.966.966 0 0 1-.962-.97v-1.94c0-.536.43-.97.962-.97zM10.583 15.518c.53 0 .962.434.962.97v1.94c0 .535-.431.97-.962.97a.966.966 0 0 1-.963-.97v-1.94c0-.536.431-.97.963-.97z"/>
        </g>
        <path fill="#9085E8" d="M12.506 15.518h1.924c.532 0 .963.434.963.97 0 .535-.431.97-.963.97h-1.924a.966.966 0 0 1-.962-.97c0-.536.431-.97.962-.97z"/>
        <path fill="#BFC3EC" d="M32.71 15.518h3.848v3.88H32.71v-3.88z"/>
        <path fill="#A1A7E3" d="M33.672 17.457h1.924c.531 0 .962.435.962.97 0 .536-.43.97-.962.97h-1.924a.966.966 0 0 1-.962-.97c0-.536.43-.97.962-.97z"/>
        <g fill="#1D0086">
            <path d="M37.52 15.518c.531 0 .962.434.962.97v1.94c0 .535-.43.97-.962.97a.966.966 0 0 1-.962-.97v-1.94c0-.536.43-.97.962-.97zM31.748 15.518c.531 0 .962.434.962.97v1.94c0 .535-.43.97-.962.97a.966.966 0 0 1-.962-.97v-1.94c0-.536.43-.97.962-.97z"/>
        </g>
        <ellipse cx="37.52" cy="30.065" fill="#B2F189" rx="1" ry="1"/>
        <path fill="#09946F" d="M17.317.001h7.696v1.94h-1.898c-3.192 0-5.784 2.6-5.798 5.819v3.879c0 1.071-.862 1.94-1.924 1.94h-3.848a1.932 1.932 0 0 1-1.924-1.94v-3.88c0-4.284 3.445-7.758 7.696-7.758z"/>
        <g fill="#00AB6F">
            <path d="M11.545 13.578a1.934 1.934 0 0 1-1.924-1.94V7.76C9.625 3.477 13.068.006 17.317 0c.531 0 .962.434.962.97 0 .535-.43.97-.962.97-3.187.003-5.769 2.606-5.772 5.819v3.879c.53 0 .962.434.962.97 0 .535-.431.97-.962.97z"/>
            <path d="M30.786.001H18.279a.966.966 0 0 0-.962.97c0 .536.43.97.962.97h6.705c3.193 0 5.785 2.6 5.802 5.819v3.879c0 1.071.86 1.94 1.924 1.94h3.848a1.932 1.932 0 0 0 1.924-1.94v-3.88c0-4.284-3.446-7.758-7.696-7.758z"/>
        </g>
        <path fill="#00956A" d="M32.71 13.578a1.934 1.934 0 0 1-1.924-1.94V7.76a5.843 5.843 0 0 0-1.055-3.323.975.975 0 0 1 .235-1.35.957.957 0 0 1 1.34.236 7.785 7.785 0 0 1 1.404 4.43v3.886c.531 0 .962.434.962.97 0 .535-.431.97-.962.97z"/>
        <g fill="#58E000">
            <path d="M33.672 9.7h3.848c.531 0 .962.433.962.969s-.43.97-.962.97h-3.848a.966.966 0 0 1-.962-.97c0-.536.43-.97.962-.97zM33.672 5.82h3.848c.531 0 .962.434.962.97 0 .535-.43.97-.962.97h-3.848a.966.966 0 0 1-.962-.97c0-.536.43-.97.962-.97zM31.748 1.94h3.848c.531 0 .962.435.962.97 0 .536-.43.97-.962.97h-3.848a.966.966 0 0 1-.962-.97c0-.535.43-.97.962-.97z"/>
        </g>
        <g fill="#077C6B">
            <path d="M12.506 9.7h3.849c.53 0 .962.433.962.969s-.431.97-.962.97h-3.849a.966.966 0 0 1-.962-.97c0-.536.431-.97.962-.97zM12.506 5.82h3.849c.53 0 .962.434.962.97 0 .535-.431.97-.962.97h-3.849a.966.966 0 0 1-.962-.97c0-.536.431-.97.962-.97zM14.431 1.94h3.848c.532 0 .962.435.962.97 0 .536-.43.97-.962.97h-3.848a.966.966 0 0 1-.962-.97c0-.535.43-.97.962-.97z"/>
        </g>
        <path fill="#58E000" d="M22.127.001H27.9c.531 0 .962.434.962.97s-.43.97-.962.97h-5.772a.966.966 0 0 1-.962-.97c0-.536.43-.97.962-.97z"/>
    </g>
</svg>
