<svg xmlns="http://www.w3.org/2000/svg" width="41" height="37" viewBox="0 0 41 37">
    <g fill="none" fill-rule="nonzero">
        <path fill="#E1C3FF" d="M7.393 5.455h25.443a3.64 3.64 0 0 1 3.635 3.647v14.587a3.64 3.64 0 0 1-3.635 3.647H7.393a3.64 3.64 0 0 1-3.634-3.647V9.102a3.64 3.64 0 0 1 3.634-3.647z"/>
        <path fill="#CD9AF3" d="M25.567 16.395h9.086a1.82 1.82 0 0 1 1.818 1.824 1.82 1.82 0 0 1-1.818 1.823h-9.086a1.82 1.82 0 0 1-1.817-1.823 1.82 1.82 0 0 1 1.817-1.824z"/>
        <path fill="#FF4957" d="M3.759 1.808H36.47a3.64 3.64 0 0 1 3.635 3.647v7.294a3.64 3.64 0 0 1-3.635 3.646H3.76A3.64 3.64 0 0 1 .124 12.75V5.455a3.64 3.64 0 0 1 3.635-3.647z"/>
        <g fill="#F22738">
            <path d="M4.667 7.278h1.818a.91.91 0 0 1 .908.912.91.91 0 0 1-.908.911H4.667a.91.91 0 0 1-.908-.911.91.91 0 0 1 .908-.912zM24.658 3.63h1.818a.91.91 0 0 1 .908.913.91.91 0 0 1-.908.911h-1.818a.91.91 0 0 1-.908-.911.91.91 0 0 1 .908-.912zM33.745 7.278h1.817a.91.91 0 0 1 .909.912.91.91 0 0 1-.91.911h-1.816a.91.91 0 0 1-.91-.911.91.91 0 0 1 .91-.912zM28.292 7.278h1.818a.91.91 0 0 1 .908.912.91.91 0 0 1-.908.911h-1.818a.91.91 0 0 1-.908-.911.91.91 0 0 1 .908-.912zM35.562 10.925h1.818a.91.91 0 0 1 .908.912.91.91 0 0 1-.908.912h-1.818a.91.91 0 0 1-.908-.912.91.91 0 0 1 .908-.912zM30.11 3.63h1.818a.91.91 0 0 1 .908.913.91.91 0 0 1-.908.911H30.11a.91.91 0 0 1-.908-.911.91.91 0 0 1 .908-.912zM35.562 3.63h1.818a.91.91 0 0 1 .908.913.91.91 0 0 1-.908.911h-1.818a.91.91 0 0 1-.908-.911.91.91 0 0 1 .908-.912z"/>
        </g>
        <path fill="#F6EDFF" d="M24.502 9.857l-7.27-7.294a3.626 3.626 0 0 0-5.14 0L4.824 9.857a3.653 3.653 0 0 0-1.064 2.578V23.69a3.64 3.64 0 0 0 3.634 3.647h14.539a3.64 3.64 0 0 0 3.635-3.647V12.435c0-.967-.383-1.894-1.065-2.578z"/>
        <path fill="#E7CEFF" d="M25.034 10.39l-8.59-8.618a1.813 1.813 0 0 0-2.911.476l-.104.208c-.006.013-.006.026-.012.039a1.268 1.268 0 0 0-1.48.224l-7.802 7.828a1.292 1.292 0 0 0-.002 1.824 1.282 1.282 0 0 0 1.817.002l.002-.002s4.129-4.133 6.268-6.269a2.185 2.185 0 0 1 3.098.01l4.264 4.279c.341.342.533.806.533 1.29v1.067a1.82 1.82 0 0 1-1.818 1.824h-5.452a1.82 1.82 0 0 0-1.817 1.823 1.82 1.82 0 0 0 1.817 1.823h4.544a2.73 2.73 0 0 1 2.726 2.736 2.73 2.73 0 0 1-2.726 2.735h-.909a1.82 1.82 0 0 0-1.817 1.823 1.82 1.82 0 0 0 1.817 1.824h5.452a3.64 3.64 0 0 0 3.635-3.647V11.68c0-.483-.192-.947-.533-1.29z"/>
        <path fill="#5F7BCE" d="M18.297 20.042v7.294h-7.27v-7.294a3.64 3.64 0 0 1 3.636-3.647 3.64 3.64 0 0 1 3.634 3.647z"/>
        <path fill="#2C50BD" d="M11.936 20.042a.91.91 0 0 1 .909.911v5.47a.91.91 0 0 1-.909.912.91.91 0 0 1-.908-.912v-5.47a.91.91 0 0 1 .908-.911z"/>
        <path fill="#5F7BCE" d="M7.393 16.395A1.82 1.82 0 0 1 9.21 18.22v3.646a1.82 1.82 0 0 1-1.817 1.824 1.82 1.82 0 0 1-1.817-1.824V18.22a1.82 1.82 0 0 1 1.817-1.824z"/>
        <path fill="#2C50BD" d="M6.484 18.219a.91.91 0 0 1 .909.911v1.824a.91.91 0 0 1-.909.911.91.91 0 0 1-.908-.911V19.13a.91.91 0 0 1 .908-.911z"/>
        <g fill="#5F7BCE">
            <path d="M21.932 16.395a1.82 1.82 0 0 1 1.817 1.824v3.646a1.82 1.82 0 0 1-1.817 1.824 1.82 1.82 0 0 1-1.817-1.824V18.22a1.82 1.82 0 0 1 1.817-1.824zM31.019 16.395a1.82 1.82 0 0 1 1.817 1.824v5.47a1.82 1.82 0 0 1-1.817 1.824 1.82 1.82 0 0 1-1.817-1.824v-5.47a1.82 1.82 0 0 1 1.817-1.824z"/>
        </g>
        <path fill="#2C50BD" d="M11.936 10.925h5.452a.91.91 0 0 1 .909.912.91.91 0 0 1-.909.912h-5.452a.91.91 0 0 1-.908-.912.91.91 0 0 1 .908-.912z"/>
        <path fill="#FF747F" d="M2.85 13.66L14.663 1.808 26.475 13.66a1.282 1.282 0 0 0 1.818 0 1.292 1.292 0 0 0 0-1.823L17.765 1.274a4.38 4.38 0 0 0-6.205 0L1.033 11.837a1.292 1.292 0 0 0 0 1.823 1.282 1.282 0 0 0 1.817 0z"/>
        <path fill="#F22738" d="M2.85 5.455h1.817a.91.91 0 0 1 .909.912.91.91 0 0 1-.909.911H2.85a.91.91 0 0 1-.909-.911.91.91 0 0 1 .909-.912z"/>
        <g fill="#2C50BD" transform="translate(20.058 18.16)">
            <ellipse cx="10.961" cy="1.882" rx="1.817" ry="1.823"/>
            <path d="M.965 1.882a.91.91 0 0 1 .91.912v1.823a.91.91 0 0 1-.91.912.91.91 0 0 1-.908-.912V2.794a.91.91 0 0 1 .908-.912z"/>
        </g>
        <path fill="#00C76E" d="M34.815 21.882c-.054-.003-.106-.017-.162-.017-2.59 0-4.548 2.72-3.19 5.47.576 1.168 1.852 1.824 3.151 1.824h1.857a3.64 3.64 0 0 0 3.635-3.647v-2.735a2.73 2.73 0 0 0-2.727-2.735 2.718 2.718 0 0 0-2.564 1.84z"/>
        <path fill="#00AA6E" d="M34.653 25.512h1.818a1.82 1.82 0 0 1 1.817 1.823 1.82 1.82 0 0 1-1.817 1.824h-1.818a1.82 1.82 0 0 1-1.817-1.824 1.82 1.82 0 0 1 1.817-1.823z"/>
        <path fill="#56DA9F" d="M34.815 21.882l-.087-.01a.583.583 0 0 0-.065-.006H34.55l-.007.001h-.023l-.007.001h-.016l-.006.001h-.016l-.007.001h-.007l-.007.001h-.015l-.007.001h-.008l-.007.001h-.007l-.008.001h-.007l-.007.001h-.008l-.007.001h-.007l-.007.002h-.015l-.007.001h-.002l-.006.001h-.007l-.007.001h-.002l-.005.001H34.3l-.007.001-.007.001h-.002l-.006.001h-.007l-.007.002h-.008l-.007.001-.007.001h-.008l-.006.002h-.01l-.004.001-.008.001-.007.001h-.003l-.004.001h-.003l-.004.001h-.007l-.003.001h-.005l-.007.002h-.007l-.003.001h-.004l-.007.002h-.007l-.003.001h-.005l-.007.002h-.003l-.004.001h-.003l-.004.001-.007.001h-.003l-.005.001h-.002l-.005.002h-.007l-.003.001h-.003l-.004.001-.004.001-.007.001h-.004l-.003.001h-.004l-.007.002h-.003l-.004.001-.007.002-.008.001h-.002l-.005.001-.007.002h-.007l-.002.001-.005.001-.008.002-.007.001h-.002l-.005.001-.007.002h-.002l-.006.001-.006.002-.008.001h-.001l-.006.002h-.001l-.006.001-.007.002h-.001l-.007.001a3.645 3.645 0 0 0-2.85 3.037l-.002.007v.008l-.002.007a2.558 2.558 0 0 0-.006.048l-.001.007-.001.007-.001.008v.007l-.002.007v.007l-.001.008-.001.007v.002l-.001.005v.008l-.002.006V25.142l-.001.004v.004l-.001.007v.002l-.001.005v.008l-.002.007V25.188l-.001.006v.007l-.001.007v.007l-.002.008v.017l-.001.007v.008l-.001.003v.011l-.001.003v.012l-.001.007v.01l-.001.004v.015l-.001.003v.014l-.001.005v.017l-.001.005v.024l-.001.006v.028l-.001.003V25.476l-.001.005V25.593l.001.007v.03l.001.007v.015l.001.015v.007l.001.008v.015l.001.007v.008l.001.015v.007c.032.485.149.96.345 1.404a.908.908 0 0 0 1.197.469c.46-.202.67-.74.468-1.201-.396-.907-.11-1.572.096-1.888a1.814 1.814 0 0 1 1.45-.827 2.962 2.962 0 0 0 .236.015c.773 0 1.46-.491 1.715-1.223a.907.907 0 0 1 .848-.617c.502 0 .908.409.909.912v2.735c0 .12-.012.24-.034.357a.909.909 0 0 0 1.783.352l.019-.106v-.002l.001-.006v-.005l.001-.001v-.005l.002-.006c.024-.15.038-.302.043-.454V25.614v-.006l.001-.006V25.566l.001-.006v-2.782a2.73 2.73 0 0 0-2.726-2.736 2.718 2.718 0 0 0-2.564 1.84z"/>
        <path fill="#19E77C" d="M14.607 27.688a4.534 4.534 0 0 0-4.488-4c-.383 0-.765.051-1.136.15a2.51 2.51 0 0 1-2.51-.745c-1.177-1.333-3.308-1.794-5.329-.29-.664.494-1.02 1.304-1.02 2.134v3.835c0 2.403 1.627 4.034 3.635 4.034h12.627c3.515 0 3.698-5.413.184-5.47h-.09a5.39 5.39 0 0 0-1.873.352z"/>
        <path fill="#88F3BC" d="M1.206 22.757a6.69 6.69 0 0 0-.062.046c-.664.494-1.02 1.304-1.02 2.134v3.927l.001.002V28.907l.001.003v.037l.001.003v.025l.001.008v.014l.001.007V29.018l.001.007v.015l.001.007v.011l.001.007v.011l.001.007v.007l.001.003V29.107l.002.01v.02l.001.007v.007l.001.003v.004l.001.007v.007l.001.007v.007l.002.019v.006l.002.007v.014l.002.007v.014l.001.002v.005l.001.007.003.026v.006l.001.007.001.007v.007l.002.007v.006l.001.007.005.04v.006l.001.007.001.007.001.006v.007l.002.007.006.046.002.013.011.078c.038.236.094.469.168.696l.016.047.001.005.002.006.002.006.003.005.002.006v.002l.002.004.002.006.008.023v.001l.002.006.002.004v.002l.002.004v.002l.002.004.001.002.001.003.001.003.003.007v.002l.003.006.002.005.002.007.005.013a.135.135 0 0 1 .002.006l.003.006v.001l.002.005.003.006.002.006.002.007.03.074a.908.908 0 0 0 1.188.493.913.913 0 0 0 .491-1.19v-.002a2.802 2.802 0 0 1-.198-1.075v-3.834c0-.282.11-.539.286-.67.515-.384 1.03-.579 1.531-.578.46-.001.904.175 1.238.493.364.345.94.33 1.284-.037a.914.914 0 0 0-.036-1.289h-.001a3.601 3.601 0 0 0-2.25-.983H3.99l-.005-.001-.034-.002h-.016l-.002-.001h-.01l-.022-.001h-.006l-.006-.001h-.032l-.005-.001H3.822l-.003-.001H3.758c-.814 0-1.692.27-2.552.892z"/>
        <path fill="#00C76E" d="M15.872 30.983H4.968a.91.91 0 0 0-.909.911.91.91 0 0 0 .91.912h10.903a.91.91 0 0 0 .909-.912.91.91 0 0 0-.909-.911z"/>
        <g fill="#88F3BC">
            <path d="M10.173 24.731c0 .41.273.769.666.878a2.717 2.717 0 0 1 1.964 2.303 1.819 1.819 0 0 0 2.43 1.488 3.63 3.63 0 0 1 1.304-.24h.004c.327.005.643.081.737.601a.909.909 0 1 0 1.788-.326 2.843 2.843 0 0 0-.2-.652v-.003l-.007-.015-.002-.003-.001-.003a.19.19 0 0 0-.004-.009l-.001-.003-.002-.003-.001-.003-.004-.009-.002-.002v-.001l-.003-.005-.004-.009-.001-.003-.003-.006-.002-.003V28.7l-.003-.004-.001-.004-.003-.004-.001-.004-.001-.002a.057.057 0 0 1-.002-.004l-.002-.003-.002-.005-.002-.003-.001-.003-.002-.003-.002-.004-.002-.004-.002-.003-.001-.003-.002-.004-.002-.003-.002-.004-.001-.003-.002-.003a.234.234 0 0 1-.004-.007l-.002-.004-.001-.003-.002-.004-.004-.007-.004-.006-.002-.004-.005-.01-.002-.003c-.36-.65-1-1.138-1.926-1.23a4.191 4.191 0 0 0-.074-.007h-.005l-.02-.002h-.005l-.02-.002H16.697l-.005-.001H16.683l-.011-.001H16.663l-.005-.001h-.021l-.005-.001H16.602l-.011-.001H16.564a5.493 5.493 0 0 0-1.93.341l-.01.003-.01.005a.483.483 0 0 0-.008.002v-.006l-.001-.006v-.002l-.001-.004-.001-.007v-.002l-.001-.005v-.007l-.001-.002v-.004l-.001-.006v-.002l-.002-.012v-.002l-.001-.004-.001-.006v-.002l-.001-.006-.001-.007v-.006l-.002-.006v-.006l-.003-.014v-.008l-.001-.005-.002-.006v-.001l-.002-.013v-.006l-.002-.006v-.008l-.002-.006v-.006l-.002-.006v-.007l-.002-.007-.001-.006-.001-.006v-.002l-.001-.005-.001-.007-.002-.007v-.006l-.001-.001v-.005l-.002-.006v-.002l-.002-.012v-.001l-.002-.005v-.006l-.001-.002v-.005l-.002-.007-.002-.006v-.006l-.001-.002-.001-.004a.933.933 0 0 0-.003-.014v-.006a.118.118 0 0 1-.002-.006l-.002-.007-.002-.013-.001-.006v-.002l-.002-.004-.002-.014-.002-.006v-.001l-.001-.005-.002-.007-.001-.007-.001-.006v-.001l-.002-.005-.001-.006a.44.44 0 0 0-.002-.007l-.001-.007-.001-.006-.002-.006-.001-.006-.003-.013-.002-.006-.001-.006v-.002a.626.626 0 0 0-.004-.012l-.001-.006-.001-.006-.002-.006v-.001a.512.512 0 0 1-.003-.012l-.002-.006-.001-.006v-.002l-.002-.005-.002-.007-.001-.006-.002-.006v-.001l-.001-.005-.004-.013-.001-.006-.002-.006v-.002l-.002-.004-.001-.007v-.002l-.002-.004v-.002l-.002-.004v-.002l-.001-.004-.002-.007a.343.343 0 0 1-.002-.007l-.001-.005v-.002l-.002-.005-.002-.006a.81.81 0 0 0-.005-.019V27l-.002-.005-.002-.007-.002-.006-.001-.006-.002-.005v-.002l-.002-.005-.002-.007-.002-.006-.001-.005-.002-.007v-.001l-.002-.006-.002-.006v-.001l-.002-.004-.002-.006-.001-.006-.001-.002-.002-.006-.001-.005-.001-.002-.001-.004-.002-.006v-.002l-.002-.004-.002-.007v-.003l-.003-.005v-.004l-.003-.006v-.002l-.002-.004-.002-.007v-.002l-.002-.006-.001-.003-.001-.003-.001-.003-.001-.002-.002-.006v-.001l-.002-.005v-.002l-.002-.003v-.002l-.001-.004-.003-.007-.002-.006-.002-.006v-.002l-.002-.004a.242.242 0 0 1-.002-.006l-.002-.007-.002-.006-.002-.005-.001-.002-.001-.004-.002-.007-.003-.007-.002-.005-.002-.006v-.002l-.002-.004-.003-.007-.002-.006v-.001l-.002-.004-.002-.006v-.002l-.002-.005-.002-.006-.001-.002-.002-.006-.001-.003-.002-.006-.003-.007-.002-.006-.002-.005-.001-.003-.002-.005-.001-.003-.003-.008v-.002l-.002-.003-.002-.006-.001-.002-.002-.004v-.002l-.002-.004-.003-.007v-.002l-.002-.003v-.003l-.002-.002-.002-.006-.001-.003-.002-.005-.002-.005-.001-.003-.002-.005-.002-.003-.002-.006-.001-.003-.002-.004-.002-.006-.001-.002-.001-.003-.001-.003-.003-.005-.003-.009-.002-.005v-.002l-.003-.005-.001-.004-.006-.014-.002-.004-.002-.006-.003-.005-.003-.008v-.002l-.003-.005-.002-.006-.002-.003a1.246 1.246 0 0 0-.006-.013l-.002-.005v-.002l-.003-.006-.002-.004-.003-.007v-.002l-.003-.005-.002-.003-.002-.005-.003-.008-.003-.005-.002-.006-.001-.002-.001-.003-.001-.002-.003-.005-.003-.007v-.001l-.002-.004-.002-.005-.003-.005-.006-.013-.002-.006v-.001l-.003-.005-.002-.004-.006-.014-.003-.004-.002-.005-.009-.019v-.001l-.002-.004-.003-.005-.006-.013-.002-.005-.003-.005-.01-.019-.001-.005-.01-.018-.002-.005-.003-.005-.009-.018-.002-.005-.012-.023a4.813 4.813 0 0 0-.027-.05l-.002-.005a4.563 4.563 0 0 0-1.538-1.671l-.018-.012-.005-.003a4.128 4.128 0 0 0-.021-.014l-.005-.002a3.605 3.605 0 0 0-.044-.028l-.004-.002-.005-.003a1.327 1.327 0 0 0-.017-.01l-.004-.003-.002-.001a1.582 1.582 0 0 0-.016-.01l-.004-.002-.002-.001-.003-.002-.013-.008-.004-.002-.002-.001-.003-.002-.005-.003h-.002a.6.6 0 0 0-.007-.005l-.003-.002-.002-.001-.003-.002-.002-.001-.003-.002h-.002l-.004-.003-.006-.004-.003-.001-.002-.002h-.003l-.005-.004-.002-.001-.003-.002-.002-.001-.005-.003-.002-.001-.003-.002-.003-.001-.002-.001-.003-.002-.005-.003-.003-.002-.007-.003-.001-.001-.004-.002-.002-.001-.003-.002-.006-.003-.006-.004h-.001l-.006-.003-.003-.002-.006-.003-.012-.007-.005-.002-.005-.003-.002-.001-.005-.003-.005-.002-.006-.004-.005-.003h-.001l-.005-.003-.011-.006h-.001l-.005-.003-.005-.003-.006-.003-.011-.005-.006-.003-.006-.003-.017-.009-.005-.003a4.457 4.457 0 0 0-.813-.312.91.91 0 0 0-1.147.88zM1.941 23.689H3.76a1.82 1.82 0 0 1 1.817 1.823 1.82 1.82 0 0 1-1.817 1.824H1.94a1.82 1.82 0 0 1-1.817-1.824A1.82 1.82 0 0 1 1.94 23.69z"/>
            <path d="M9.21 25.512h1.818a1.82 1.82 0 0 1 1.818 1.823 1.82 1.82 0 0 1-1.818 1.824H9.211a1.82 1.82 0 0 1-1.817-1.824 1.82 1.82 0 0 1 1.817-1.823z"/>
        </g>
        <path fill="#D7E816" d="M32.9 9.166a6.41 6.41 0 0 0-9.086.001 6.462 6.462 0 0 0 0 9.116l.844.847-12.877 12.92a2.585 2.585 0 0 0 0 3.648 2.564 2.564 0 0 0 3.634 0l1.974-1.98.908.911 1.441 1.446a1.282 1.282 0 0 0 1.818 0 1.292 1.292 0 0 0 0-1.823l-.532-.534a2.585 2.585 0 0 1-.003-3.646 2.564 2.564 0 0 1 3.635-.003l.003.003.531.533a1.282 1.282 0 0 0 1.818 0 1.292 1.292 0 0 0 0-1.823l-1.441-1.446-.909-.912 3.635-3.647.844.847a6.41 6.41 0 0 0 9.086 0 6.462 6.462 0 0 0 0-9.117l-5.322-5.34zm-1.193 11.88l-5.323-5.341a2.807 2.807 0 0 1 0-3.96 2.784 2.784 0 0 1 3.947 0l5.322 5.34a2.807 2.807 0 0 1 0 3.96 2.784 2.784 0 0 1-3.946 0z"/>
        <path fill="#F1F7AE" d="M23.67 13.986a.91.91 0 0 1-.776-1.027c.161-1.193.71-2.3 1.562-3.148 2.087-2.09 5.714-2.09 7.801 0l.485.486a.914.914 0 0 1 0 1.29.906.906 0 0 1-1.284 0l-.485-.487c-1.399-1.401-3.834-1.401-5.232 0a3.668 3.668 0 0 0-1.048 2.108.909.909 0 0 1-1.024.778z"/>
        <path fill="#C2D521" d="M36.672 15.151c0 .242.096.474.267.645a4.634 4.634 0 0 1 0 6.539 4.6 4.6 0 0 1-4.066 1.283.911.911 0 1 0-.318 1.795l.022.004.009.002.009.001.01.002.009.001.01.002.048.008.009.001h.002l.007.002.01.001.009.002h.002l.007.001h.002l.008.002h.002l.008.001.03.004.008.002h.002l.008.001.009.001.01.002h.002l.006.001h.003l.007.001h.003l.007.002h.002l.008.001.02.003h.01l.008.002.01.001h.003l.006.001h.003l.006.002h.01l.003.001h.006l.003.001.007.001.01.001.02.002.01.001.009.002h.012l.006.001h.003l.007.001h.003l.006.001h.003l.006.001.01.001.01.001h.002l.01.001.008.001h.003l.007.001H33.092l.003.001h.006l.004.001H33.114l.006.001.01.001h.003l.006.001h.01l.002.001h.009l.01.001.009.001H33.188l.003.001h.007l.009.001h.009l.004.001H33.229l.006.001h.003l.007.001h.01l.02.002h.01l.009.001H33.307l.006.001h.012l.006.001h.01l.01.001h.012l.009.001h.01l.009.001H33.413l.005.001h.01l.009.001H33.459l.008.001h.033l.006.001H33.543l.003.001H33.681c3.546.004 6.425-2.879 6.428-6.438a6.455 6.455 0 0 0-1.885-4.566.91.91 0 0 0-1.551.645z"/>
        <path fill="#B9C600" d="M20.394 32.526c-.217-.852-.035-1.787.63-2.454.665-.668 1.597-.85 2.446-.633l1.188-1.192a1.292 1.292 0 0 0 0-1.823 1.282 1.282 0 0 0-1.817 0l-5.452 5.47a1.292 1.292 0 0 0 0 1.824 1.282 1.282 0 0 0 1.817 0l1.188-1.192z"/>
        <path fill="#C2D521" d="M27.008 20.42a1.282 1.282 0 0 1 1.817 0c.502.503.502 1.32 0 1.823L15.57 35.54a1.282 1.282 0 0 1-1.817 0 1.292 1.292 0 0 1 0-1.823l13.254-13.299z"/>
    </g>
</svg>
