<svg xmlns="http://www.w3.org/2000/svg" width="34" height="41" viewBox="0 0 34 41">
    <g fill="none" fill-rule="nonzero">
        <path fill="#EBEBEB" d="M29.621 40.64H4.178C2.17 40.64.543 39 .543 36.975V16.506a3.68 3.68 0 0 1 1.065-2.591l12.41-12.511A3.62 3.62 0 0 1 16.588.33H29.62c2.008 0 3.635 1.641 3.635 3.665v32.98c0 2.024-1.627 3.665-3.635 3.665z"/>
        <path fill="#E9D1FF" d="M4.178 13.156h9.086c1.004 0 1.818.82 1.818 1.833a1.825 1.825 0 0 1-1.818 1.832H4.178a1.825 1.825 0 0 1-1.818-1.832c0-1.012.814-1.833 1.818-1.833z"/>
        <path fill="#559AFF" d="M5.995 18.653h21.809c1.004 0 1.817.82 1.817 1.832v1.832H4.178v-1.832c0-1.012.814-1.832 1.817-1.832z"/>
        <g fill="#1876FF">
            <path d="M16.9 22.317H7.811v-3.664H16.9v3.664z"/>
            <path d="M29.621 22.317H16.899v-3.664h10.905c1.003 0 1.817.82 1.817 1.832v1.832z"/>
        </g>
        <path fill="#FCF9FF" d="M4.178 22.317v12.826c0 1.012.813 1.832 1.817 1.832h21.809c1.003 0 1.817-.82 1.817-1.832V22.317H4.178z"/>
        <path fill="#559AFF" d="M22.352 22.317h-7.27v-3.664h7.27z"/>
        <g fill="#D1EEFF">
            <path d="M15.082 22.317v14.658h7.27V22.317zM4.178 22.317v12.826c0 1.012.813 1.832 1.817 1.832h1.818V22.317H4.178z"/>
        </g>
        <path fill="#19E77C" d="M22.93 13.549h-2.375-.002a.796.796 0 0 1-.79-.802c0-.443.355-.8.792-.8h4.75a.796.796 0 0 0 .791-.801c0-.443-.354-.801-.791-.801h-3.167c-1.311 0-2.374-1.076-2.374-2.403s1.063-2.403 2.374-2.403h.792v-.8c0-.443.354-.801.791-.801.438 0 .792.358.792.8v.801h2.375c.437 0 .791.359.791.801 0 .443-.354.801-.791.801h-3.156a.798.798 0 0 1-.021 0h-1.573a.796.796 0 0 0-.79.8c-.001.443.353.802.79.802h3.167c1.311 0 2.374 1.076 2.374 2.403s-1.063 2.403-2.374 2.403h-.792v.8c0 .443-.354.802-.792.802a.796.796 0 0 1-.791-.801v-.801z"/>
        <path fill="#FCFCFC" d="M11.447 14.988H3.706c-.724 0-1.31-.591-1.31-1.32 0-.35.138-.686.383-.934l10.067-10.15a1.302 1.302 0 0 1 1.852 0c.246.249.384.584.384.935v7.805c0 2.024-1.627 3.664-3.635 3.664z"/>
    </g>
</svg>
