<svg xmlns="http://www.w3.org/2000/svg" width="40" height="40" viewBox="0 0 40 40">
    <g fill="none" fill-rule="nonzero" transform="translate(.317 -.67)">
        <circle cx="19.61" cy="20.701" r="19.61" fill="#559AFF"/>
        <path fill="#247DFF" d="M39.22 20.643v-.025-.025V20.575 20.558v-.03-.017-.01-.006-.017-.009-.009-.007-.01-.006l-.001-.013v-.031a1.767 1.767 0 0 0-1.77-1.73h-.025a1.798 1.798 0 0 0-1.77 1.808l.001.231c0 8.847-7.197 16.045-16.044 16.045a16.025 16.025 0 0 1-5.106-.828 1.783 1.783 0 0 0-1.136 3.38l.008.002h.002l.013.005a.528.528 0 0 1 .014.005h.002a.356.356 0 0 1 .015.005l.01.004.004.001.01.004h.003l.013.005h.002l.012.004.003.002.01.003.004.001.01.004h.003l.014.005h.001l.012.004.004.001.009.003.005.002.009.003.004.001.013.004.013.005.004.001.01.003.004.001.009.003.004.002a.622.622 0 0 1 .012.003l.002.001.013.004.004.002.008.002.006.002.008.002.005.002.01.003.003.001.013.004.005.002.008.002.006.002.008.003.005.001.009.003.004.001.013.004.005.002.007.002.007.002.007.002.006.002.007.003.006.001.012.004.005.002a.18.18 0 0 1 .009.002l.005.002.008.002.006.002.007.002.006.002a.342.342 0 0 0 .012.004l.006.002.007.002.006.002.007.002.007.002.007.002.006.002.011.003.006.002.008.002.006.002.007.002.007.002.006.002.007.002.007.002.012.004.006.002c.002 0 .004 0 .007.002l.006.001a.205.205 0 0 0 .013.004l.007.002.008.003.008.002.01.003.005.001.007.003.007.001a.358.358 0 0 1 .023.007l.003.001a.359.359 0 0 0 .012.004l.006.001.008.003.006.001.007.003.006.001.009.003.004.001.013.004.006.001.007.003.006.001a.15.15 0 0 1 .007.002l.007.002.007.002.006.002.008.002.01.003.007.002.007.002.006.002.007.002.007.002.006.001.013.004.004.001.009.003.005.001.008.002.006.002.008.002.005.002.009.002.01.003.007.002.006.002.007.002.007.001.007.002.006.002.008.002.01.003.007.002.007.002.007.002c.002 0 .004 0 .006.002l.007.001.007.002.006.002.012.003.007.002.007.002.006.002.007.001.007.002.006.002.007.002.01.002.009.003.006.001.007.002.007.002.006.002.007.002.007.001a.324.324 0 0 0 .011.003l.008.002.006.002.007.002.007.002.006.001.007.002.006.002a.416.416 0 0 1 .02.005l.005.001.008.002.006.002.007.002c.002 0 .004 0 .007.002l.006.001.007.002a.277.277 0 0 0 .012.003l.007.002.006.001.007.002a.251.251 0 0 1 .014.004l.006.001.007.002.008.002.01.003.008.002.006.001.007.002.007.002c.001 0 .005 0 .007.002l.006.001.01.003.005.001a.268.268 0 0 0 .016.004l.009.002.005.001.008.002.006.002.008.002.008.002.01.002.006.002.007.002.007.001.006.002.007.002c.003 0 .005 0 .008.002h.006l.012.004.007.002.006.001.007.002.007.001.006.002.008.002.006.001.012.003a.149.149 0 0 0 .014.004l.006.001.007.002.007.001.007.002.006.001.013.003.006.002.007.002.007.001.006.002.007.001.007.002.007.001.012.003.006.002.007.001.007.002.007.002.007.001.006.002.007.001.009.002.01.003.007.001.007.002.007.001.006.002.008.002.006.001.01.002.007.002.009.002.006.001a.17.17 0 0 0 .014.003l.007.002.006.001.008.002.01.002.008.002.007.002.007.001.007.002.006.001.007.002.007.001.01.003.009.001.007.002.006.001.008.002.006.001.007.002.007.002h.007l.012.004.007.001.006.001.007.002.007.001.007.002.007.001.006.002.013.002.006.002.007.001.007.002a.2.2 0 0 0 .013.003h.008l.006.002.013.003.005.001.008.002.007.001.007.002h.006l.008.002.006.002.01.002c.003 0 .006 0 .009.002l.007.001.007.002h.007l.007.002.007.002.006.001.01.002.006.001.01.002a.19.19 0 0 1 .007.002l.007.001a.11.11 0 0 0 .006.001l.008.002a.19.19 0 0 1 .015.003l.007.001a.53.53 0 0 0 .01.002l.007.002.008.001.005.001.009.002.005.001a.29.29 0 0 0 .01.002h.004l.013.003.005.001.009.002.006.001a.27.27 0 0 0 .008.001l.006.002.008.001.005.001.013.003h.006c.003.002.006.002.008.002l.006.002.008.001.006.001.008.002.006.001.013.002.005.001.009.002.005.001.008.002h.006l.009.002.005.001.013.003h.004l.01.002.005.001.009.002h.006l.009.003h.004l.012.003h.005l.01.002.006.001.008.002.006.001.008.001.006.001.01.002.006.001.01.002.006.001.009.002h.006l.008.002.005.001.011.002h.003l.014.003h.004l.01.002.005.001.01.002h.004l.01.002.004.001.013.002.005.001.01.002h.005l.009.002.004.001.011.002h.004l.013.003h.004a.213.213 0 0 1 .015.003l.01.001.004.001.01.002h.004l.014.003h.003l.011.002h.004l.01.003h.005l.01.002h.004l.014.003.014.002h.004l.01.002.005.001.01.002h.004l.013.002h.003l.012.003h.005l.009.002h.005l.01.002h.004c.004.002.008.002.013.003l.015.002h.004l.01.002.005.001.009.001.005.001.011.002h.003l.014.002.004.001.01.002h.005l.01.002h.004l.013.002.015.003h.003l.011.002h.005l.01.002h.004l.011.002h.003l.014.003h.003l.011.002h.004l.01.002h.005l.012.002h.002l.014.002h.002a.75.75 0 0 1 .013.003h.004l.01.002h.005l.01.002h.003l.029.004h.004l.01.002h.005l.01.002h.004l.014.002.014.002h.004l.01.002h.005c.004.002.007.002.01.002h.004l.014.003c.005 0 .01 0 .015.002h.003l.01.001.006.001.01.001a.04.04 0 0 0 .004 0l.011.002h.003l.014.002h.004l.01.002h.005l.01.002h.004l.012.002h.002l.015.002h.002l.012.002a.04.04 0 0 1 .004 0l.01.002h.005l.011.002h.003l.014.002h.003l.011.002a.04.04 0 0 1 .005 0l.01.001h.004l.011.002h.004l.014.002h.002l.012.002h.005l.01.002h.004l.01.001h.005l.014.003.014.001h.004l.01.002h.005l.01.001h.004l.014.002.014.002h.005l.01.001.005.001.01.001h.004l.012.002h.002l.014.002h.005l.01.002h.004l.01.001h.005l.011.002h.003l.014.002h.004l.01.001h.005l.01.002h.005a.55.55 0 0 0 .012.001h.002l.014.002h.004l.01.001h.005l.01.002h.005l.01.001h.004l.014.002h.003l.011.002h.005l.01.001h.004l.012.001h.003l.014.002h.002l.013.002h.014l.005.001a.53.53 0 0 1 .043.004h.003a.5.5 0 0 0 .012.002h.004l.011.001h.003l.03.003h.003l.01.001h.005l.011.002h.003l.03.002h.002l.012.002h.004a.49.49 0 0 0 .01.001h.005l.013.001.016.002H18.007l.004.001.011.001h.004l.013.001h.001l.015.002h.015l.004.001h.01l.004.001h.012l.003.001.014.001h.002l.013.001h.004l.01.002h.019l.03.003h.003l.011.001h.004l.011.001h.004l.029.002h.003l.011.001h.004l.012.001h.003l.03.003H18.337l.01.002h.019l.015.002h.019l.01.001h.005l.012.001h.002l.015.001h.003l.011.001h.005l.01.001h.005l.011.001h.003l.014.001h.014l.006.001h.01l.005.001h.014l.014.002h.019l.01.001h.005l.01.001h.019l.003.001h.011l.005.001h.015l.01.001h.004l.03.002H18.73l.01.001H18.758l.015.001h.004l.01.001h.02l.013.001h.002l.014.001h.02l.01.001h.019l.014.001h.003a.25.25 0 0 0 .012 0l.005.001H18.945l.003.001H18.976l.006.001h.029l.014.001h.02l.01.001h.019l.014.001h.015a.188.188 0 0 1 .015 0h.005l.01.001h.038l.01.001h.034l.015.001H19.264l.014.001h.049l.012.001h.066a.858.858 0 0 0 .03.001H19.61c10.83 0 19.61-8.779 19.61-19.61v-.05-.01z"/>
        <path fill="#A4C9FF" d="M19.61 4.657H19.392l-.003.001H19.337l-.011.001h-.039l-.012.001h-.04l-.002.001H19.196l-.012.001h-.028l-.01.001h-.029l-.009.001H19.081l-.003.001h-.024l-.012.001h-.015l-.009.001H18.992l-.004.001h-.012l-.01.001h-.016l-.01.001h-.015l-.024.002H18.874l-.012.001h-.012l-.003.001H18.834l-.009.001h-.017l-.008.001h-.012l-.004.001h-.014l-.01.001h-.012l-.003.001h-.012l-.012.001h-.002l-.01.001h-.015l-.024.002h-.012l-.003.001h-.011l-.013.001h-.001l-.01.001h-.012l-.004.001h-.012l-.011.002h-.016l-.009.001h-.003l-.023.002H18.515l-.01.002h-.016l-.01.001h-.003l-.009.001h-.003l-.024.002h-.012l-.003.001h-.011l-.012.002h-.015l-.009.001h-.003l-.024.003h-.014l-.01.002h-.002c-.009 0-.016 0-.025.002H18.286l-.01.002h-.016l-.01.002H18.237l-.002.001-.023.002h-.003l-.01.001h-.002l-.01.001h-.002l-.012.001h-.001l-.011.002h-.015l-.023.003h-.002l-.01.001h-.003l-.01.001h-.002l-.024.003h-.012l-.002.001-.012.001-.013.001-.011.002h-.003l-.01.001h-.001l-.025.002h-.001l-.01.002h-.003l-.01.001h-.002l-.012.001-.012.002h-.012l-.002.001-.024.003h-.012l-.002.001-.01.001h-.002l-.025.003h-.001l-.01.001h-.002l-.012.002-.013.001-.011.002h-.003l-.01.001h-.002l-.024.003h-.002l-.01.001h-.002l-.011.002-.025.003h-.001l-.011.001h-.002l-.024.003-.012.002h-.002l-.01.001h-.002l-.024.003h-.002l-.01.002h-.002l-.024.003-.012.002h-.002l-.01.001h-.002l-.024.004-.012.001h-.002l-.011.002-.025.003h-.001l-.01.002h-.003l-.024.003-.012.002-.013.002a2.491 2.491 0 0 1-.025.003l-.012.002-.038.005-.012.002-.038.005-.037.006-.013.002-.037.005a4.867 4.867 0 0 0-.037.006h-.001l-.012.002-.037.005A16.007 16.007 0 0 0 8.29 9.332l-.026.025-.008.009-.026.025a2.4 2.4 0 0 0-.025.026l-.008.008-.026.026a3.594 3.594 0 0 0-.059.06l-.008.009-.017.017-.008.009-.025.026-.008.008-.026.026-.008.009-.016.017-.002.002-.006.006-.002.002-.023.025-.002.001-.007.008-.016.017-.001.001-.007.008-.002.001-.007.008-.016.017-.002.002-.006.006-.002.002a2.77 2.77 0 0 0-.015.017H7.88l-.007.008-.002.002-.005.006-.002.003-.015.016-.002.002-.006.006-.002.002-.006.007-.002.001-.015.017-.002.002-.006.006-.002.002-.006.007-.001.002-.008.008-.002.002-.005.006-.003.002-.006.007v.001l-.008.008-.002.003-.006.006-.002.003-.005.005-.003.003-.005.006-.003.002-.006.008-.003.003-.005.005-.003.003-.005.006-.002.002-.014.016-.003.003-.005.005-.003.003-.005.006-.002.003-.007.007-.003.003a.328.328 0 0 0-.004.006l-.003.003-.005.005-.003.003-.005.006-.002.002-.007.008-.002.002-.005.006-.003.003-.005.006-.002.002-.008.009-.007.008-.002.003-.005.005-.003.003-.004.005-.003.003-.007.008-.003.003-.004.005-.003.004-.004.005-.003.003-.006.006-.003.004-.005.006-.004.004-.003.004-.004.004-.004.004-.003.004-.004.005-.006.006-.003.004-.004.004-.004.005-.003.004-.003.003-.009.01-.001.002-.005.005-.002.003-.005.005-.002.002-.016.018-.002.003-.004.005-.002.002-.005.006-.002.002-.016.018-.001.003-.005.005-.003.002-.004.006-.002.002-.01.011v.001l-.006.006-.002.002-.005.006-.001.002-.016.019-.002.002-.005.005-.002.002-.004.006-.002.002a3.527 3.527 0 0 0-.017.02l-.006.007-.018.021-.005.007-.002.002-.005.006-.001.001-.017.02v.001l-.006.007a6.92 6.92 0 0 0-.024.028l-.001.001-.005.007h-.001l-.023.029-.108.131a16.02 16.02 0 0 0-2.606 4.605 2.917 2.917 0 1 0 5.481 1.998l.002-.004a10.244 10.244 0 0 1 9.6-6.72 2.917 2.917 0 1 0 0-5.834z"/>
        <path fill="#19E77C" d="M39.22 20.701C39.22 9.137 29.21-.09 17.382 1.215 8.427 2.202 1.141 9.469.129 18.42c-.554 4.911.71 9.51 3.2 13.213l2.407-2.407a4.494 4.494 0 0 0 0-6.355l-1.279-1.28A1.26 1.26 0 0 1 6.24 19.81l3.136 3.136a3.057 3.057 0 0 0 4.323 0l.056-.056a3.155 3.155 0 0 0 .017-4.461l-.006-.007-5.897-5.897a2.521 2.521 0 0 1 3.566-3.564l1.533 1.533c.979.979 2.636 1.12 3.589.117a2.521 2.521 0 0 1 3.612-.048l7.833 7.834c.334.334.522.787.522 1.26v12.53a2.776 2.776 0 1 0 5.544.212l.045-.587a17.612 17.612 0 0 1 5.108-11.11z"/>
        <path fill="#00C864" d="M37.45 18.662h-.026a1.798 1.798 0 0 0-1.77 1.808l.001.231c0 5.35-2.641 10.083-6.678 13a2.773 2.773 0 0 0 5.092-1.302l.045-.588a17.611 17.611 0 0 1 5.107-11.11c0-.133-.019-.262-.022-.395a1.759 1.759 0 0 0-1.75-1.644z"/>
        <g fill="#88F2BB">
            <path d="M10.01 17.212c.224-.596.503-1.169.834-1.712l-2.975-2.975a2.483 2.483 0 0 1-.705-1.949l-.03.036a16.018 16.018 0 0 0-2.607 4.605 2.917 2.917 0 0 0 5.483 1.995zM22.528 7.574a2.917 2.917 0 0 0-2.918-2.917H19.39l-.012.001h-.067l-.008.001h-.039l-.004.001H19.223h-.011l-.005.001H19.2h-.015-.003l-.008.001h-.005a.128.128 0 0 0-.012 0h-.012l-.01.001H19.105a.27.27 0 0 1-.012.001H19.081h-.003l-.008.001h-.03l-.01.001h-.012-.003l-.012.001h-.015l-.008.001h-.016l-.012.001h-.012-.003l-.009.001h-.003l-.024.001h-.011l-.004.001h-.01-.002l-.012.001h-.012-.004l-.007.001H18.825l-.002.001h-.015l-.008.001h-.012l-.004.001h-.014l-.01.001h-.003l-.009.001H18.733l-.012.001h-.002l-.01.001h-.003l-.009.001h-.003l-.024.001h-.002l-.01.001h-.003l-.01.001h-.015l-.01.002H18.607h-.003l-.01.001h-.001l-.012.001h-.003a.303.303 0 0 1-.012.001h-.01l-.002.001-.024.002h-.015l-.01.001h-.002a.59.59 0 0 1-.012.001h-.002l-.01.001h-.012l-.003.001-.024.002h-.012l-.003.001h-.01-.001l-.013.002H18.387l-.01.001h-.002l-.024.002h-.002l-.01.001h-.002l-.01.001h-.002l-.025.002h-.002l-.01.002h-.002a.46.46 0 0 1-.01 0h-.002l-.012.002h-.002a.228.228 0 0 1-.025.002l-.024.002h-.002a.19.19 0 0 1-.01 0l-.002.001h-.01l-.002.001-.012.001h-.001l-.011.001h-.002l-.01.001h-.003l-.024.003h-.011l-.003.001-.01.001h-.002l-.024.002h-.002l-.01.002h-.002l-.012.001-.013.001-.011.001h-.002l-.011.002h-.001l-.025.002h-.001l-.01.001h-.003l-.01.002h-.002l-.012.001-.012.001h-.002l-.01.002h-.002l-.024.002h-.001l-.011.002h-.002l-.01.001h-.002l-.025.003h-.001l-.01.001h-.002l-.012.002-.013.001-.011.002h-.003l-.01.001h-.002l-.023.003h-.002a.354.354 0 0 0-.013.002l-.011.001-.025.003h-.001l-.011.001h-.001l-.025.003-.012.002h-.002l-.01.002h-.002l-.024.003h-.002l-.01.001h-.002a2.77 2.77 0 0 0-.024.003l-.012.002h-.002l-.01.002h-.002l-.024.003-.012.001h-.002l-.011.002-.025.003h-.001a.207.207 0 0 1-.01.002h-.003a2.152 2.152 0 0 1-.024.003l-.012.002-.013.002a2.9 2.9 0 0 0-.025.003l-.012.002-.037.005h-.002l-.011.002-.038.005-.037.006-.013.002a2.481 2.481 0 0 0-.037.005l-.037.006h-.001l-.012.002-.037.006A15.961 15.961 0 0 0 9.505 8.25a2.487 2.487 0 0 1 1.93.71l1.533 1.533c.978.979 2.635 1.12 3.588.117A2.5 2.5 0 0 1 20 10.452a2.909 2.909 0 0 0 2.528-2.878z"/>
        </g>
        <path fill="#19E77C" d="M28.524 37.637a2.674 2.674 0 0 0-2.674-2.674h-2.674c-.985 0-1.783.798-1.783 1.783a1.783 1.783 0 0 1-3.565 0v-1.783a1.783 1.783 0 0 0-3.044-1.26l-1.782 2.52a1.783 1.783 0 0 1-1.26.523h-1.045a1.754 1.754 0 0 0-1.344.646 19.476 19.476 0 0 0 19.116.788c.036-.178.055-.36.055-.543z"/>
        <path fill="#FF4957" d="M31.963 11.251c1.123-1.123.328-3.043-1.26-3.043H13.916a2.824 2.824 0 0 0-1.263 5.35l9.938 5.204c.67.285 1.444.134 1.958-.38l7.413-7.13z"/>
        <path fill="#FF7F89" d="M14.661 9.1c0-.493.4-.892.892-.892h14.262a.891.891 0 0 1 0 1.783H15.553a.892.892 0 0 1-.892-.892z"/>
        <path fill="#FF3040" d="M14.661 11.992l7.77 4.382c.92.46 1.361 1.529 1.034 2.505a1.762 1.762 0 0 1-.87-.117l-9.938-5.204a2.783 2.783 0 0 1-.783-.605c.006-.011.005-.024.01-.035a2.07 2.07 0 0 1 2.777-.926z"/>
        <path fill="#F6EDFF" d="M38.413 3.533a4.118 4.118 0 0 1-.264 6.066l-19.38 16.268a8.336 8.336 0 0 1-5.36 1.95H8.158a2.41 2.41 0 0 1-1.705-4.114l20.171-20.17a8.336 8.336 0 0 1 11.79 0z"/>
        <g fill="#E4CAFF">
            <path d="M33.635 7.146L17.016 24.252a1.953 1.953 0 0 0-.366 2.255c.09.172.204.33.34.468a8.294 8.294 0 0 0 1.778-1.108l18.579-15.595c.669-.955.63-2.265-.231-3.126a2.461 2.461 0 0 0-3.48 0zM9.313 22.001v3.994c0 1.007.816 1.823 1.823 1.823h.248c.869 0 1.617-.614 1.788-1.466l.873-4.367a1.823 1.823 0 0 0-2.364-2.087l-1.121.373a1.823 1.823 0 0 0-1.247 1.73z"/>
            <path d="M8.216 27.625c.847.424 1.877.181 2.446-.577l3.208-3.209a1.961 1.961 0 0 0-.692-2.93 1.961 1.961 0 0 0-2.446.577l-3.208 3.209a1.961 1.961 0 0 0 .692 2.93z"/>
        </g>
        <g fill="#FF4957">
            <path d="M10.868 23.496a1.783 1.783 0 0 1-1.998.379l-5.36-2.084a2.466 2.466 0 0 1 1.164-4.654l8.198-.01c1.582-.002 2.383 1.904 1.275 3.032l-3.28 3.337zM31.228 10.513c1.123-1.123 3.043-.328 3.043 1.26V28.56a2.824 2.824 0 0 1-5.35 1.263l-5.204-9.939a1.783 1.783 0 0 1 .38-1.958l7.131-7.412z"/>
        </g>
        <g fill="#247DFF" transform="translate(16.388 .32)">
            <circle cx="14.318" cy="6.105" r="1.783"/>
            <path d="M17.043.858l-.42.42a1.783 1.783 0 1 0 2.52 2.522l1.62-1.62a8.256 8.256 0 0 0-3.72-1.322z"/>
            <circle cx="10.752" cy="9.67" r="1.783"/>
            <circle cx="7.186" cy="13.235" r="1.783"/>
            <circle cx="1.838" cy="18.584" r="1.783"/>
        </g>
        <path fill="#00C864" d="M22.36 40.097a19.4 19.4 0 0 0 1.694-.31c.152-.036.3-.078.451-.116a19.565 19.565 0 0 0 1.762-.543l.256-.094c.663-.25 1.313-.535 1.946-.854a2.66 2.66 0 0 0-1.82-3.082 15.889 15.889 0 0 1-5.234 1.54c-.002.037-.022.07-.022.108a1.783 1.783 0 0 1-3.565 0v-.11a15.923 15.923 0 0 1-3.324-.719 1.672 1.672 0 0 0-1.373.124l-.13.183c-.146.14-.316.253-.501.335a1.755 1.755 0 0 0 .767 2.68 19.062 19.062 0 0 0 8.57.937c.176-.02.348-.055.522-.08z"/>
        <path fill="#FF7F89" d="M33.38 11.773c.492 0 .891.4.891.892v14.261a.891.891 0 0 1-1.783 0V12.665c0-.493.4-.892.892-.892z"/>
        <g fill="#FF3040">
            <path d="M30.487 27.818l-4.382-7.77a2.067 2.067 0 0 0-2.505-1.034c-.035.295.005.594.117.87l5.204 9.938c.153.295.358.56.605.783.011-.006.024-.005.035-.01a2.07 2.07 0 0 0 .926-2.777zM11.897 22.448a1.899 1.899 0 0 0-.566-.222l-6.848-1.502c-.61-.12-1.24.063-1.69.49.2.236.443.432.716.577l5.36 2.084c.68.303 1.477.152 1.999-.379l1.03-1.048z"/>
        </g>
        <path fill="#FF7F89" d="M4.856 17.121h7.131a.891.891 0 1 1 0 1.783h-7.13a.891.891 0 0 1 0-1.783z"/>
    </g>
</svg>
