<svg xmlns="http://www.w3.org/2000/svg" width="144" height="164" viewBox="0 0 144 164">
    <g fill="none" fill-rule="evenodd">
        <ellipse cx="53.303" cy="53.457" fill="#FF3378" opacity=".12" rx="53.303" ry="53.457" transform="matrix(-1 0 0 1 144 0)"/>
        <path fill="#CEE5ED" d="M6.548 159.899c0-1.787 27.117-3.237 60.566-3.237 33.45 0 60.567 1.45 60.567 3.237 0 1.787-27.116 3.237-60.567 3.237-33.45 0-60.566-1.45-60.566-3.237" opacity=".488"/>
        <path fill="#F2BF75" d="M76.436 147.768L76 150.906 78.054 154l5.337-2.888.609-2.866L77.414 147z"/>
        <g>
            <path fill="#1E394C" d="M79.797 156.468l.619-.744a.284.284 0 0 1 .436 0l.6.724c.244.292.605.46.986.46l13.688-.045c.264-.263.34-.72.038-1.033-1.978-2.05-12.725-5.693-13.258-5.994-.534-.302-3.87 2.215-8.212-.201 0 0-.755 3.412-.888 5.628a1.56 1.56 0 0 0 1.558 1.669l3.474-.012c.37-.001.722-.166.96-.452"/>
            <path fill="#F2BF75" d="M53.244 146.717l-.483 3.042 2.282 2.999 5.93-2.8.675-2.778-7.316-1.208z"/>
            <path fill="#1E394C" d="M57.864 156.591l.619-.744a.283.283 0 0 1 .435 0l.602.725c.242.292.603.46.984.46l13.688-.046c.265-.263.34-.72.038-1.033-1.978-2.05-12.724-5.693-13.258-5.994-.534-.302-3.87 2.215-8.211-.2 0 0-.756 3.41-.888 5.627a1.562 1.562 0 0 0 1.557 1.67l3.474-.013c.37-.001.722-.166.96-.452"/>
            <path fill="#CEE5ED" d="M84.809 48.23l4.166 15.884 11.341-7.56 5.13 4.069L90.64 74.466l-10.65-9.868z"/>
            <path fill="#F2BF75" d="M100.333 56.559l3.3-6.505a1.365 1.365 0 0 1 1.904-.545 4.946 4.946 0 0 1 2.33 5.288c-.449 2.078-1.204 4.534-2.42 5.826l-5.114-4.064z"/>
            <path fill="#1E394C" d="M104.412 44.003l3.62-.294c.524-.043.86.294.744.749l-2.566 10.155c-.115.455-.638.862-1.164.904l-3.619.295c-.843.068-1.328 1.56-.745-.75l2.566-10.155c.115-.454.639-.86 1.164-.904"/>
            <path fill="#F2BF75" d="M100.318 56.585l-.758-2.412a1.372 1.372 0 0 1 .435-1.763l1.257-.872a.898.898 0 0 1 1.061 1.445l-.579.447-.59.446 1.401 2.113-2.227.596z"/>
            <path fill="#1E394C" d="M53.28 147.425c0-3.55 3.36-62.627 3.36-62.627s8.337-8.105 12.873-7.246c4.536-.859 14.85 5.15 14.85 5.15s-.983 61.173-.983 64.723h-8.289s-1.604-26.638-5.434-46.98c-.17-.909-.028-.999-.199-.089-3.83 20.341-7.888 47.069-7.888 47.069h-8.29z"/>
            <path fill="#CEE5ED" d="M69.325 38.632s-11.598 2.835-13.203 4.684c-1.604 1.848-7.635 13.37-7.526 17.253.126 4.544 7.926 14.245 7.773 13.678v13.689s17.767 5.546 28.503-1.233c0 0 1.23-35.156-.247-39.075-.454-1.203-6.293-6.285-8.02-6.9-1.728-.617-7.28-2.096-7.28-2.096"/>
            <path fill="#CEE5ED" d="M48.597 60.568c.11 4.052 6.33 12.208 7.562 13.52l.009.008.202.152 3.917 3.512 4.72-4.252s-8.7-6.192-7.496-14.142c.846-5.593 6.663-15.619 6.663-15.619 1.998-1.128 3.956-3.176 5.47-5.029a32.2 32.2 0 0 0-.318-.084s-11.6 2.831-13.204 4.68c-1.602 1.848-7.632 13.373-7.525 17.254"/>
            <path fill="#FF3378" d="M88.487 57.59a4.186 4.186 0 0 1 4.19 4.183v21.992a4.186 4.186 0 0 1-4.19 4.184H50.224a4.186 4.186 0 0 1-4.19-4.184V61.773a4.186 4.186 0 0 1 4.19-4.183h38.263z"/>
            <path fill="#000" d="M55.174 57.59a4.186 4.186 0 0 0-4.188 4.183v21.992a4.186 4.186 0 0 0 4.188 4.184h-4.95a4.186 4.186 0 0 1-4.19-4.184V61.773a4.186 4.186 0 0 1 4.19-4.183h4.95z" opacity=".24"/>
            <path fill="#1E394C" d="M92.677 68.611H46.036v-5.985h46.64zM88.247 77.205h-9.185v-1.269h9.185zM88.246 80.035h-4.44v-1.268h4.44z"/>
            <path fill="#EA9249" d="M68.708 32.194v8.226s2.684 8.225 8.884 1.756l.555-6.563-9.439-3.42z"/>
            <path fill="#1E394C" d="M84.81 25.754s10.488-2.218 4.01-11.153c0 0-1.11 4.745-6.786.679-2.893-2.073-7.183-2.592-11.97 0-5.12 2.772-6.908 11.276-2.528 15.712l8.575-1.725 8.7-3.513z"/>
            <path fill="#F2BF75" d="M84.81 25.754s1.234 14.234-8.205 13.31c-7.373-.722-7.095-6.285-7.095-6.285s-2.406-.493-2.53-2.65c-.123-2.156.556-3.944 2.715-2.526 0 0 3.825-2.464 4.073-4.19 0 0 4.503 2.464 11.042 2.341"/>
            <path fill="#F6BA8E" d="M72.368 86.919c.476.586.31 1.522-.387 2.086l-1.6 1.295c-.697.563-1.648.53-2.123-.056l-5.025-6.247 4.806-3.691 5.225 3.686c.366.262.364.817-.015 1.057-.223.142-.511.235-.866.18-.987-.155-1.387-.708-1.387-.708l1.372 2.398z"/>
            <path fill="#CEE5ED" d="M68.947 80.365l-5.61 4.51S48.093 68.036 48.03 61.598c-.035-3.621 4.368-12.34 7.127-17.043h9.878s-7.048 10.594-9.174 15.676a3.075 3.075 0 0 0 .309 2.93c2.573 3.748 10.174 14.707 12.776 17.205"/>
            <path fill="#B4CCD3" d="M55.158 44.554s-5.63 13.941-5.603 16.737c.055 5.544 12.234 18.727 15.375 22.304l-1.594 1.28s-15.242-16.84-15.304-23.278c-.035-3.621 4.367-12.34 7.126-17.043"/>
            <path fill="#B4CCD3" d="M57.32 57.476l.312.11h25.462l.348-.11-23.936-.613s3.109-8.617 2.62-8.374c-.495.252-4.805 8.987-4.805 8.987"/>
            <path fill="#EA9249" d="M80.661 36.988c1.007-1.062 1.15-2.958 1.15-2.958s1.122 0 1.266-.143c.143-.144-.345-4.078-.259-4.768.061-.485.317-2.383.46-3.417.644.039.84.065 1.532.052 0 0 1.234 14.234-8.205 13.31 2.298.036 3.05-1.013 4.056-2.076"/>
            <path fill="#198B20" d="M6.087 117.43c-2.9-3.07-3.62-7.1-1.602-9 2.015-1.9 6.002-.953 8.903 2.118 2.901 3.07 4.967 8.526 2.951 10.426-2.016 1.901-7.351-.474-10.252-3.544"/>
            <path fill="#000" fill-opacity=".24" d="M4.485 108.43c.625-.59 1.44-.904 2.355-.967-.096.073-.193.144-.282.227-2.016 1.9-1.299 5.93 1.603 9 2.182 2.31 5.741 4.225 8.228 4.223-.017.02-.03.043-.05.061-2.016 1.901-7.35-.474-10.252-3.544-2.9-3.07-3.618-7.1-1.602-9"/>
            <path fill="#0DCC18" d="M20.837 105.61c-.388-4.14 1.37-7.691 3.93-7.93 2.558-.24 4.946 2.924 5.333 7.065.388 4.141-1.19 9.617-3.749 9.856-2.558.24-5.127-4.85-5.514-8.99"/>
            <path fill="#000" fill-opacity=".24" d="M24.766 97.68c.478-.044.949.029 1.402.206-2.098.84-3.45 4.046-3.106 7.725.321 3.43 2.14 7.499 4.207 8.664-.29.183-.596.296-.917.326-2.56.239-5.128-4.849-5.516-8.99-.387-4.141 1.372-7.692 3.93-7.931"/>
            <path fill="#198B20" d="M33.29 102.43c1.774-3.488 4.959-5.43 7.112-4.336 2.155 1.092 2.464 4.806.69 8.294-1.774 3.488-5.784 7.05-7.937 5.957-2.155-1.093-1.64-6.428.134-9.916"/>
            <path fill="#000" fill-opacity=".24" d="M33.29 102.43c1.774-3.488 4.959-5.43 7.112-4.336.825.418 1.378 1.222 1.648 2.248a2.786 2.786 0 0 0-.66-.474c-2.155-1.093-5.34.848-7.113 4.336-1.245 2.45-1.866 5.802-1.383 7.965-1.84-1.389-1.301-6.404.395-9.74"/>
            <path fill="#0DCC18" d="M36.717 117.006c3.419-1.53 6.909-1.167 7.796.809.886 1.977-1.168 4.82-4.588 6.348-3.42 1.53-8.498 1.879-9.384-.098-.887-1.976 2.755-5.529 6.176-7.059"/>
            <path fill="#000" fill-opacity=".24" d="M36.717 117.006c3.419-1.53 6.909-1.168 7.796.809.206.461.247.971.154 1.5-.945-1.905-4.381-2.24-7.754-.73-2.75 1.23-5.644 3.77-6.207 5.746a1.423 1.423 0 0 1-.165-.266c-.887-1.977 2.755-5.529 6.176-7.059"/>
            <path fill="#198B20" d="M5.15 129.06c-3.414-1.214-5.535-4.011-4.737-6.247.797-2.237 4.211-3.065 7.625-1.851 3.415 1.215 7.122 4.576 6.324 6.812-.797 2.236-5.799 2.5-9.212 1.286"/>
            <path fill="#000" fill-opacity=".24" d="M.412 122.812c.343-.958 1.168-1.657 2.266-2.048-.4.35-.708.768-.883 1.26-.798 2.236 1.322 5.033 4.736 6.247 2.31.822 5.342.964 7.312.28-1.565 1.501-5.726 1.565-8.694.509-3.414-1.214-5.534-4.012-4.737-6.248"/>
            <path fill="#1E394C" d="M22.908 141.35c-.79-9.708-5.041-18.524-12.133-25.211-.277-.262.143-.68.42-.418 7.206 6.796 11.502 15.763 12.307 25.629.03.38-.563.377-.594 0M25.064 139.969c-.243-11.967 3.52-23.448 10.818-32.945.228-.298.742-.004.511.298-7.237 9.42-10.978 20.775-10.737 32.647.008.38-.584.38-.592 0"/>
            <path fill="#1E394C" d="M27.567 122.593c-1.615-5.139-2.028-10.597-2.226-15.952-.013-.38.58-.38.593 0 .196 5.308.604 10.703 2.205 15.795.114.364-.458.52-.572.157M36.772 121.603c-2.85 1.79-6.176 3.155-9.32 4.346-.357.134-.511-.437-.157-.572 3.09-1.17 6.374-2.524 9.178-4.285.324-.203.622.309.3.511M11.537 126.21a63.246 63.246 0 0 0 8.768 2.926c.369.094.212.664-.159.57a63.373 63.373 0 0 1-8.767-2.926c-.346-.144-.194-.716.158-.57"/>
            <path fill="#CEE5ED" d="M34.993 138.6l-1.8 16.274a4.018 4.018 0 0 1-3.995 3.575H18.811a4.02 4.02 0 0 1-3.997-3.575L13.016 138.6a1.496 1.496 0 0 1 1.487-1.66h19.002c.893 0 1.586.774 1.488 1.66"/>
            <path fill="#AAC6CE" d="M14.504 136.94h6.588c-.893 0-1.586.774-1.489 1.66l1.8 16.275a4.018 4.018 0 0 0 3.996 3.574h-6.588c-2.05 0-3.77-1.54-3.996-3.574l-1.8-16.275a1.495 1.495 0 0 1 1.489-1.66"/>
        </g>
    </g>
</svg>
